{
.appVersion = "3436";
.storedFileType = com.schriftgestaltung.glyphs;
.formatVersion = 3;
DisplayStrings = (
"THE QUICK BROWN FOX JUMPS OVER THE LAZY DOG
the quick brown fox jumps over the lazy dog
Spacing
nanbncndnenfngnhninjnknlnmnnonpnqnrnsntnunvnwnxnynzn
HAHBHCHDHEHFHGHHIHJHKHLHMHNHOHPHQHRHSHTHUHVHWHXHYHZH
0102030405060708090
lower case//lower case
aufkauf aufhalt aufbleib
verixt auflassen 
hoe auffassen
le aufit raufjagen fıne
aufnden Tiefieger
Stolos Muon Stoigel Ozier
Raband Tuhöhle Sukopp 
führen fördern fähre
wegjagen Bargfeld
kyrie afro arte axe luvwärts
Gevatter wann 
ever gewettet severe
davon gewonnen down
wichtig recken
ndnďlďhďoďnď*ď”
nlnľlľhľoľnľ*ľ”dh
fîî tíì lïïë thĩĩ nsa
Versal//Kleinbuchstaben
Farbe Fest Firn Fjord Font
Frau flor Fu Fähre Förde Füe
Rest Rohr Röhre Rymer
Test Tod Tauf Tim Tja Turm
Traum Tsara Twist Tyrol
Tüte Töten Täter TéTêTèVeste Vogel VéVêVèVater Vijf Vlut Vulkan
Vytautas Vroni Väter Vögel Vs Ws Vz Wz
Weste Wolf Wüste Wörpe Wärter Waage Wiege Wlasta
Wurst Wyhl Wrasen
Yeats Yoni auf Yqem
Yak Ybbs Yggdrasil Yps
Ysop Ytong Yuma
Versal//Versal
ATK AVI AWL AYN LTK
LVI LWL LYN V TH
RTK TVI RWL RYN
TABULA VATER WASSER
YAKUZA FABEL PAPST
UNE H",
"/D.sc",
"/d.sc",
"/f_l"
);
axes = (
{
name = Weight;
tag = wght;
},
{
name = Italic;
tag = ital;
}
);
customParameters = (
{
name = vendorID;
value = XXXX;
},
{
name = panose;
value = (
0,
0,
0,
0,
0,
0,
0,
0,
0,
0
);
},
{
name = unicodeRanges;
value = (
0,
1,
2,
3,
4,
5,
29,
31,
33,
60
);
},
{
name = fsType;
value = (
);
},
{
name = glyphOrder;
value = (
.notdef,
space,
exclam,
quotedbl,
numbersign,
dollar,
ampersand,
quotesingle,
parenleft,
parenright,
asterisk,
plus,
comma,
hyphen,
period,
slash,
zero,
one,
two,
three,
four,
five,
six,
seven,
eight,
nine,
colon,
semicolon,
equal,
question,
arobase,
A_cap,
B_cap,
C_cap,
D_cap,
E_cap,
F_cap,
G_cap,
H_cap,
I_cap,
J_cap,
K_cap,
L_cap,
M_cap,
N_cap,
O_cap,
P_cap,
Q_cap,
R_cap,
S_cap,
T_cap,
U_cap,
V_cap,
W_cap,
X_cap,
Y_cap,
Z_cap,

glyphs = (
{
glyphname = space;
lastChange = "2026-03-04 14:16:17 +0000";
layers = (
{
.lastUpdate = 794326577.241;
layerId = "E059459B-5795-442B-8710-0018C46129BA";
shapes = (
{
closed = 1;
nodes = (
(0,0,l)
);
}
);
width = 238;
},
{
.lastUpdate = 794326577.241;
layerId = "261B483D-14CB-4AC5-AE3A-41E540C8643C";
shapes = (
{
closed = 1;
nodes = (
(0,0,l)
);
}
);
width = 238;
},
{
.lastUpdate = 794326577.241;
layerId = "B523A5AF-871D-4AB2-9BF1-E01A824009A4";
shapes = (
{
closed = 1;
nodes = (
(0,0,l)
);
}
);
width = 238;
},
{
.lastUpdate = 794326577.241;
layerId = "D3C24151-4D63-4841-9665-5260E3226900";
shapes = (
{
closed = 1;
nodes = (
(0,0,l)
);
}
);
width = 238;
},
{
.lastUpdate = 794326577.241;
layerId = "8EEC74F5-9CFA-47B4-A8F8-9A6461F2D63F";
shapes = (
{
closed = 1;
nodes = (
(0,0,l)
);
}
);
width = 238;
},
{
.lastUpdate = 794326577.241;
layerId = m006;
shapes = (
{
closed = 1;
nodes = (
(0,0,l)
);
}
);
width = 238;
},
{
.lastUpdate = 794326577.241;
layerId = m007;
shapes = (
{
closed = 1;
nodes = (
(0,0,l)
);
}
);
width = 238;
},
{
.lastUpdate = 794326577.241;
layerId = m008;
shapes = (
{
closed = 1;
nodes = (
(0,0,l)
);
}
);
width = 238;
},
{
.lastUpdate = 794326577.241;
layerId = m009;
shapes = (
{
closed = 1;
nodes = (
(0,0,l)
);
}
);
width = 238;
},
{
.lastUpdate = 794326577.241;
layerId = m010;
shapes = (
{
closed = 1;
nodes = (
(0,0,l)
);
}
);
width = 238;
}
);
note = space;
unicode = 32;
},
{
glyphname = exclam;
lastChange = "2026-03-04 14:16:17 +0000";
layers = (
{
.lastUpdate = 794326577.241;
layerId = "E059459B-5795-442B-8710-0018C46129BA";
shapes = (
{
closed = 1;
nodes = (
(74,755,o),
(67,720,o),
(70,667,cs),
(99,210,l),
(109,210,l),
(138,667,ls),
(141,720,o),
(134,755,o),
(104,755,c),
(104,755,l)
);
},
{
closed = 1;
nodes = (
(127,-5,o),
(143,11,o),
(143,34,cs),
(143,57,o),
(127,73,o),
(104,73,cs),
(81,73,o),
(65,57,o),
(65,34,cs),
(65,11,o),
(81,-5,o),
(104,-5,cs)
);
}
);
width = 207;
},
{
.lastUpdate = 794326577.241;
layerId = "261B483D-14CB-4AC5-AE3A-41E540C8643C";
shapes = (
{
closed = 1;
nodes = (
(73,755,o),
(64,713,o),
(70,649,cs),
(114,210,l),
(131,210,l),
(175,649,ls),
(181,713,o),
(172,755,o),
(123,755,c),
(123,755,l)
);
},
{
closed = 1;
nodes = (
(159,-5,o),
(183,19,o),
(183,56,cs),
(183,92,o),
(159,116,o),
(123,116,cs),
(86,116,o),
(62,92,o),
(62,56,cs),
(62,19,o),
(86,-5,o),
(123,-5,cs)
);
}
);
width = 245;
},
{
.lastUpdate = 794326577.242;
layerId = "B523A5AF-871D-4AB2-9BF1-E01A824009A4";
shapes = (
{
closed = 1;
nodes = (
(73,755,o),
(65,717,o),
(70,659,cs),
(106,210,l),
(119,210,l),
(156,659,ls),
(161,717,o),
(152,755,o),
(113,755,c),
(113,755,l)
);
},
{
closed = 1;
nodes = (
(142,-5,o),
(162,15,o),
(162,44,cs),
(162,74,o),
(142,94,o),
(113,94,cs),
(83,94,o),
(63,74,o),
(63,44,cs),
(63,15,o),
(83,-5,o),
(113,-5,cs)
);
}
);
width = 225;
},
{
.lastUpdate = 794326577.242;
layerId = "D3C24151-4D63-4841-9665-5260E3226900";
shapes = (
{
closed = 1;
nodes = (
(73,755,o),
(62,709,o),
(70,641,cs),
(122,210,l),
(141,210,l),
(192,641,ls),
(200,709,o),
(190,755,o),
(131,755,c),
(131,755,l)
);
},
{
closed = 1;
nodes = (
(174,-5,o),
(202,23,o),
(202,66,cs),
(202,108,o),
(174,136,o),
(131,136,cs),
(89,136,o),
(61,108,o),
(61,66,cs),
(61,23,o),
(89,-5,o),
(131,-5,cs)
);
}
);
width = 262;
},
{
.lastUpdate = 794326577.242;
layerId = "8EEC74F5-9CFA-47B4-A8F8-9A6461F2D63F";
shapes = (
{
closed = 1;
nodes = (
(72,755,o),
(59,706,o),
(70,632,cs),
(130,210,l),
(151,210,l),
(211,632,ls),
(222,706,o),
(209,755,o),
(140,755,c),
(140,755,l)
);
},
{
closed = 1;
nodes = (
(188,-5,o),
(220,27,o),
(220,75,cs),
(220,123,o),
(188,155,o),
(140,155,cs),
(92,155,o),
(60,123,o),
(60,75,cs),
(60,27,o),
(92,-5,o),
(140,-5,cs)
);
}
);
width = 280;
},
{
.lastUpdate = 794326577.242;
layerId = m006;
shapes = (
{
closed = 1;
nodes = (
(221,755,o),
(207,720,o),
(200,667,cs),
(140,210,l),
(150,210,l),
(267,664,ls),
(281,718,o),
(282,755,o),
(251,755,c),
(251,755,l)
);
},
{
closed = 1;
nodes = (
(130,-5,o),
(151,17,o),
(151,43,cs),
(151,61,o),
(138,73,o),
(118,73,cs),
(92,73,o),
(71,51,o),
(71,25,cs),
(71,7,o),
(84,-5,o),
(103,-5,cs)
);
}
);
width = 207;
},
{
.lastUpdate = 794326577.242;
layerId = m007;
shapes = (
{
closed = 1;
nodes = (
(219,755,o),
(204,716,o),
(198,663,cs),
(146,210,l),
(159,210,l),
(284,660,ls),
(300,718,o),
(298,755,o),
(259,755,c),
(259,755,l)
);
},
{
closed = 1;
nodes = (
(144,-5,o),
(171,22,o),
(171,56,cs),
(171,79,o),
(156,94,o),
(131,94,cs),
(97,94,o),
(70,67,o),
(70,33,cs),
(70,10,o),
(86,-5,o),
(112,-5,cs)
);
}
);
width = 225;
},
{
.lastUpdate = 794326577.242;
layerId = m008;
shapes = (
{
closed = 1;
nodes = (
(219,755,o),
(202,713,o),
(196,650,cs),
(154,210,l),
(171,210,l),
(300,647,ls),
(320,715,o),
(318,755,o),
(269,755,c),
(269,755,l)
);
},
{
closed = 1;
nodes = (
(162,-5,o),
(195,28,o),
(195,70,cs),
(195,98,o),
(177,116,o),
(145,116,cs),
(108,116,o),
(71,88,o),
(71,41,cs),
(71,13,o),
(89,-5,o),
(122,-5,cs)
);
}
);
width = 245;
},
{
.lastUpdate = 794326577.242;
layerId = m009;
shapes = (
{
closed = 1;
nodes = (
(224,755,o),
(200,716,o),
(194,634,cs),
(163,210,l),
(182,210,l),
(316,640,ls),
(338,711,o),
(336,755,o),
(278,755,c),
(278,755,l)
);
},
{
closed = 1;
nodes = (
(178,-5,o),
(216,33,o),
(216,82,cs),
(216,115,o),
(194,136,o),
(157,136,cs),
(110,136,o),
(72,98,o),
(72,49,cs),
(72,16,o),
(94,-5,o),
(130,-5,cs)
);
}
);
width = 262;
},
{
.lastUpdate = 794326577.242;
layerId = m010;
shapes = (
{
closed = 1;
nodes = (
(220,755,o),
(197,707,o),
(193,632,cs),
(171,210,l),
(192,210,l),
(335,634,ls),
(359,705,o),
(356,755,o),
(287,755,c),
(287,755,l)
);
},
{
closed = 1;
nodes = (
(194,-5,o),
(237,39,o),
(237,94,cs),
(237,131,o),
(212,155,o),
(170,155,cs),
(116,155,o),
(73,111,o),
(73,56,cs),
(73,19,o),
(98,-5,o),
(139,-5,cs)
);
}
);
width = 280;
}
);
note = exclam;
unicode = 33;
},
{
glyphname = quotedbl;
lastChange = "2026-03-04 14:16:17 +0000";
layers = (
{
.lastUpdate = 794326577.242;
layerId = "E059459B-5795-442B-8710-0018C46129BA";
shapes = (
{
closed = 1;
nodes = (
(75,755,o),
(66,735,o),
(70,704,cs),
(91,544,l),
(99,544,l),
(120,704,ls),
(124,735,o),
(115,755,o),
(97,755,cs),
(93,755,ls)
);
},
{
closed = 1;
nodes = (
(190,755,o),
(181,735,o),
(185,704,cs),
(207,544,l),
(214,544,l),
(236,704,ls),
(240,735,o),
(231,755,o),
(212,755,cs),
(209,755,ls)
);
}
);
width = 305;
},
{
.lastUpdate = 794326577.242;
layerId = "261B483D-14CB-4AC5-AE3A-41E540C8643C";
shapes = (
{
closed = 1;
nodes = (
(77,755,o),
(62,723,o),
(72,676,cs),
(105,516,l),
(118,516,l),
(151,676,ls),
(161,723,o),
(146,755,o),
(114,755,cs),
(109,755,ls)
);
},
{
closed = 1;
nodes = (
(223,755,o),
(208,723,o),
(218,676,cs),
(251,516,l),
(263,516,l),
(297,676,ls),
(307,723,o),
(292,755,o),
(260,755,cs),
(255,755,ls)
);
}
);
width = 368;
},
{
.lastUpdate = 794326577.243;
layerId = "B523A5AF-871D-4AB2-9BF1-E01A824009A4";
shapes = (
{
closed = 1;
nodes = (
(76,755,o),
(65,729,o),
(71,691,cs),
(98,531,l),
(108,531,l),
(135,691,ls),
(141,729,o),
(130,755,o),
(105,755,cs),
(101,755,ls)
);
},
{
closed = 1;
nodes = (
(206,755,o),
(195,729,o),
(201,691,cs),
(228,531,l),
(238,531,l),
(265,691,ls),
(271,729,o),
(260,755,o),
(235,755,cs),
(231,755,ls)
);
}
);
width = 335;
},
{
.lastUpdate = 794326577.243;
layerId = "D3C24151-4D63-4841-9665-5260E3226900";
shapes = (
{
closed = 1;
nodes = (
(77,755,o),
(60,718,o),
(73,663,cs),
(112,503,l),
(126,503,l),
(165,663,ls),
(178,718,o),
(161,755,o),
(122,755,cs),
(116,755,ls)
);
},
{
closed = 1;
nodes = (
(237,755,o),
(220,718,o),
(233,663,cs),
(272,503,l),
(286,503,l),
(325,663,ls),
(338,718,o),
(321,755,o),
(282,755,cs),
(276,755,ls)
);
}
);
width = 398;
},
{
.lastUpdate = 794326577.243;
layerId = "8EEC74F5-9CFA-47B4-A8F8-9A6461F2D63F";
shapes = (
{
closed = 1;
nodes = (
(77,755,o),
(56,713,o),
(74,649,cs),
(119,489,l),
(135,489,l),
(180,649,ls),
(198,713,o),
(178,755,o),
(131,755,cs),
(124,755,ls)
);
},
{
closed = 1;
nodes = (
(252,755,o),
(231,713,o),
(249,649,cs),
(294,489,l),
(310,489,l),
(355,649,ls),
(373,713,o),
(353,755,o),
(306,755,cs),
(299,755,ls)
);
}
);
width = 429;
},
{
.lastUpdate = 794326577.243;
layerId = m006;
shapes = (
{
closed = 1;
nodes = (
(222,755,o),
(209,735,o),
(207,704,cs),
(197,544,l),
(205,544,l),
(257,704,ls),
(267,735,o),
(262,755,o),
(244,755,cs),
(240,755,ls)
);
},
{
closed = 1;
nodes = (
(337,755,o),
(324,735,o),
(322,704,cs),
(313,544,l),
(320,544,l),
(373,704,ls),
(383,734,o),
(378,755,o),
(359,755,cs),
(356,755,ls)
);
}
);
width = 305;
},
{
.lastUpdate = 794326577.243;
layerId = m007;
shapes = (
{
closed = 1;
nodes = (
(223,755,o),
(206,730,o),
(205,691,cs),
(201,531,l),
(211,531,l),
(269,691,ls),
(283,730,o),
(276,755,o),
(252,755,cs),
(248,755,ls)
);
},
{
closed = 1;
nodes = (
(353,755,o),
(336,730,o),
(335,691,cs),
(331,531,l),
(341,531,l),
(399,691,ls),
(413,730,o),
(406,755,o),
(382,755,cs),
(378,755,ls)
);
}
);
width = 335;
},
{
.lastUpdate = 794326577.243;
layerId = m008;
shapes = (
{
closed = 1;
nodes = (
(224,755,o),
(202,723,o),
(203,676,cs),
(205,516,l),
(218,516,l),
(282,676,ls),
(300,721,o),
(294,755,o),
(260,755,cs),
(255,755,ls)
);
},
{
closed = 1;
nodes = (
(370,755,o),
(348,723,o),
(349,676,cs),
(351,516,l),
(363,516,l),
(428,676,ls),
(447,723,o),
(438,755,o),
(406,755,cs),
(401,755,ls)
);
}
);
width = 368;
},
{
.lastUpdate = 794326577.243;
layerId = m009;
shapes = (
{
closed = 1;
nodes = (
(224,755,o),
(199,718,o),
(202,663,cs),
(210,503,l),
(224,503,l),
(294,663,ls),
(318,718,o),
(308,755,o),
(269,755,cs),
(263,755,ls)
);
},
{
closed = 1;
nodes = (
(384,755,o),
(359,718,o),
(362,663,cs),
(370,503,l),
(384,503,l),
(454,663,ls),
(478,718,o),
(468,755,o),
(429,755,cs),
(423,755,ls)
);
}
);
width = 398;
},
{
.lastUpdate = 794326577.243;
layerId = m010;
shapes = (
{
closed = 1;
nodes = (
(224,755,o),
(194,713,o),
(200,649,cs),
(214,489,l),
(230,489,l),
(306,649,ls),
(336,712,o),
(325,755,o),
(278,755,cs),
(271,755,ls)
);
},
{
closed = 1;
nodes = (
(399,755,o),
(369,713,o),
(375,649,cs),
(389,489,l),
(405,489,l),
(481,649,ls),
(511,712,o),
(500,755,o),
(453,755,cs),
(446,755,ls)
);
}
);
width = 429;
}
);
note = quotedbl;
unicode = 34;
},
{
glyphname = numbersign;
lastChange = "2026-03-04 14:16:17 +0000";
layers = (
{
.lastUpdate = 794326577.243;
layerId = "E059459B-5795-442B-8710-0018C46129BA";
shapes = (
{
closed = 1;
nodes = (
(453,179,l),
(459,221,l),
(25,221,l),
(19,179,l)
);
},
{
closed = 1;
nodes = (
(498,439,l),
(504,481,l),
(65,481,l),
(59,439,l)
);
},
{
closed = 1;
nodes = (
(124,0,l),
(145,0,l),
(242,679,l),
(221,679,l)
);
},
{
closed = 1;
nodes = (
(285,0,l),
(306,0,l),
(403,679,l),
(382,679,l)
);
}
);
width = 523;
},
{
.lastUpdate = 794326577.243;
layerId = "261B483D-14CB-4AC5-AE3A-41E540C8643C";
shapes = (
{
closed = 1;
nodes = (
(457,167,l),
(466,233,l),
(27,233,l),
(17,167,l)
);
},
{
closed = 1;
nodes = (
(504,427,l),
(513,493,l),
(68,493,l),
(59,427,l)
);
},
{
closed = 1;
nodes = (
(118,0,l),
(151,0,l),
(250,667,l),
(217,667,l)
);
},
{
closed = 1;
nodes = (
(283,0,l),
(316,0,l),
(415,667,l),
(382,667,l)
);
}
);
width = 533;
},
{
.lastUpdate = 794326577.244;
layerId = "B523A5AF-871D-4AB2-9BF1-E01A824009A4";
shapes = (
{
closed = 1;
nodes = (
(455,173,l),
(462,227,l),
(26,227,l),
(18,173,l)
);
},
{
closed = 1;
nodes = (
(501,433,l),
(508,487,l),
(66,487,l),
(59,433,l)
);
},
{
closed = 1;
nodes = (
(121,0,l),
(148,0,l),
(246,673,l),
(219,673,l)
);
},
{
closed = 1;
nodes = (
(284,0,l),
(311,0,l),
(409,673,l),
(382,673,l)
);
}
);
width = 528;
},
{
.lastUpdate = 794326577.244;
layerId = "D3C24151-4D63-4841-9665-5260E3226900";
shapes = (
{
closed = 1;
nodes = (
(459,161,l),
(470,239,l),
(27,239,l),
(17,161,l)
);
},
{
closed = 1;
nodes = (
(506,421,l),
(517,499,l),
(69,499,l),
(59,421,l)
);
},
{
closed = 1;
nodes = (
(115,0,l),
(154,0,l),
(253,661,l),
(215,661,l)
);
},
{
closed = 1;
nodes = (
(282,0,l),
(321,0,l),
(420,661,l),
(382,661,l)
);
}
);
width = 537;
},
{
.lastUpdate = 794326577.244;
layerId = "8EEC74F5-9CFA-47B4-A8F8-9A6461F2D63F";
shapes = (
{
closed = 1;
nodes = (
(461,156,l),
(474,244,l),
(28,244,l),
(16,156,l)
);
},
{
closed = 1;
nodes = (
(510,416,l),
(522,504,l),
(71,504,l),
(59,416,l)
);
},
{
closed = 1;
nodes = (
(112,0,l),
(157,0,l),
(257,656,l),
(213,656,l)
);
},
{
closed = 1;
nodes = (
(282,0,l),
(326,0,l),
(426,656,l),
(382,656,l)
);
}
);
width = 542;
},
{
.lastUpdate = 794326577.244;
layerId = m006;
shapes = (
{
closed = 1;
nodes = (
(488,179,l),
(502,221,l),
(68,221,l),
(54,179,l)
);
},
{
closed = 1;
nodes = (
(584,439,l),
(598,481,l),
(159,481,l),
(145,439,l)
);
},
{
closed = 1;
nodes = (
(124,0,l),
(145,0,l),
(374,679,l),
(353,679,l)
);
},
{
closed = 1;
nodes = (
(285,0,l),
(306,0,l),
(535,679,l),
(514,679,l)
);
}
);
width = 523;
},
{
.lastUpdate = 794326577.244;
layerId = m007;
shapes = (
{
closed = 1;
nodes = (
(489,173,l),
(506,227,l),
(70,227,l),
(52,173,l)
);
},
{
closed = 1;
nodes = (
(586,433,l),
(603,487,l),
(161,487,l),
(144,433,l)
);
},
{
closed = 1;
nodes = (
(121,0,l),
(148,0,l),
(377,673,l),
(350,673,l)
);
},
{
closed = 1;
nodes = (
(284,0,l),
(311,0,l),
(540,673,l),
(513,673,l)
);
}
);
width = 528;
},
{
.lastUpdate = 794326577.244;
layerId = m008;
shapes = (
{
closed = 1;
nodes = (
(489,167,l),
(511,233,l),
(72,233,l),
(49,167,l)
);
},
{
closed = 1;
nodes = (
(587,427,l),
(608,493,l),
(163,493,l),
(142,427,l)
);
},
{
closed = 1;
nodes = (
(118,0,l),
(151,0,l),
(379,667,l),
(346,667,l)
);
},
{
closed = 1;
nodes = (
(283,0,l),
(316,0,l),
(544,667,l),
(511,667,l)
);
}
);
width = 533;
},
{
.lastUpdate = 794326577.244;
layerId = m009;
shapes = (
{
closed = 1;
nodes = (
(490,161,l),
(516,239,l),
(73,239,l),
(48,161,l)
);
},
{
closed = 1;
nodes = (
(588,421,l),
(614,499,l),
(166,499,l),
(141,421,l)
);
},
{
closed = 1;
nodes = (
(115,0,l),
(154,0,l),
(381,661,l),
(343,661,l)
);
},
{
closed = 1;
nodes = (
(282,0,l),
(321,0,l),
(548,661,l),
(510,661,l)
);
}
);
width = 537;
},
{
.lastUpdate = 794326577.244;
layerId = m010;
shapes = (
{
closed = 1;
nodes = (
(491,156,l),
(521,244,l),
(75,244,l),
(46,156,l)
);
},
{
closed = 1;
nodes = (
(591,416,l),
(620,504,l),
(169,504,l),
(140,416,l)
);
},
{
closed = 1;
nodes = (
(112,0,l),
(157,0,l),
(384,656,l),
(340,656,l)
);
},
{
closed = 1;
nodes = (
(282,0,l),
(326,0,l),
(553,656,l),
(509,656,l)
);
}
);
width = 542;
}
);
note = numbersign;
unicode = 35;
},
{
glyphname = ampersand;
lastChange = "2026-03-04 14:16:17 +0000";
layers = (
{
.lastUpdate = 794326577.245;
layerId = "E059459B-5795-442B-8710-0018C46129BA";
shapes = (
{
closed = 1;
nodes = (
(709,500,l),
(609,225,o),
(438,41,o),
(277,41,cs),
(174,41,o),
(106,112,o),
(106,218,cs),
(106,322,o),
(166,410,o),
(256,438,c),
(247,441,l),
(127,404,o),
(47,308,o),
(47,201,cs),
(47,74,o),
(126,-10,o),
(245,-10,cs),
(421,-10,o),
(613,194,o),
(725,500,c)
);
},
{
closed = 1;
nodes = (
(317,465,l),
(409,493,o),
(471,552,o),
(471,613,cs),
(471,701,o),
(409,760,o),
(315,760,cs),
(217,760,o),
(152,697,o),
(152,603,cs),
(152,562,o),
(206,497,o),
(287,402,cs),
(548,97,ls),
(603,33,o),
(664,-10,o),
(700,-10,cs),
(767,-10,o),
(820,53,o),
(831,148,c),
(822,151,l),
(813,81,o),
(773,35,o),
(723,35,cs),
(694,35,o),
(643,72,o),
(596,127,cs),
(335,432,ls),
(254,526,o),
(200,591,o),
(200,632,cs),
(200,701,o),
(246,747,o),
(315,747,cs),
(382,747,o),
(426,695,o),
(426,616,cs),
(426,551,o),
(380,493,o),
(310,472,c)
);
}
);
width = 841;
},
{
.lastUpdate = 794326577.245;
layerId = "261B483D-14CB-4AC5-AE3A-41E540C8643C";
shapes = (
{
closed = 1;
nodes = (
(710,500,l),
(616,242,o),
(450,70,o),
(295,70,cs),
(196,70,o),
(130,132,o),
(130,224,cs),
(130,327,o),
(182,412,o),
(261,436,c),
(245,441,l),
(121,403,o),
(39,306,o),
(39,199,cs),
(39,73,o),
(121,-10,o),
(245,-10,cs),
(425,-10,o),
(619,194,o),
(730,500,c)
);
},
{
closed = 1;
nodes = (
(320,462,l),
(422,494,o),
(490,554,o),
(490,611,cs),
(490,701,o),
(420,760,o),
(315,760,cs),
(213,760,o),
(145,695,o),
(145,599,cs),
(145,546,o),
(196,484,o),
(273,394,cs),
(534,89,ls),
(585,30,o),
(651,-10,o),
(700,-10,cs),
(770,-10,o),
(824,53,o),
(836,146,c),
(820,151,l),
(813,96,o),
(780,60,o),
(736,60,cs),
(698,60,o),
(648,90,o),
(610,135,cs),
(349,440,ls),
(272,529,o),
(221,591,o),
(221,644,cs),
(221,702,o),
(259,740,o),
(315,740,cs),
(377,740,o),
(419,690,o),
(419,616,cs),
(419,550,o),
(375,493,o),
(309,473,c)
);
}
);
width = 845;
},
{
.lastUpdate = 794326577.245;
layerId = "B523A5AF-871D-4AB2-9BF1-E01A824009A4";
shapes = (
{
closed = 1;
nodes = (
(711,500,l),
(614,233,o),
(444,55,o),
(286,55,cs),
(184,55,o),
(117,121,o),
(117,221,cs),
(117,325,o),
(174,411,o),
(258,437,c),
(246,441,l),
(125,404,o),
(44,307,o),
(44,200,cs),
(44,74,o),
(124,-10,o),
(245,-10,cs),
(423,-10,o),
(616,194,o),
(727,500,c)
);
},
{
closed = 1;
nodes = (
(318,464,l),
(415,493,o),
(480,553,o),
(480,612,cs),
(480,701,o),
(414,760,o),
(315,760,cs),
(215,760,o),
(149,696,o),
(149,601,cs),
(149,554,o),
(202,491,o),
(280,399,cs),
(541,94,ls),
(595,31,o),
(658,-10,o),
(700,-10,cs),
(768,-10,o),
(822,53,o),
(833,147,c),
(821,151,l),
(813,89,o),
(776,47,o),
(729,47,cs),
(696,47,o),
(645,80,o),
(603,130,cs),
(342,435,ls),
(263,528,o),
(210,591,o),
(210,638,cs),
(210,701,o),
(252,744,o),
(315,744,cs),
(380,744,o),
(423,693,o),
(423,616,cs),
(423,550,o),
(378,492,o),
(310,472,c)
);
}
);
width = 843;
},
{
.lastUpdate = 794326577.245;
layerId = "D3C24151-4D63-4841-9665-5260E3226900";
shapes = (
{
closed = 1;
nodes = (
(709,500,l),
(618,250,o),
(455,83,o),
(303,83,cs),
(206,83,o),
(141,141,o),
(141,228,cs),
(141,330,o),
(190,413,o),
(262,436,c),
(245,441,l),
(119,403,o),
(36,306,o),
(36,197,cs),
(36,73,o),
(120,-10,o),
(245,-10,cs),
(426,-10,o),
(621,194,o),
(733,500,c)
);
},
{
closed = 1;
nodes = (
(321,461,l),
(428,494,o),
(499,554,o),
(499,611,cs),
(499,700,o),
(425,760,o),
(315,760,cs),
(211,760,o),
(142,695,o),
(142,597,cs),
(142,539,o),
(192,478,o),
(267,391,cs),
(528,86,ls),
(577,28,o),
(646,-10,o),
(700,-10,cs),
(771,-10,o),
(826,52,o),
(837,146,c),
(820,151,l),
(814,104,o),
(783,72,o),
(742,72,cs),
(700,72,o),
(650,99,o),
(616,138,cs),
(355,443,ls),
(280,531,o),
(230,592,o),
(230,650,cs),
(230,701,o),
(264,736,o),
(315,736,cs),
(376,736,o),
(416,688,o),
(416,616,cs),
(416,550,o),
(373,493,o),
(309,473,c)
);
}
);
width = 847;
},
{
.lastUpdate = 794326577.245;
layerId = "8EEC74F5-9CFA-47B4-A8F8-9A6461F2D63F";
shapes = (
{
closed = 1;
nodes = (
(708,500,l),
(620,258,o),
(461,97,o),
(312,97,cs),
(216,97,o),
(153,151,o),
(153,231,cs),
(153,333,o),
(198,415,o),
(264,435,c),
(244,442,l),
(117,403,o),
(32,305,o),
(32,196,cs),
(32,73,o),
(117,-10,o),
(245,-10,cs),
(428,-10,o),
(624,194,o),
(735,500,c)
);
},
{
closed = 1;
nodes = (
(322,460,l),
(434,494,o),
(508,554,o),
(508,610,cs),
(508,700,o),
(431,760,o),
(315,760,cs),
(209,760,o),
(139,694,o),
(139,595,cs),
(139,532,o),
(188,472,o),
(261,387,cs),
(522,82,ls),
(569,27,o),
(640,-10,o),
(700,-10,cs),
(772,-10,o),
(828,52,o),
(839,145,c),
(819,152,l),
(814,111,o),
(786,84,o),
(748,84,cs),
(702,84,o),
(652,107,o),
(622,142,cs),
(361,447,ls),
(289,533,o),
(240,593,o),
(240,655,cs),
(240,702,o),
(270,733,o),
(315,733,cs),
(374,733,o),
(413,686,o),
(413,617,cs),
(413,550,o),
(371,492,o),
(309,473,c)
);
}
);
width = 849;
},
{
.lastUpdate = 794326577.245;
layerId = m006;
shapes = (
{
closed = 1;
nodes = (
(806,500,l),
(652,224,o),
(446,41,o),
(285,41,cs),
(197,41,o),
(144,93,o),
(144,175,cs),
(144,324,o),
(276,423,o),
(341,438,c),
(333,441,l),
(204,405,o),
(81,293,o),
(81,149,cs),
(81,51,o),
(142,-10,o),
(243,-10,cs),
(419,-10,o),
(650,193,o),
(822,500,c)
);
},
{
closed = 1;
nodes = (
(408,465,l),
(506,494,o),
(594,553,o),
(594,646,cs),
(594,715,o),
(545,760,o),
(463,760,cs),
(340,760,o),
(268,658,o),
(268,592,cs),
(268,551,o),
(308,489,o),
(366,401,cs),
(567,97,ls),
(610,32,o),
(663,-10,o),
(698,-10,cs),
(766,-10,o),
(831,54,o),
(860,148,c),
(852,151,l),
(829,80,o),
(779,35,o),
(730,35,cs),
(702,35,o),
(658,71,o),
(621,127,cs),
(419,432,ls),
(362,518,o),
(322,580,o),
(322,621,cs),
(322,674,o),
(375,747,o),
(460,747,cs),
(517,747,o),
(550,710,o),
(550,652,cs),
(550,559,o),
(476,492,o),
(402,472,c)
);
}
);
width = 841;
},
{
.lastUpdate = 794326577.245;
layerId = m007;
shapes = (
{
closed = 1;
nodes = (
(809,500,l),
(660,233,o),
(455,55,o),
(297,55,cs),
(209,55,o),
(156,104,o),
(156,182,cs),
(156,296,o),
(254,417,o),
(343,437,c),
(332,441,l),
(205,406,o),
(78,294,o),
(78,149,cs),
(78,52,o),
(140,-10,o),
(243,-10,cs),
(422,-10,o),
(655,195,o),
(825,500,c)
);
},
{
closed = 1;
nodes = (
(409,464,l),
(511,494,o),
(602,552,o),
(602,644,cs),
(602,715,o),
(549,760,o),
(463,760,cs),
(340,760,o),
(265,659,o),
(265,587,cs),
(265,542,o),
(303,482,o),
(358,399,cs),
(559,95,ls),
(602,30,o),
(657,-10,o),
(698,-10,cs),
(767,-10,o),
(833,54,o),
(862,147,c),
(851,151,l),
(831,89,o),
(785,47,o),
(738,47,cs),
(706,47,o),
(662,79,o),
(629,129,cs),
(427,435,ls),
(371,520,o),
(333,579,o),
(333,624,cs),
(333,680,o),
(385,744,o),
(460,744,cs),
(515,744,o),
(547,708,o),
(547,651,cs),
(547,560,o),
(475,491,o),
(402,472,c)
);
}
);
width = 843;
},
{
.lastUpdate = 794326577.245;
layerId = m008;
shapes = (
{
closed = 1;
nodes = (
(808,500,l),
(664,242,o),
(464,70,o),
(309,70,cs),
(223,70,o),
(171,117,o),
(171,190,cs),
(171,292,o),
(259,417,o),
(346,436,c),
(331,441,l),
(198,404,o),
(73,292,o),
(73,149,cs),
(73,51,o),
(137,-10,o),
(243,-10,cs),
(424,-10,o),
(658,195,o),
(828,500,c)
);
},
{
closed = 1;
nodes = (
(410,462,l),
(518,495,o),
(612,553,o),
(612,641,cs),
(612,714,o),
(556,760,o),
(463,760,cs),
(341,760,o),
(260,662,o),
(260,581,cs),
(260,532,o),
(297,474,o),
(350,394,cs),
(551,90,ls),
(590,31,o),
(648,-10,o),
(698,-10,cs),
(768,-10,o),
(835,53,o),
(865,146,c),
(850,151,l),
(832,95,o),
(791,60,o),
(748,60,cs),
(710,60,o),
(666,90,o),
(637,134,cs),
(434,441,ls),
(383,518,o),
(345,577,o),
(345,626,cs),
(345,685,o),
(394,740,o),
(459,740,cs),
(512,740,o),
(543,704,o),
(543,649,cs),
(543,559,o),
(470,491,o),
(401,473,c)
);
}
);
width = 845;
},
{
.lastUpdate = 794326577.245;
layerId = m009;
shapes = (
{
closed = 1;
nodes = (
(806,500,l),
(667,251,o),
(471,83,o),
(319,83,cs),
(234,83,o),
(182,127,o),
(182,197,cs),
(182,294,o),
(267,418,o),
(346,436,c),
(330,441,l),
(197,405,o),
(69,292,o),
(69,149,cs),
(69,52,o),
(135,-10,o),
(243,-10,cs),
(424,-10,o),
(659,195,o),
(830,500,c)
);
},
{
closed = 1;
nodes = (
(410,461,l),
(523,495,o),
(620,552,o),
(620,640,cs),
(620,712,o),
(560,760,o),
(462,760,cs),
(339,760,o),
(256,663,o),
(256,576,cs),
(256,524,o),
(292,467,o),
(341,393,cs),
(544,86,ls),
(583,27,o),
(645,-10,o),
(698,-10,cs),
(769,-10,o),
(836,53,o),
(865,146,c),
(849,151,l),
(834,104,o),
(796,72,o),
(756,72,cs),
(715,72,o),
(669,98,o),
(642,139,cs),
(442,441,ls),
(389,521,o),
(354,577,o),
(354,629,cs),
(354,689,o),
(400,736,o),
(458,736,cs),
(509,736,o),
(539,702,o),
(539,649,cs),
(539,549,o),
(453,487,o),
(400,473,c)
);
}
);
width = 847;
},
{
.lastUpdate = 794326577.246;
layerId = m010;
shapes = (
{
closed = 1;
nodes = (
(805,500,l),
(670,258,o),
(479,97,o),
(330,97,cs),
(246,97,o),
(195,139,o),
(195,204,cs),
(195,297,o),
(277,420,o),
(348,435,c),
(330,442,l),
(195,405,o),
(65,290,o),
(65,149,cs),
(65,52,o),
(132,-10,o),
(243,-10,cs),
(426,-10,o),
(662,195,o),
(832,500,c)
);
},
{
closed = 1;
nodes = (
(411,460,l),
(532,496,o),
(629,553,o),
(629,638,cs),
(629,712,o),
(566,760,o),
(462,760,cs),
(339,760,o),
(252,665,o),
(252,571,cs),
(252,516,o),
(288,459,o),
(335,388,cs),
(538,81,ls),
(573,28,o),
(637,-10,o),
(698,-10,cs),
(770,-10,o),
(838,52,o),
(867,145,c),
(848,152,l),
(835,111,o),
(802,84,o),
(764,84,cs),
(718,84,o),
(672,107,o),
(649,142,cs),
(448,447,ls),
(398,523,o),
(365,577,o),
(365,631,cs),
(365,698,o),
(412,733,o),
(457,733,cs),
(507,733,o),
(536,699,o),
(536,648,cs),
(536,549,o),
(450,485,o),
(401,473,c)
);
}
);
width = 849;
}
);
note = ampersand;
unicode = 38;
},
{
glyphname = quotesingle;
lastChange = "2026-03-04 14:16:17 +0000";
layers = (
{
.lastUpdate = 794326577.246;
layerId = "E059459B-5795-442B-8710-0018C46129BA";
shapes = (
{
closed = 1;
nodes = (
(75,755,o),
(66,735,o),
(70,704,cs),
(91,544,l),
(99,544,l),
(120,704,ls),
(124,735,o),
(115,755,o),
(97,755,cs),
(93,755,ls)
);
}
);
width = 190;
},
{
.lastUpdate = 794326577.247;
layerId = "261B483D-14CB-4AC5-AE3A-41E540C8643C";
shapes = (
{
closed = 1;
nodes = (
(77,755,o),
(62,723,o),
(72,676,cs),
(105,516,l),
(118,516,l),
(151,676,ls),
(161,723,o),
(146,755,o),
(114,755,cs),
(109,755,ls)
);
}
);
width = 222;
},
{
.lastUpdate = 794326577.247;
layerId = "B523A5AF-871D-4AB2-9BF1-E01A824009A4";
shapes = (
{
closed = 1;
nodes = (
(76,755,o),
(64,729,o),
(71,691,cs),
(98,531,l),
(108,531,l),
(135,691,ls),
(142,729,o),
(130,755,o),
(105,755,cs),
(101,755,ls)
);
}
);
width = 205;
},
{
.lastUpdate = 794326577.247;
layerId = "D3C24151-4D63-4841-9665-5260E3226900";
shapes = (
{
closed = 1;
nodes = (
(77,755,o),
(60,718,o),
(73,663,cs),
(112,503,l),
(126,503,l),
(165,663,ls),
(178,718,o),
(161,755,o),
(122,755,cs),
(116,755,ls)
);
}
);
width = 238;
},
{
.lastUpdate = 794326577.247;
layerId = "8EEC74F5-9CFA-47B4-A8F8-9A6461F2D63F";
shapes = (
{
closed = 1;
nodes = (
(77,755,o),
(57,713,o),
(74,649,cs),
(119,489,l),
(135,489,l),
(180,649,ls),
(197,713,o),
(178,755,o),
(131,755,cs),
(124,755,ls)
);
}
);
width = 254;
},
{
.lastUpdate = 794326577.247;
layerId = m006;
shapes = (
{
closed = 1;
nodes = (
(222,755,o),
(209,735,o),
(207,704,cs),
(197,544,l),
(205,544,l),
(257,704,ls),
(267,735,o),
(262,755,o),
(244,755,cs),
(240,755,ls)
);
}
);
width = 190;
},
{
.lastUpdate = 794326577.247;
layerId = m007;
shapes = (
{
closed = 1;
nodes = (
(223,755,o),
(206,730,o),
(205,691,cs),
(201,531,l),
(211,531,l),
(270,693,ls),
(283,729,o),
(277,755,o),
(252,755,cs),
(248,755,ls)
);
}
);
width = 205;
},
{
.lastUpdate = 794326577.247;
layerId = m008;
shapes = (
{
closed = 1;
nodes = (
(224,755,o),
(202,723,o),
(203,676,cs),
(205,516,l),
(218,516,l),
(282,676,ls),
(300,721,o),
(294,755,o),
(260,755,cs),
(255,755,ls)
);
}
);
width = 222;
},
{
.lastUpdate = 794326577.247;
layerId = m009;
shapes = (
{
closed = 1;
nodes = (
(224,755,o),
(199,718,o),
(202,663,cs),
(210,503,l),
(224,503,l),
(294,663,ls),
(318,718,o),
(308,755,o),
(269,755,cs),
(263,755,ls)
);
}
);
width = 238;
},
{
.lastUpdate = 794326577.247;
layerId = m010;
shapes = (
{
closed = 1;
nodes = (
(224,755,o),
(194,713,o),
(200,649,cs),
(214,489,l),
(230,489,l),
(306,649,ls),
(336,712,o),
(325,755,o),
(278,755,cs),
(271,755,ls)
);
}
);
width = 254;
}
);
note = quotesingle;
unicode = 39;
},
{
glyphname = parenleft;
lastChange = "2026-03-04 14:16:17 +0000";
layers = (
{
.lastUpdate = 794326577.247;
layerId = "E059459B-5795-442B-8710-0018C46129BA";
shapes = (
{
closed = 1;
nodes = (
(185,644,o),
(90,449,o),
(90,273,cs),
(90,96,o),
(185,-99,o),
(328,-214,c),
(333,-208,l),
(211,-109,o),
(129,83,o),
(129,273,cs),
(129,463,o),
(211,655,o),
(333,754,c),
(328,760,l)
);
}
);
width = 313;
},
{
.lastUpdate = 794326577.247;
layerId = "261B483D-14CB-4AC5-AE3A-41E540C8643C";
shapes = (
{
closed = 1;
nodes = (
(185,644,o),
(90,449,o),
(90,273,cs),
(90,96,o),
(185,-99,o),
(328,-214,c),
(336,-205,l),
(225,-115,o),
(151,76,o),
(151,273,cs),
(151,470,o),
(225,661,o),
(336,751,c),
(328,760,l)
);
}
);
width = 316;
},
{
.lastUpdate = 794326577.247;
layerId = "B523A5AF-871D-4AB2-9BF1-E01A824009A4";
shapes = (
{
closed = 1;
nodes = (
(185,644,o),
(90,449,o),
(90,273,cs),
(90,96,o),
(185,-99,o),
(328,-214,c),
(335,-207,l),
(217,-112,o),
(139,80,o),
(139,273,cs),
(139,466,o),
(217,658,o),
(335,752,c),
(328,760,l)
);
}
);
width = 314;
},
{
.lastUpdate = 794326577.247;
layerId = "D3C24151-4D63-4841-9665-5260E3226900";
shapes = (
{
closed = 1;
nodes = (
(185,644,o),
(90,449,o),
(90,273,cs),
(90,96,o),
(185,-99,o),
(328,-214,c),
(337,-203,l),
(232,-118,o),
(161,73,o),
(161,273,cs),
(161,473,o),
(232,663,o),
(337,749,c),
(328,760,l)
);
}
);
width = 317;
},
{
.lastUpdate = 794326577.247;
layerId = "8EEC74F5-9CFA-47B4-A8F8-9A6461F2D63F";
shapes = (
{
closed = 1;
nodes = (
(185,644,o),
(90,449,o),
(90,273,cs),
(90,96,o),
(185,-99,o),
(328,-214,c),
(339,-202,l),
(238,-120,o),
(171,70,o),
(171,273,cs),
(171,476,o),
(238,666,o),
(339,747,c),
(328,760,l)
);
}
);
width = 318;
},
{
.lastUpdate = 794326577.247;
layerId = m006;
shapes = (
{
closed = 1;
nodes = (
(308,648,o),
(133,402,o),
(133,169,cs),
(133,23,o),
(189,-121,o),
(286,-214,c),
(292,-208,l),
(214,-133,o),
(169,-2,o),
(169,140,cs),
(169,427,o),
(363,682,o),
(479,754,c),
(476,760,l)
);
}
);
width = 313;
},
{
.lastUpdate = 794326577.247;
layerId = m007;
shapes = (
{
closed = 1;
nodes = (
(308,648,o),
(133,402,o),
(133,169,cs),
(133,23,o),
(189,-121,o),
(286,-214,c),
(295,-207,l),
(220,-136,o),
(178,-9,o),
(178,131,cs),
(178,418,o),
(362,680,o),
(481,752,c),
(476,760,l)
);
}
);
width = 314;
},
{
.lastUpdate = 794326577.248;
layerId = m008;
shapes = (
{
closed = 1;
nodes = (
(308,648,o),
(133,402,o),
(133,169,cs),
(133,23,o),
(189,-121,o),
(286,-214,c),
(296,-205,l),
(227,-139,o),
(189,-17,o),
(189,120,cs),
(189,402,o),
(359,676,o),
(482,751,c),
(476,760,l)
);
}
);
width = 316;
},
{
.lastUpdate = 794326577.248;
layerId = m009;
shapes = (
{
closed = 1;
nodes = (
(308,648,o),
(133,402,o),
(133,169,cs),
(133,23,o),
(189,-121,o),
(286,-214,c),
(297,-203,l),
(233,-141,o),
(198,-24,o),
(198,111,cs),
(198,393,o),
(361,675,o),
(482,749,c),
(476,760,l)
);
}
);
width = 317;
},
{
.lastUpdate = 794326577.248;
layerId = m010;
shapes = (
{
closed = 1;
nodes = (
(308,648,o),
(133,402,o),
(133,169,cs),
(133,23,o),
(189,-121,o),
(286,-214,c),
(300,-202,l),
(240,-144,o),
(207,-33,o),
(207,100,cs),
(207,375,o),
(359,673,o),
(484,747,c),
(476,760,l)
);
}
);
width = 318;
}
);
note = parenleft;
unicode = 40;
},
{
glyphname = parenright;
lastChange = "2026-03-04 14:16:17 +0000";
layers = (
{
.lastUpdate = 794326577.248;
layerId = "E059459B-5795-442B-8710-0018C46129BA";
shapes = (
{
closed = 1;
nodes = (
(94,653,o),
(174,460,o),
(174,273,cs),
(174,80,o),
(94,-115,o),
(-25,-214,c),
(-20,-220,l),
(120,-103,o),
(213,94,o),
(213,273,cs),
(213,446,o),
(120,641,o),
(-20,760,c),
(-25,754,l)
);
}
);
width = 303;
},
{
.lastUpdate = 794326577.248;
layerId = "261B483D-14CB-4AC5-AE3A-41E540C8643C";
shapes = (
{
closed = 1;
nodes = (
(84,656,o),
(158,465,o),
(158,273,cs),
(158,73,o),
(84,-122,o),
(-28,-214,c),
(-20,-224,l),
(123,-105,o),
(219,94,o),
(219,273,cs),
(219,443,o),
(123,638,o),
(-20,760,c),
(-28,751,l)
);
}
);
width = 308;
},
{
.lastUpdate = 794326577.248;
layerId = "B523A5AF-871D-4AB2-9BF1-E01A824009A4";
shapes = (
{
closed = 1;
nodes = (
(89,654,o),
(166,463,o),
(166,273,cs),
(166,77,o),
(89,-118,o),
(-26,-214,c),
(-20,-222,l),
(122,-104,o),
(216,94,o),
(216,273,cs),
(216,445,o),
(122,640,o),
(-20,760,c),
(-26,752,l)
);
}
);
width = 305;
},
{
.lastUpdate = 794326577.248;
layerId = "D3C24151-4D63-4841-9665-5260E3226900";
shapes = (
{
closed = 1;
nodes = (
(78,658,o),
(150,467,o),
(150,273,cs),
(150,70,o),
(78,-125,o),
(-29,-214,c),
(-20,-225,l),
(125,-106,o),
(221,94,o),
(221,273,cs),
(221,442,o),
(125,637,o),
(-20,760,c),
(-29,749,l)
);
}
);
width = 311;
},
{
.lastUpdate = 794326577.248;
layerId = "8EEC74F5-9CFA-47B4-A8F8-9A6461F2D63F";
shapes = (
{
closed = 1;
nodes = (
(74,660,o),
(143,470,o),
(143,273,cs),
(143,66,o),
(74,-129,o),
(-31,-214,c),
(-20,-227,l),
(126,-107,o),
(224,93,o),
(224,273,cs),
(224,441,o),
(126,636,o),
(-20,760,c),
(-31,748,l)
);
}
);
width = 313;
},
{
.lastUpdate = 794326577.248;
layerId = m006;
shapes = (
{
closed = 1;
nodes = (
(197,677,o),
(240,547,o),
(240,406,cs),
(240,124,o),
(51,-139,o),
(-67,-214,c),
(-63,-220,l),
(39,-151,o),
(275,91,o),
(275,376,cs),
(275,520,o),
(221,664,o),
(127,760,c),
(121,754,l)
);
}
);
width = 303;
},
{
.lastUpdate = 794326577.248;
layerId = m007;
shapes = (
{
closed = 1;
nodes = (
(192,678,o),
(232,552,o),
(232,414,cs),
(232,133,o),
(52,-138,o),
(-68,-214,c),
(-64,-222,l),
(40,-152,o),
(278,91,o),
(278,374,cs),
(278,517,o),
(223,663,o),
(127,760,c),
(120,752,l)
);
}
);
width = 305;
},
{
.lastUpdate = 794326577.248;
layerId = m008;
shapes = (
{
closed = 1;
nodes = (
(187,681,o),
(225,557,o),
(225,421,cs),
(225,145,o),
(55,-137,o),
(-70,-214,c),
(-64,-224,l),
(40,-154,o),
(281,91,o),
(281,370,cs),
(281,514,o),
(224,661,o),
(127,760,c),
(118,751,l)
);
}
);
width = 308;
},
{
.lastUpdate = 794326577.248;
layerId = m009;
shapes = (
{
closed = 1;
nodes = (
(182,682,o),
(218,562,o),
(218,427,cs),
(218,151,o),
(53,-137,o),
(-71,-214,c),
(-64,-225,l),
(41,-155,o),
(283,90,o),
(283,369,cs),
(283,512,o),
(226,660,o),
(127,760,c),
(116,749,l)
);
}
);
width = 311;
},
{
.lastUpdate = 794326577.249;
layerId = m010;
shapes = (
{
closed = 1;
nodes = (
(178,684,o),
(212,568,o),
(212,435,cs),
(212,166,o),
(57,-136,o),
(-73,-214,c),
(-65,-227,l),
(40,-157,o),
(285,89,o),
(285,367,cs),
(285,509,o),
(227,658,o),
(127,760,c),
(114,748,l)
);
}
);
width = 313;
}
);
note = parenright;
unicode = 41;
},
{
glyphname = asterisk;
lastChange = "2026-03-04 14:16:17 +0000";
layers = (
{
.lastUpdate = 794326577.249;
layerId = "E059459B-5795-442B-8710-0018C46129BA";
shapes = (
{
closed = 1;
nodes = (
(200,750,l),
(202,763,o),
(195,772,o),
(183,772,cs),
(171,772,o),
(164,763,o),
(166,750,c)
);
},
{
closed = 1;
nodes = (
(164,497,o),
(171,488,o),
(183,488,cs),
(195,488,o),
(202,497,o),
(200,510,c),
(166,510,l)
);
},
{
closed = 1;
nodes = (
(88,705,l),
(77,713,o),
(66,711,o),
(60,701,cs),
(54,691,o),
(58,680,o),
(71,675,c)
);
},
{
closed = 1;
nodes = (
(289,547,o),
(300,549,o),
(306,559,cs),
(312,569,o),
(308,580,o),
(295,585,c),
(278,555,l)
);
},
{
closed = 1;
nodes = (
(71,585,l),
(58,580,o),
(54,569,o),
(60,559,cs),
(66,549,o),
(77,547,o),
(88,555,c)
);
},
{
closed = 1;
nodes = (
(308,680,o),
(312,691,o),
(306,701,cs),
(300,711,o),
(289,713,o),
(278,705,c),
(295,675,l)
);
},
{
closed = 1;
nodes = (
(181,630,l),
(166,510,l),
(200,510,l),
(185,630,l),
(200,750,l),
(166,750,l)
);
},
{
closed = 1;
nodes = (
(182,629,l),
(278,555,l),
(295,585,l),
(184,631,l),
(88,705,l),
(71,675,l)
);
},
{
closed = 1;
nodes = (
(184,629,l),
(295,675,l),
(278,705,l),
(182,631,l),
(71,585,l),
(88,555,l)
);
}
);
width = 366;
},
{
.lastUpdate = 794326577.249;
layerId = "261B483D-14CB-4AC5-AE3A-41E540C8643C";
shapes = (
{
closed = 1;
nodes = (
(222,750,l),
(226,770,o),
(216,783,o),
(196,783,cs),
(176,783,o),
(166,770,o),
(170,750,c)
);
},
{
closed = 1;
nodes = (
(166,490,o),
(176,477,o),
(196,477,cs),
(216,477,o),
(226,490,o),
(222,510,c),
(170,510,l)
);
},
{
closed = 1;
nodes = (
(105,713,l),
(90,726,o),
(73,724,o),
(63,707,cs),
(53,689,o),
(60,674,o),
(79,667,c)
);
},
{
closed = 1;
nodes = (
(302,534,o),
(319,536,o),
(329,553,cs),
(339,571,o),
(332,586,o),
(313,593,c),
(287,547,l)
);
},
{
closed = 1;
nodes = (
(79,593,l),
(60,586,o),
(53,571,o),
(63,553,cs),
(73,536,o),
(90,534,o),
(105,547,c)
);
},
{
closed = 1;
nodes = (
(332,674,o),
(339,689,o),
(329,707,cs),
(319,724,o),
(302,726,o),
(287,713,c),
(313,667,l)
);
},
{
closed = 1;
nodes = (
(194,630,l),
(170,510,l),
(222,510,l),
(198,630,l),
(222,750,l),
(170,750,l)
);
},
{
closed = 1;
nodes = (
(195,628,l),
(287,547,l),
(313,593,l),
(197,632,l),
(105,713,l),
(79,667,l)
);
},
{
closed = 1;
nodes = (
(197,628,l),
(313,667,l),
(287,713,l),
(195,632,l),
(79,593,l),
(105,547,l)
);
}
);
width = 392;
},
{
.lastUpdate = 794326577.249;
layerId = "B523A5AF-871D-4AB2-9BF1-E01A824009A4";
shapes = (
{
closed = 1;
nodes = (
(171,750,l),
(174,766,o),
(166,777,o),
(150,777,cs),
(134,777,o),
(126,766,o),
(129,750,c)
);
},
{
closed = 1;
nodes = (
(126,494,o),
(134,483,o),
(150,483,cs),
(166,483,o),
(174,494,o),
(171,510,c),
(129,510,l)
);
},
{
closed = 1;
nodes = (
(57,709,l),
(44,719,o),
(30,717,o),
(23,704,cs),
(15,690,o),
(20,677,o),
(35,671,c)
);
},
{
closed = 1;
nodes = (
(256,541,o),
(270,543,o),
(277,556,cs),
(285,570,o),
(280,583,o),
(265,589,c),
(243,551,l)
);
},
{
closed = 1;
nodes = (
(35,589,l),
(20,583,o),
(15,570,o),
(23,556,cs),
(30,543,o),
(44,541,o),
(57,551,c)
);
},
{
closed = 1;
nodes = (
(280,677,o),
(285,690,o),
(277,704,cs),
(270,717,o),
(256,719,o),
(243,709,c),
(265,671,l)
);
},
{
closed = 1;
nodes = (
(148,630,l),
(129,510,l),
(171,510,l),
(152,630,l),
(171,750,l),
(129,750,l)
);
},
{
closed = 1;
nodes = (
(149,628,l),
(243,551,l),
(265,589,l),
(151,632,l),
(57,709,l),
(35,671,l)
);
},
{
closed = 1;
nodes = (
(151,628,l),
(265,671,l),
(243,709,l),
(149,632,l),
(35,589,l),
(57,551,l)
);
}
);
width = 284;
},
{
.lastUpdate = 794326577.249;
layerId = "D3C24151-4D63-4841-9665-5260E3226900";
shapes = (
{
closed = 1;
nodes = (
(230,750,l),
(235,771,o),
(222,785,o),
(199,785,cs),
(176,785,o),
(163,771,o),
(168,750,c)
);
},
{
closed = 1;
nodes = (
(163,489,o),
(176,475,o),
(199,475,cs),
(222,475,o),
(235,489,o),
(230,510,c),
(168,510,l)
);
},
{
closed = 1;
nodes = (
(110,716,l),
(95,731,o),
(76,728,o),
(65,707,cs),
(53,687,o),
(59,670,o),
(80,664,c)
);
},
{
closed = 1;
nodes = (
(303,529,o),
(322,532,o),
(333,552,cs),
(345,573,o),
(339,590,o),
(318,596,c),
(288,544,l)
);
},
{
closed = 1;
nodes = (
(80,596,l),
(59,590,o),
(53,573,o),
(65,552,cs),
(76,532,o),
(95,529,o),
(110,544,c)
);
},
{
closed = 1;
nodes = (
(339,670,o),
(345,687,o),
(333,707,cs),
(322,728,o),
(303,731,o),
(288,716,c),
(318,664,l)
);
},
{
closed = 1;
nodes = (
(196,630,l),
(168,510,l),
(230,510,l),
(202,630,l),
(230,750,l),
(168,750,l)
);
},
{
closed = 1;
nodes = (
(198,628,l),
(288,544,l),
(318,596,l),
(200,632,l),
(110,716,l),
(80,664,l)
);
},
{
closed = 1;
nodes = (
(200,628,l),
(318,664,l),
(288,716,l),
(198,632,l),
(80,596,l),
(110,544,l)
);
}
);
width = 398;
},
{
.lastUpdate = 794326577.249;
layerId = "8EEC74F5-9CFA-47B4-A8F8-9A6461F2D63F";
shapes = (
{
closed = 1;
nodes = (
(185,750,l),
(190,771,o),
(176,785,o),
(150,785,cs),
(124,785,o),
(110,771,o),
(115,750,c)
);
},
{
closed = 1;
nodes = (
(110,489,o),
(124,475,o),
(150,475,cs),
(176,475,o),
(190,489,o),
(185,510,c),
(115,510,l)
);
},
{
closed = 1;
nodes = (
(64,720,l),
(48,736,o),
(29,730,o),
(16,707,cs),
(3,685,o),
(8,665,o),
(29,660,c)
);
},
{
closed = 1;
nodes = (
(252,524,o),
(271,530,o),
(284,552,cs),
(297,575,o),
(292,595,o),
(271,600,c),
(236,540,l)
);
},
{
closed = 1;
nodes = (
(29,600,l),
(8,595,o),
(3,575,o),
(16,552,cs),
(29,530,o),
(48,524,o),
(64,540,c)
);
},
{
closed = 1;
nodes = (
(292,665,o),
(297,685,o),
(284,707,cs),
(271,730,o),
(252,736,o),
(236,720,c),
(271,660,l)
);
},
{
closed = 1;
nodes = (
(147,630,l),
(115,510,l),
(185,510,l),
(153,630,l),
(185,750,l),
(115,750,l)
);
},
{
closed = 1;
nodes = (
(148,627,l),
(236,540,l),
(271,600,l),
(152,633,l),
(64,720,l),
(29,660,l)
);
},
{
closed = 1;
nodes = (
(152,627,l),
(271,660,l),
(236,720,l),
(148,633,l),
(29,600,l),
(64,540,l)
);
}
);
width = 300;
},
{
.lastUpdate = 794326577.249;
layerId = m006;
shapes = (
{
closed = 1;
nodes = (
(346,750,l),
(351,763,o),
(345,772,o),
(333,772,cs),
(321,772,o),
(313,763,o),
(312,750,c)
);
},
{
closed = 1;
nodes = (
(260,497,o),
(266,488,o),
(278,488,cs),
(290,488,o),
(298,496,o),
(299,510,c),
(265,510,l)
);
},
{
closed = 1;
nodes = (
(225,705,l),
(215,713,o),
(205,711,o),
(197,701,cs),
(189,691,o),
(189,680,o),
(203,675,c)
);
},
{
closed = 1;
nodes = (
(396,547,o),
(407,549,o),
(415,559,cs),
(423,569,o),
(421,580,o),
(409,585,c),
(386,555,l)
);
},
{
closed = 1;
nodes = (
(185,585,l),
(171,580,o),
(165,569,o),
(169,559,cs),
(173,549,o),
(184,547,o),
(196,555,c)
);
},
{
closed = 1;
nodes = (
(441,680,o),
(446,691,o),
(443,700,cs),
(439,711,o),
(428,713,o),
(415,705,c),
(427,675,l)
);
},
{
closed = 1;
nodes = (
(304,630,l),
(265,510,l),
(299,510,l),
(308,630,l),
(346,750,l),
(312,750,l)
);
},
{
closed = 1;
nodes = (
(305,629,l),
(386,555,l),
(409,585,l),
(307,631,l),
(225,705,l),
(203,675,l)
);
},
{
closed = 1;
nodes = (
(307,629,l),
(427,675,l),
(415,705,l),
(305,631,l),
(185,585,l),
(196,555,l)
);
}
);
width = 366;
},
{
.lastUpdate = 794326577.249;
layerId = m007;
shapes = (
{
closed = 1;
nodes = (
(317,750,l),
(323,766,o),
(317,777,o),
(301,777,cs),
(285,777,o),
(275,766,o),
(275,750,c)
);
},
{
closed = 1;
nodes = (
(222,494,o),
(228,483,o),
(244,483,cs),
(260,483,o),
(270,494,o),
(270,510,c),
(228,510,l)
);
},
{
closed = 1;
nodes = (
(195,709,l),
(183,720,o),
(169,716,o),
(160,704,cs),
(149,690,o),
(151,677,o),
(165,671,c)
);
},
{
closed = 1;
nodes = (
(362,540,o),
(376,544,o),
(385,556,cs),
(396,571,o),
(393,583,o),
(379,589,c),
(350,551,l)
);
},
{
closed = 1;
nodes = (
(149,589,l),
(133,583,o),
(126,570,o),
(131,556,cs),
(136,543,o),
(149,541,o),
(164,551,c)
);
},
{
closed = 1;
nodes = (
(411,677,o),
(419,690,o),
(414,704,cs),
(409,718,o),
(395,718,o),
(381,709,c),
(395,671,l)
);
},
{
closed = 1;
nodes = (
(270,630,l),
(228,510,l),
(270,510,l),
(274,630,l),
(317,750,l),
(275,750,l)
);
},
{
closed = 1;
nodes = (
(271,628,l),
(350,551,l),
(379,589,l),
(274,632,l),
(195,709,l),
(165,671,l)
);
},
{
closed = 1;
nodes = (
(273,628,l),
(395,671,l),
(381,709,l),
(272,632,l),
(149,589,l),
(164,551,l)
);
}
);
width = 284;
},
{
.lastUpdate = 794326577.249;
layerId = m008;
shapes = (
{
closed = 1;
nodes = (
(367,750,l),
(375,770,o),
(367,783,o),
(348,783,cs),
(327,783,o),
(315,770,o),
(315,750,c)
);
},
{
closed = 1;
nodes = (
(261,490,o),
(269,477,o),
(288,477,cs),
(309,477,o),
(321,490,o),
(321,510,c),
(269,510,l)
);
},
{
closed = 1;
nodes = (
(243,713,l),
(231,726,o),
(213,724,o),
(200,707,cs),
(187,690,o),
(190,674,o),
(208,667,c)
);
},
{
closed = 1;
nodes = (
(405,534,o),
(423,536,o),
(436,553,cs),
(449,570,o),
(446,586,o),
(428,593,c),
(393,547,l)
);
},
{
closed = 1;
nodes = (
(194,593,l),
(174,586,o),
(163,571,o),
(170,553,cs),
(176,537,o),
(192,533,o),
(211,547,c)
);
},
{
closed = 1;
nodes = (
(462,674,o),
(473,689,o),
(466,707,cs),
(460,724,o),
(443,726,o),
(425,713,c),
(442,667,l)
);
},
{
closed = 1;
nodes = (
(316,630,l),
(269,510,l),
(321,510,l),
(320,630,l),
(367,750,l),
(315,750,l)
);
},
{
closed = 1;
nodes = (
(317,628,l),
(393,547,l),
(428,593,l),
(319,632,l),
(243,713,l),
(208,667,l)
);
},
{
closed = 1;
nodes = (
(319,628,l),
(442,667,l),
(425,713,l),
(317,632,l),
(194,593,l),
(211,547,l)
);
}
);
width = 392;
},
{
.lastUpdate = 794326577.249;
layerId = m009;
shapes = (
{
closed = 1;
nodes = (
(375,750,l),
(384,771,o),
(374,785,o),
(351,785,cs),
(328,785,o),
(312,771,o),
(313,750,c)
);
},
{
closed = 1;
nodes = (
(258,489,o),
(268,475,o),
(291,475,cs),
(314,475,o),
(330,489,o),
(329,510,c),
(267,510,l)
);
},
{
closed = 1;
nodes = (
(249,716,l),
(237,731,o),
(218,728,o),
(202,707,cs),
(186,686,o),
(189,670,o),
(209,664,c)
);
},
{
closed = 1;
nodes = (
(405,529,o),
(425,532,o),
(440,552,cs),
(456,573,o),
(454,590,o),
(434,596,c),
(393,544,l)
);
},
{
closed = 1;
nodes = (
(196,596,l),
(174,590,o),
(164,574,o),
(172,552,cs),
(179,533,o),
(196,528,o),
(215,544,c)
);
},
{
closed = 1;
nodes = (
(469,670,o),
(478,687,o),
(470,708,cs),
(462,728,o),
(445,731,o),
(427,716,c),
(447,664,l)
);
},
{
closed = 1;
nodes = (
(318,630,l),
(267,510,l),
(329,510,l),
(324,630,l),
(375,750,l),
(313,750,l)
);
},
{
closed = 1;
nodes = (
(320,628,l),
(393,544,l),
(434,596,l),
(323,632,l),
(249,716,l),
(209,664,l)
);
},
{
closed = 1;
nodes = (
(322,628,l),
(447,664,l),
(427,716,l),
(321,632,l),
(196,596,l),
(215,544,l)
);
}
);
width = 398;
},
{
.lastUpdate = 794326577.25;
layerId = m010;
shapes = (
{
closed = 1;
nodes = (
(330,750,l),
(339,771,o),
(328,785,o),
(302,785,cs),
(276,785,o),
(259,771,o),
(260,750,c)
);
},
{
closed = 1;
nodes = (
(205,489,o),
(216,475,o),
(242,475,cs),
(268,475,o),
(285,489,o),
(284,510,c),
(214,510,l)
);
},
{
closed = 1;
nodes = (
(204,720,l),
(191,736,o),
(171,730,o),
(153,707,cs),
(136,685,o),
(137,665,o),
(157,660,c)
);
},
{
closed = 1;
nodes = (
(354,524,o),
(374,530,o),
(391,552,cs),
(408,574,o),
(408,595,o),
(387,600,c),
(341,540,l)
);
},
{
closed = 1;
nodes = (
(145,600,l),
(124,595,o),
(114,575,o),
(123,552,cs),
(131,531,o),
(149,524,o),
(169,540,c)
);
},
{
closed = 1;
nodes = (
(421,665,o),
(430,685,o),
(421,708,cs),
(412,730,o),
(395,736,o),
(376,720,c),
(399,660,l)
);
},
{
closed = 1;
nodes = (
(269,630,l),
(214,510,l),
(284,510,l),
(275,630,l),
(330,750,l),
(260,750,l)
);
},
{
closed = 1;
nodes = (
(270,627,l),
(341,540,l),
(387,600,l),
(275,633,l),
(204,720,l),
(157,660,l)
);
},
{
closed = 1;
nodes = (
(274,627,l),
(399,660,l),
(376,720,l),
(271,633,l),
(145,600,l),
(169,540,l)
);
}
);
width = 300;
}
);
note = asterisk;
unicode = 42;
},
{
glyphname = plus;
lastChange = "2026-03-04 14:16:17 +0000";
layers = (
{
.lastUpdate = 794326577.25;
layerId = "E059459B-5795-442B-8710-0018C46129BA";
shapes = (
{
closed = 1;
nodes = (
(511,230,l),
(511,270,l),
(100,270,l),
(100,230,l)
);
},
{
closed = 1;
nodes = (
(284,45,l),
(327,45,l),
(327,455,l),
(284,455,l)
);
}
);
width = 610;
},
{
.lastUpdate = 794326577.25;
layerId = "261B483D-14CB-4AC5-AE3A-41E540C8643C";
shapes = (
{
closed = 1;
nodes = (
(511,220,l),
(511,280,l),
(100,280,l),
(100,220,l)
);
},
{
closed = 1;
nodes = (
(272,45,l),
(339,45,l),
(339,455,l),
(272,455,l)
);
}
);
width = 610;
},
{
.lastUpdate = 794326577.251;
layerId = "B523A5AF-871D-4AB2-9BF1-E01A824009A4";
shapes = (
{
closed = 1;
nodes = (
(511,225,l),
(511,275,l),
(100,275,l),
(100,225,l)
);
},
{
closed = 1;
nodes = (
(278,45,l),
(333,45,l),
(333,455,l),
(278,455,l)
);
}
);
width = 610;
},
{
.lastUpdate = 794326577.251;
layerId = "D3C24151-4D63-4841-9665-5260E3226900";
shapes = (
{
closed = 1;
nodes = (
(511,215,l),
(511,285,l),
(100,285,l),
(100,215,l)
);
},
{
closed = 1;
nodes = (
(267,45,l),
(344,45,l),
(344,455,l),
(267,455,l)
);
}
);
width = 610;
},
{
.lastUpdate = 794326577.251;
layerId = "8EEC74F5-9CFA-47B4-A8F8-9A6461F2D63F";
shapes = (
{
closed = 1;
nodes = (
(511,209,l),
(511,291,l),
(100,291,l),
(100,209,l)
);
},
{
closed = 1;
nodes = (
(261,45,l),
(350,45,l),
(350,455,l),
(261,455,l)
);
}
);
width = 610;
},
{
.lastUpdate = 794326577.251;
layerId = m006;
shapes = (
{
closed = 1;
nodes = (
(556,230,l),
(564,270,l),
(153,270,l),
(145,230,l)
);
},
{
closed = 1;
nodes = (
(293,45,l),
(336,45,l),
(416,455,l),
(373,455,l)
);
}
);
width = 610;
},
{
.lastUpdate = 794326577.251;
layerId = m007;
shapes = (
{
closed = 1;
nodes = (
(555,225,l),
(565,275,l),
(154,275,l),
(144,225,l)
);
},
{
closed = 1;
nodes = (
(287,45,l),
(342,45,l),
(422,455,l),
(367,455,l)
);
}
);
width = 610;
},
{
.lastUpdate = 794326577.251;
layerId = m008;
shapes = (
{
closed = 1;
nodes = (
(554,220,l),
(566,280,l),
(155,280,l),
(143,220,l)
);
},
{
closed = 1;
nodes = (
(281,45,l),
(348,45,l),
(428,455,l),
(361,455,l)
);
}
);
width = 610;
},
{
.lastUpdate = 794326577.251;
layerId = m009;
shapes = (
{
closed = 1;
nodes = (
(553,215,l),
(567,285,l),
(156,285,l),
(142,215,l)
);
},
{
closed = 1;
nodes = (
(276,45,l),
(353,45,l),
(433,455,l),
(356,455,l)
);
}
);
width = 610;
},
{
.lastUpdate = 794326577.251;
layerId = m010;
shapes = (
{
closed = 1;
nodes = (
(552,209,l),
(568,291,l),
(157,291,l),
(141,209,l)
);
},
{
closed = 1;
nodes = (
(270,45,l),
(359,45,l),
(439,455,l),
(350,455,l)
);
}
);
width = 610;
}
);
note = plus;
unicode = 43;
},
{
glyphname = comma;
lastChange = "2026-03-04 14:16:17 +0000";
layers = (
{
.lastUpdate = 794326577.251;
layerId = "E059459B-5795-442B-8710-0018C46129BA";
shapes = (
{
closed = 1;
nodes = (
(148,-5,o),
(164,11,o),
(164,34,cs),
(164,57,o),
(148,73,o),
(125,73,cs),
(102,73,o),
(86,57,o),
(86,34,cs),
(86,11,o),
(102,-5,o),
(125,-5,cs)
);
},
{
closed = 1;
nodes = (
(125,45,l),
(140,45,o),
(150,32,o),
(150,13,cs),
(150,-37,o),
(123,-78,o),
(83,-89,c),
(86,-100,l),
(141,-85,o),
(178,-37,o),
(178,17,cs),
(178,51,o),
(157,73,o),
(125,73,c)
);
}
);
width = 229;
},
{
.lastUpdate = 794326577.251;
layerId = "261B483D-14CB-4AC5-AE3A-41E540C8643C";
shapes = (
{
closed = 1;
nodes = (
(162,-5,o),
(186,19,o),
(186,56,cs),
(186,92,o),
(162,116,o),
(125,116,cs),
(88,116,o),
(64,92,o),
(64,56,cs),
(64,19,o),
(88,-5,o),
(125,-5,cs)
);
},
{
closed = 1;
nodes = (
(125,73,l),
(148,73,o),
(164,48,o),
(164,11,cs),
(164,-46,o),
(122,-96,o),
(59,-114,c),
(64,-131,l),
(150,-106,o),
(207,-46,o),
(207,19,cs),
(207,77,o),
(174,116,o),
(125,116,c)
);
}
);
width = 250;
},
{
.lastUpdate = 794326577.251;
layerId = "B523A5AF-871D-4AB2-9BF1-E01A824009A4";
shapes = (
{
closed = 1;
nodes = (
(154,-5,o),
(174,15,o),
(174,44,cs),
(174,74,o),
(154,94,o),
(125,94,cs),
(96,94,o),
(76,74,o),
(76,44,cs),
(76,15,o),
(96,-5,o),
(125,-5,cs)
);
},
{
closed = 1;
nodes = (
(125,58,l),
(144,58,o),
(157,40,o),
(157,12,cs),
(157,-41,o),
(123,-86,o),
(72,-101,c),
(76,-115,l),
(145,-95,o),
(192,-42,o),
(192,18,cs),
(192,64,o),
(165,94,o),
(125,94,c)
);
}
);
width = 239;
},
{
.lastUpdate = 794326577.251;
layerId = "D3C24151-4D63-4841-9665-5260E3226900";
shapes = (
{
closed = 1;
nodes = (
(168,-5,o),
(196,23,o),
(196,66,cs),
(196,108,o),
(168,136,o),
(125,136,cs),
(82,136,o),
(54,108,o),
(54,66,cs),
(54,23,o),
(82,-5,o),
(125,-5,cs)
);
},
{
closed = 1;
nodes = (
(125,86,l),
(154,86,o),
(173,56,o),
(173,11,cs),
(173,-51,o),
(124,-106,o),
(49,-128,c),
(54,-145,l),
(153,-117,o),
(218,-51,o),
(218,19,cs),
(218,89,o),
(181,136,o),
(125,136,c)
);
}
);
width = 260;
},
{
.lastUpdate = 794326577.251;
layerId = "8EEC74F5-9CFA-47B4-A8F8-9A6461F2D63F";
shapes = (
{
closed = 1;
nodes = (
(173,-5,o),
(205,27,o),
(205,75,cs),
(205,123,o),
(173,155,o),
(125,155,cs),
(77,155,o),
(45,123,o),
(45,75,cs),
(45,27,o),
(77,-5,o),
(125,-5,cs)
);
},
{
closed = 1;
nodes = (
(125,97,l),
(158,97,o),
(180,62,o),
(180,11,cs),
(180,-57,o),
(124,-118,o),
(40,-143,c),
(45,-160,l),
(156,-128,o),
(230,-56,o),
(230,19,cs),
(230,101,o),
(188,155,o),
(125,155,c)
);
}
);
width = 270;
},
{
.lastUpdate = 794326577.251;
layerId = m006;
shapes = (
{
closed = 1;
nodes = (
(151,-5,o),
(172,17,o),
(172,43,cs),
(172,61,o),
(159,73,o),
(139,73,cs),
(113,73,o),
(92,51,o),
(92,25,cs),
(92,7,o),
(105,-5,o),
(124,-5,cs)
);
},
{
closed = 1;
nodes = (
(134,45,l),
(147,45,o),
(154,35,o),
(154,22,cs),
(154,-21,o),
(108,-81,o),
(66,-89,c),
(67,-100,l),
(107,-92,o),
(183,-38,o),
(183,31,cs),
(183,57,o),
(167,73,o),
(139,73,c)
);
}
);
width = 229;
},
{
.lastUpdate = 794326577.251;
layerId = m007;
shapes = (
{
closed = 1;
nodes = (
(156,-5,o),
(183,22,o),
(183,56,cs),
(183,79,o),
(168,94,o),
(143,94,cs),
(110,94,o),
(83,67,o),
(83,33,cs),
(83,10,o),
(99,-5,o),
(124,-5,cs)
);
},
{
closed = 1;
nodes = (
(136,58,l),
(151,58,o),
(160,46,o),
(160,27,cs),
(160,-42,o),
(88,-93,o),
(52,-101,c),
(53,-115,l),
(110,-101,o),
(197,-43,o),
(197,38,cs),
(197,72,o),
(177,94,o),
(143,94,c)
);
}
);
width = 239;
},
{
.lastUpdate = 794326577.251;
layerId = m008;
shapes = (
{
closed = 1;
nodes = (
(166,-5,o),
(198,28,o),
(198,70,cs),
(198,98,o),
(179,116,o),
(148,116,cs),
(111,116,o),
(74,88,o),
(74,41,cs),
(74,13,o),
(92,-5,o),
(124,-5,cs)
);
},
{
closed = 1;
nodes = (
(139,73,l),
(157,73,o),
(168,57,o),
(168,32,cs),
(168,-48,o),
(87,-102,o),
(37,-114,c),
(39,-131,l),
(129,-107,o),
(214,-40,o),
(214,45,cs),
(214,88,o),
(190,116,o),
(148,116,c)
);
}
);
width = 250;
},
{
.lastUpdate = 794326577.252;
layerId = m009;
shapes = (
{
closed = 1;
nodes = (
(172,-5,o),
(210,33,o),
(210,82,cs),
(210,115,o),
(188,136,o),
(151,136,cs),
(108,136,o),
(65,103,o),
(65,49,cs),
(65,16,o),
(87,-5,o),
(124,-5,cs)
);
},
{
closed = 1;
nodes = (
(142,86,l),
(165,86,o),
(178,67,o),
(178,37,cs),
(178,-42,o),
(104,-107,o),
(24,-128,c),
(26,-145,l),
(130,-117,o),
(225,-47,o),
(225,52,cs),
(225,103,o),
(198,136,o),
(151,136,c)
);
}
);
width = 260;
},
{
.lastUpdate = 794326577.252;
layerId = m010;
shapes = (
{
closed = 1;
nodes = (
(178,-5,o),
(221,39,o),
(221,94,cs),
(221,131,o),
(196,155,o),
(155,155,cs),
(100,155,o),
(57,111,o),
(57,56,cs),
(57,19,o),
(82,-5,o),
(124,-5,cs)
);
},
{
closed = 1;
nodes = (
(144,97,l),
(170,97,o),
(185,75,o),
(185,40,cs),
(185,-49,o),
(101,-119,o),
(12,-143,c),
(14,-160,l),
(132,-127,o),
(238,-54,o),
(238,59,cs),
(238,118,o),
(207,155,o),
(155,155,c)
);
}
);
width = 270;
}
);
note = comma;
unicode = 44;
},
{
glyphname = hyphen;
lastChange = "2026-03-04 14:16:17 +0000";
layers = (
{
.lastUpdate = 794326577.252;
layerId = "E059459B-5795-442B-8710-0018C46129BA";
shapes = (
{
closed = 1;
nodes = (
(341,234,l),
(341,280,l),
(80,280,l),
(80,234,l)
);
}
);
width = 420;
},
{
.lastUpdate = 794326577.252;
layerId = "261B483D-14CB-4AC5-AE3A-41E540C8643C";
shapes = (
{
closed = 1;
nodes = (
(341,222,l),
(341,292,l),
(80,292,l),
(80,222,l)
);
}
);
width = 420;
},
{
.lastUpdate = 794326577.252;
layerId = "B523A5AF-871D-4AB2-9BF1-E01A824009A4";
shapes = (
{
closed = 1;
nodes = (
(341,228,l),
(341,286,l),
(80,286,l),
(80,228,l)
);
}
);
width = 420;
},
{
.lastUpdate = 794326577.252;
layerId = "D3C24151-4D63-4841-9665-5260E3226900";
shapes = (
{
closed = 1;
nodes = (
(341,216,l),
(341,298,l),
(80,298,l),
(80,216,l)
);
}
);
width = 420;
},
{
.lastUpdate = 794326577.252;
layerId = "8EEC74F5-9CFA-47B4-A8F8-9A6461F2D63F";
shapes = (
{
closed = 1;
nodes = (
(341,210,l),
(341,304,l),
(80,304,l),
(80,210,l)
);
}
);
width = 420;
},
{
.lastUpdate = 794326577.252;
layerId = m006;
shapes = (
{
closed = 1;
nodes = (
(386,234,l),
(395,280,l),
(134,280,l),
(125,234,l)
);
}
);
width = 420;
},
{
.lastUpdate = 794326577.252;
layerId = m007;
shapes = (
{
closed = 1;
nodes = (
(385,228,l),
(396,286,l),
(135,286,l),
(124,228,l)
);
}
);
width = 420;
},
{
.lastUpdate = 794326577.252;
layerId = m008;
shapes = (
{
closed = 1;
nodes = (
(384,222,l),
(398,292,l),
(137,292,l),
(123,222,l)
);
}
);
width = 420;
},
{
.lastUpdate = 794326577.252;
layerId = m009;
shapes = (
{
closed = 1;
nodes = (
(383,216,l),
(399,298,l),
(138,298,l),
(122,216,l)
);
}
);
width = 420;
},
{
.lastUpdate = 794326577.253;
layerId = m010;
shapes = (
{
closed = 1;
nodes = (
(382,210,l),
(400,304,l),
(139,304,l),
(121,210,l)
);
}
);
width = 420;
}
);
note = hyphen;
unicode = 45;
},
{
glyphname = period;
lastChange = "2026-03-04 14:16:17 +0000";
layers = (
{
.lastUpdate = 794326577.253;
layerId = "E059459B-5795-442B-8710-0018C46129BA";
shapes = (
{
closed = 1;
nodes = (
(148,-5,o),
(164,11,o),
(164,34,cs),
(164,57,o),
(148,73,o),
(125,73,cs),
(102,73,o),
(86,57,o),
(86,34,cs),
(86,11,o),
(102,-5,o),
(125,-5,cs)
);
}
);
width = 229;
},
{
.lastUpdate = 794326577.253;
layerId = "261B483D-14CB-4AC5-AE3A-41E540C8643C";
shapes = (
{
closed = 1;
nodes = (
(162,-5,o),
(186,19,o),
(186,56,cs),
(186,92,o),
(162,116,o),
(125,116,cs),
(88,116,o),
(64,92,o),
(64,56,cs),
(64,19,o),
(88,-5,o),
(125,-5,cs)
);
}
);
width = 250;
},
{
.lastUpdate = 794326577.253;
layerId = "B523A5AF-871D-4AB2-9BF1-E01A824009A4";
shapes = (
{
closed = 1;
nodes = (
(154,-5,o),
(174,15,o),
(174,44,cs),
(174,74,o),
(154,94,o),
(125,94,cs),
(96,94,o),
(76,74,o),
(76,44,cs),
(76,15,o),
(96,-5,o),
(125,-5,cs)
);
}
);
width = 239;
},
{
.lastUpdate = 794326577.253;
layerId = "D3C24151-4D63-4841-9665-5260E3226900";
shapes = (
{
closed = 1;
nodes = (
(168,-5,o),
(196,23,o),
(196,66,cs),
(196,108,o),
(168,136,o),
(125,136,cs),
(82,136,o),
(54,108,o),
(54,66,cs),
(54,23,o),
(82,-5,o),
(125,-5,cs)
);
}
);
width = 260;
},
{
.lastUpdate = 794326577.253;
layerId = "8EEC74F5-9CFA-47B4-A8F8-9A6461F2D63F";
shapes = (
{
closed = 1;
nodes = (
(173,-5,o),
(205,27,o),
(205,75,cs),
(205,123,o),
(173,155,o),
(125,155,cs),
(77,155,o),
(45,123,o),
(45,75,cs),
(45,27,o),
(77,-5,o),
(125,-5,cs)
);
}
);
width = 270;
},
{
.lastUpdate = 794326577.253;
layerId = m006;
shapes = (
{
closed = 1;
nodes = (
(151,-5,o),
(172,17,o),
(172,43,cs),
(172,61,o),
(159,73,o),
(139,73,cs),
(113,73,o),
(92,51,o),
(92,25,cs),
(92,7,o),
(105,-5,o),
(124,-5,cs)
);
}
);
width = 229;
},
{
.lastUpdate = 794326577.253;
layerId = m007;
shapes = (
{
closed = 1;
nodes = (
(156,-5,o),
(183,22,o),
(183,56,cs),
(183,79,o),
(168,94,o),
(143,94,cs),
(110,94,o),
(83,67,o),
(83,33,cs),
(83,10,o),
(99,-5,o),
(124,-5,cs)
);
}
);
width = 239;
},
{
.lastUpdate = 794326577.253;
layerId = m008;
shapes = (
{
closed = 1;
nodes = (
(165,-5,o),
(198,28,o),
(198,70,cs),
(198,98,o),
(179,116,o),
(147,116,cs),
(110,116,o),
(73,88,o),
(73,41,cs),
(73,13,o),
(91,-5,o),
(124,-5,cs)
);
}
);
width = 250;
},
{
.lastUpdate = 794326577.253;
layerId = m009;
shapes = (
{
closed = 1;
nodes = (
(172,-5,o),
(210,33,o),
(210,82,cs),
(210,115,o),
(188,136,o),
(151,136,cs),
(108,136,o),
(65,103,o),
(65,49,cs),
(65,16,o),
(87,-5,o),
(124,-5,cs)
);
}
);
width = 260;
},
{
.lastUpdate = 794326577.253;
layerId = m010;
shapes = (
{
closed = 1;
nodes = (
(179,-5,o),
(222,39,o),
(222,94,cs),
(222,131,o),
(197,155,o),
(155,155,cs),
(101,155,o),
(58,111,o),
(58,56,cs),
(58,19,o),
(83,-5,o),
(124,-5,cs)
);
}
);
width = 270;
}
);
note = period;
unicode = 46;
},
{
glyphname = slash;
lastChange = "2026-03-04 14:16:17 +0000";
layers = (
{
.lastUpdate = 794326577.253;
layerId = "E059459B-5795-442B-8710-0018C46129BA";
shapes = (
{
closed = 1;
nodes = (
(39,-80,l),
(71,-80,l),
(353,770,l),
(321,770,l)
);
}
);
width = 392;
},
{
.lastUpdate = 794326577.253;
layerId = "261B483D-14CB-4AC5-AE3A-41E540C8643C";
shapes = (
{
closed = 1;
nodes = (
(39,-80,l),
(89,-80,l),
(371,770,l),
(321,770,l)
);
}
);
width = 410;
},
{
.lastUpdate = 794326577.254;
layerId = "B523A5AF-871D-4AB2-9BF1-E01A824009A4";
shapes = (
{
closed = 1;
nodes = (
(31,-80,l),
(73,-80,l),
(355,770,l),
(313,770,l)
);
}
);
width = 384;
},
{
.lastUpdate = 794326577.254;
layerId = "D3C24151-4D63-4841-9665-5260E3226900";
shapes = (
{
closed = 1;
nodes = (
(39,-80,l),
(97,-80,l),
(379,770,l),
(321,770,l)
);
}
);
width = 418;
},
{
.lastUpdate = 794326577.254;
layerId = "8EEC74F5-9CFA-47B4-A8F8-9A6461F2D63F";
shapes = (
{
closed = 1;
nodes = (
(18,-80,l),
(86,-80,l),
(368,770,l),
(300,770,l)
);
}
);
width = 397;
},
{
.lastUpdate = 794326577.254;
layerId = m006;
shapes = (
{
closed = 1;
nodes = (
(23,-80,l),
(55,-80,l),
(502,770,l),
(470,770,l)
);
}
);
width = 392;
},
{
.lastUpdate = 794326577.254;
layerId = m007;
shapes = (
{
closed = 1;
nodes = (
(15,-80,l),
(57,-80,l),
(504,770,l),
(462,770,l)
);
}
);
width = 384;
},
{
.lastUpdate = 794326577.254;
layerId = m008;
shapes = (
{
closed = 1;
nodes = (
(23,-80,l),
(73,-80,l),
(520,770,l),
(470,770,l)
);
}
);
width = 410;
},
{
.lastUpdate = 794326577.254;
layerId = m009;
shapes = (
{
closed = 1;
nodes = (
(23,-80,l),
(81,-80,l),
(528,770,l),
(470,770,l)
);
}
);
width = 418;
},
{
.lastUpdate = 794326577.254;
layerId = m010;
shapes = (
{
closed = 1;
nodes = (
(2,-80,l),
(70,-80,l),
(517,770,l),
(449,770,l)
);
}
);
width = 397;
}
);
note = slash;
unicode = 47;
},
{
glyphname = zero;
lastChange = "2026-03-04 14:16:17 +0000";
layers = (
{
.lastUpdate = 794326577.254;
layerId = "E059459B-5795-442B-8710-0018C46129BA";
shapes = (
{
closed = 1;
nodes = (
(55,94,o),
(173,-10,o),
(312,-10,cs),
(466,-10,o),
(569,110,o),
(569,250,cs),
(569,406,o),
(451,510,o),
(312,510,cs),
(158,510,o),
(55,390,o),
(55,250,cs)
);
},
{
closed = 1;
nodes = (
(190,17,o),
(86,111,o),
(86,250,cs),
(86,376,o),
(176,483,o),
(312,483,cs),
(434,483,o),
(538,389,o),
(538,250,cs),
(538,124,o),
(448,17,o),
(312,17,cs)
);
}
);
width = 624;
},
{
.lastUpdate = 794326577.254;
layerId = "261B483D-14CB-4AC5-AE3A-41E540C8643C";
shapes = (
{
closed = 1;
nodes = (
(55,94,o),
(175,-10,o),
(315,-10,cs),
(471,-10,o),
(575,110,o),
(575,250,cs),
(575,406,o),
(455,510,o),
(315,510,cs),
(159,510,o),
(55,390,o),
(55,250,cs)
);
},
{
closed = 1;
nodes = (
(197,27,o),
(97,116,o),
(97,250,cs),
(97,371,o),
(184,473,o),
(315,473,cs),
(433,473,o),
(533,384,o),
(533,250,cs),
(533,130,o),
(446,27,o),
(315,27,cs)
);
}
);
width = 630;
},
{
.lastUpdate = 794326577.254;
layerId = "B523A5AF-871D-4AB2-9BF1-E01A824009A4";
shapes = (
{
closed = 1;
nodes = (
(47,94,o),
(166,-10,o),
(305,-10,cs),
(460,-10,o),
(563,110,o),
(563,250,cs),
(563,406,o),
(444,510,o),
(305,510,cs),
(150,510,o),
(47,390,o),
(47,250,cs)
);
},
{
closed = 1;
nodes = (
(186,22,o),
(83,113,o),
(83,250,cs),
(83,373,o),
(172,478,o),
(305,478,cs),
(425,478,o),
(527,387,o),
(527,250,cs),
(527,127,o),
(438,22,o),
(305,22,cs)
);
}
);
width = 608;
},
{
.lastUpdate = 794326577.254;
layerId = "D3C24151-4D63-4841-9665-5260E3226900";
shapes = (
{
closed = 1;
nodes = (
(55,94,o),
(176,-10,o),
(317,-10,cs),
(474,-10,o),
(579,110,o),
(579,250,cs),
(579,406,o),
(458,510,o),
(317,510,cs),
(160,510,o),
(55,390,o),
(55,250,cs)
);
},
{
closed = 1;
nodes = (
(201,31,o),
(102,119,o),
(102,250,cs),
(102,368,o),
(188,469,o),
(317,469,cs),
(433,469,o),
(532,381,o),
(532,250,cs),
(532,132,o),
(446,31,o),
(317,31,cs)
);
}
);
width = 634;
},
{
.lastUpdate = 794326577.254;
layerId = "8EEC74F5-9CFA-47B4-A8F8-9A6461F2D63F";
shapes = (
{
closed = 1;
nodes = (
(41,94,o),
(162,-10,o),
(305,-10,cs),
(463,-10,o),
(569,110,o),
(569,250,cs),
(569,406,o),
(448,510,o),
(305,510,cs),
(147,510,o),
(41,390,o),
(41,250,cs)
);
},
{
closed = 1;
nodes = (
(192,37,o),
(96,122,o),
(96,250,cs),
(96,365,o),
(180,463,o),
(305,463,cs),
(418,463,o),
(514,378,o),
(514,250,cs),
(514,135,o),
(430,37,o),
(305,37,cs)
);
}
);
width = 613;
},
{
.lastUpdate = 794326577.254;
layerId = m006;
shapes = (
{
closed = 1;
nodes = (
(98,70,o),
(188,-10,o),
(310,-10,cs),
(477,-10,o),
(623,138,o),
(623,305,cs),
(623,430,o),
(533,510,o),
(411,510,cs),
(244,510,o),
(98,362,o),
(98,195,cs)
);
},
{
closed = 1;
nodes = (
(209,17,o),
(130,89,o),
(130,200,cs),
(130,351,o),
(259,483,o),
(406,483,cs),
(513,483,o),
(592,411,o),
(592,300,cs),
(592,149,o),
(462,17,o),
(315,17,cs)
);
}
);
width = 624;
},
{
.lastUpdate = 794326577.254;
layerId = m007;
shapes = (
{
closed = 1;
nodes = (
(90,70,o),
(181,-10,o),
(303,-10,cs),
(470,-10,o),
(617,137,o),
(617,305,cs),
(617,430,o),
(526,510,o),
(404,510,cs),
(237,510,o),
(90,363,o),
(90,195,cs)
);
},
{
closed = 1;
nodes = (
(205,22,o),
(127,92,o),
(127,201,cs),
(127,349,o),
(254,478,o),
(398,478,cs),
(503,478,o),
(580,408,o),
(580,299,cs),
(580,152,o),
(454,22,o),
(309,22,cs)
);
}
);
width = 608;
},
{
.lastUpdate = 794326577.254;
layerId = m008;
shapes = (
{
closed = 1;
nodes = (
(98,70,o),
(190,-10,o),
(313,-10,cs),
(482,-10,o),
(629,137,o),
(629,305,cs),
(629,430,o),
(537,510,o),
(414,510,cs),
(245,510,o),
(98,363,o),
(98,195,cs)
);
},
{
closed = 1;
nodes = (
(217,27,o),
(141,95,o),
(141,202,cs),
(141,347,o),
(265,473,o),
(407,473,cs),
(510,473,o),
(586,405,o),
(586,298,cs),
(586,154,o),
(462,27,o),
(320,27,cs)
);
}
);
width = 630;
},
{
.lastUpdate = 794326577.254;
layerId = m009;
shapes = (
{
closed = 1;
nodes = (
(98,71,o),
(191,-10,o),
(315,-10,cs),
(485,-10,o),
(633,137,o),
(633,304,cs),
(633,429,o),
(540,510,o),
(416,510,cs),
(246,510,o),
(98,363,o),
(98,196,cs)
);
},
{
closed = 1;
nodes = (
(221,31,o),
(146,99,o),
(146,203,cs),
(146,345,o),
(269,469,o),
(408,469,cs),
(510,469,o),
(585,401,o),
(585,297,cs),
(585,155,o),
(462,31,o),
(323,31,cs)
);
}
);
width = 634;
},
{
.lastUpdate = 794326577.255;
layerId = m010;
shapes = (
{
closed = 1;
nodes = (
(84,71,o),
(177,-10,o),
(303,-10,cs),
(474,-10,o),
(623,137,o),
(623,304,cs),
(623,429,o),
(530,510,o),
(404,510,cs),
(233,510,o),
(84,363,o),
(84,196,cs)
);
},
{
closed = 1;
nodes = (
(214,37,o),
(140,102,o),
(140,204,cs),
(140,342,o),
(259,463,o),
(395,463,cs),
(493,463,o),
(567,398,o),
(567,296,cs),
(567,158,o),
(448,37,o),
(312,37,cs)
);
}
);
width = 613;
}
);
note = zero;
unicode = 48;
},
{
glyphname = one;
lastChange = "2026-03-04 14:16:17 +0000";
layers = (
{
.lastUpdate = 794326577.255;
layerId = "E059459B-5795-442B-8710-0018C46129BA";
shapes = (
{
closed = 1;
nodes = (
(184,38,l),
(184,462,l),
(129,462,l),
(129,38,l)
);
},
{
closed = 1;
nodes = (
(129,38,l),
(129,34,o),
(102,33,o),
(62,33,cs),
(46,33,l),
(46,33,o),
(46,26,o),
(46,16,cs),
(46,7,o),
(46,0,o),
(46,0,c),
(157,0,l),
(267,0,l),
(267,0,o),
(267,7,o),
(267,16,cs),
(267,26,o),
(267,33,o),
(267,33,c),
(251,33,ls),
(211,33,o),
(184,34,o),
(184,38,c)
);
},
{
closed = 1;
nodes = (
(184,466,o),
(211,467,o),
(251,467,cs),
(267,467,l),
(267,467,o),
(267,474,o),
(267,484,cs),
(267,493,o),
(267,500,o),
(267,500,c),
(157,500,l),
(46,500,l),
(46,500,o),
(46,493,o),
(46,484,cs),
(46,474,o),
(46,467,o),
(46,467,c),
(62,467,ls),
(102,467,o),
(129,466,o),
(129,462,c),
(184,462,l)
);
}
);
width = 313;
},
{
.lastUpdate = 794326577.255;
layerId = "261B483D-14CB-4AC5-AE3A-41E540C8643C";
shapes = (
{
closed = 1;
nodes = (
(215,38,l),
(215,462,l),
(129,462,l),
(129,38,l)
);
},
{
closed = 1;
nodes = (
(129,38,l),
(129,34,o),
(102,33,o),
(62,33,cs),
(46,33,l),
(46,33,o),
(46,26,o),
(46,16,cs),
(46,7,o),
(46,0,o),
(46,0,c),
(172,0,l),
(298,0,l),
(298,0,o),
(298,7,o),
(298,16,cs),
(298,26,o),
(298,33,o),
(298,33,c),
(282,33,ls),
(242,33,o),
(215,34,o),
(215,38,c)
);
},
{
closed = 1;
nodes = (
(215,466,o),
(242,467,o),
(282,467,cs),
(298,467,l),
(298,467,o),
(298,474,o),
(298,484,cs),
(298,493,o),
(298,500,o),
(298,500,c),
(172,500,l),
(46,500,l),
(46,500,o),
(46,493,o),
(46,484,cs),
(46,474,o),
(46,467,o),
(46,467,c),
(62,467,ls),
(102,467,o),
(129,466,o),
(129,462,c),
(215,462,l)
);
}
);
width = 344;
},
{
.lastUpdate = 794326577.255;
layerId = "B523A5AF-871D-4AB2-9BF1-E01A824009A4";
shapes = (
{
closed = 1;
nodes = (
(193,38,l),
(193,462,l),
(123,462,l),
(123,38,l)
);
},
{
closed = 1;
nodes = (
(123,38,l),
(123,34,o),
(96,33,o),
(56,33,cs),
(40,33,l),
(40,33,o),
(40,26,o),
(40,16,cs),
(40,7,o),
(40,0,o),
(40,0,c),
(158,0,l),
(276,0,l),
(276,0,o),
(276,7,o),
(276,16,cs),
(276,26,o),
(276,33,o),
(276,33,c),
(260,33,ls),
(220,33,o),
(193,34,o),
(193,38,c)
);
},
{
closed = 1;
nodes = (
(193,466,o),
(220,467,o),
(260,467,cs),
(276,467,l),
(276,467,o),
(276,474,o),
(276,484,cs),
(276,493,o),
(276,500,o),
(276,500,c),
(158,500,l),
(40,500,l),
(40,500,o),
(40,493,o),
(40,484,cs),
(40,474,o),
(40,467,o),
(40,467,c),
(56,467,ls),
(96,467,o),
(123,466,o),
(123,462,c),
(193,462,l)
);
}
);
width = 315;
},
{
.lastUpdate = 794326577.255;
layerId = "D3C24151-4D63-4841-9665-5260E3226900";
shapes = (
{
closed = 1;
nodes = (
(229,38,l),
(229,462,l),
(129,462,l),
(129,38,l)
);
},
{
closed = 1;
nodes = (
(129,38,l),
(129,34,o),
(102,33,o),
(62,33,cs),
(46,33,l),
(46,33,o),
(46,26,o),
(46,16,cs),
(46,7,o),
(46,0,o),
(46,0,c),
(179,0,l),
(312,0,l),
(312,0,o),
(312,7,o),
(312,16,cs),
(312,26,o),
(312,33,o),
(312,33,c),
(296,33,ls),
(256,33,o),
(229,34,o),
(229,38,c)
);
},
{
closed = 1;
nodes = (
(229,466,o),
(256,467,o),
(296,467,cs),
(312,467,l),
(312,467,o),
(312,474,o),
(312,484,cs),
(312,493,o),
(312,500,o),
(312,500,c),
(179,500,l),
(46,500,l),
(46,500,o),
(46,493,o),
(46,484,cs),
(46,474,o),
(46,467,o),
(46,467,c),
(62,467,ls),
(102,467,o),
(129,466,o),
(129,462,c),
(229,462,l)
);
}
);
width = 358;
},
{
.lastUpdate = 794326577.255;
layerId = "8EEC74F5-9CFA-47B4-A8F8-9A6461F2D63F";
shapes = (
{
closed = 1;
nodes = (
(238,38,l),
(238,462,l),
(123,462,l),
(123,38,l)
);
},
{
closed = 1;
nodes = (
(123,38,l),
(123,34,o),
(96,33,o),
(56,33,cs),
(40,33,l),
(40,33,o),
(40,26,o),
(40,16,cs),
(40,7,o),
(40,0,o),
(40,0,c),
(180,0,l),
(321,0,l),
(321,0,o),
(321,7,o),
(321,16,cs),
(321,26,o),
(321,33,o),
(321,33,c),
(305,33,ls),
(265,33,o),
(238,34,o),
(238,38,c)
);
},
{
closed = 1;
nodes = (
(238,466,o),
(265,467,o),
(305,467,cs),
(321,467,l),
(321,467,o),
(321,474,o),
(321,484,cs),
(321,493,o),
(321,500,o),
(321,500,c),
(180,500,l),
(40,500,l),
(40,500,o),
(40,493,o),
(40,484,cs),
(40,474,o),
(40,467,o),
(40,467,c),
(56,467,ls),
(96,467,o),
(123,466,o),
(123,462,c),
(238,462,l)
);
}
);
width = 360;
},
{
.lastUpdate = 794326577.255;
layerId = m006;
shapes = (
{
closed = 1;
nodes = (
(191,38,l),
(274,462,l),
(219,462,l),
(136,38,l)
);
},
{
closed = 1;
nodes = (
(136,38,l),
(135,34,o),
(109,33,o),
(68,33,cs),
(52,33,l),
(52,33,o),
(51,27,o),
(49,16,cs),
(47,5,o),
(46,0,o),
(46,0,c),
(157,0,l),
(267,0,l),
(267,0,o),
(268,5,o),
(270,16,cs),
(272,27,o),
(273,33,o),
(273,33,c),
(257,33,ls),
(217,33,o),
(190,34,o),
(191,38,c)
);
},
{
closed = 1;
nodes = (
(275,466,o),
(301,467,o),
(342,467,cs),
(358,467,l),
(358,467,o),
(359,473,o),
(361,484,cs),
(363,495,o),
(364,500,o),
(364,500,c),
(254,500,l),
(143,500,l),
(143,500,o),
(142,495,o),
(140,484,cs),
(138,473,o),
(137,467,o),
(137,467,c),
(153,467,ls),
(193,467,o),
(220,466,o),
(219,462,c),
(274,462,l)
);
}
);
width = 313;
},
{
.lastUpdate = 794326577.255;
layerId = m007;
shapes = (
{
closed = 1;
nodes = (
(200,38,l),
(283,462,l),
(213,462,l),
(130,38,l)
);
},
{
closed = 1;
nodes = (
(130,38,l),
(129,34,o),
(103,33,o),
(62,33,cs),
(46,33,l),
(46,33,o),
(45,27,o),
(43,16,cs),
(41,5,o),
(40,0,o),
(40,0,c),
(158,0,l),
(276,0,l),
(276,0,o),
(277,5,o),
(279,16,cs),
(281,27,o),
(282,33,o),
(282,33,c),
(266,33,ls),
(226,33,o),
(199,34,o),
(200,38,c)
);
},
{
closed = 1;
nodes = (
(284,466,o),
(310,467,o),
(351,467,cs),
(367,467,l),
(367,467,o),
(368,473,o),
(370,484,cs),
(372,495,o),
(373,500,o),
(373,500,c),
(255,500,l),
(137,500,l),
(137,500,o),
(136,495,o),
(134,484,cs),
(132,473,o),
(131,467,o),
(131,467,c),
(147,467,ls),
(187,467,o),
(214,466,o),
(213,462,c),
(283,462,l)
);
}
);
width = 315;
},
{
.lastUpdate = 794326577.255;
layerId = m008;
shapes = (
{
closed = 1;
nodes = (
(222,38,l),
(305,462,l),
(219,462,l),
(136,38,l)
);
},
{
closed = 1;
nodes = (
(136,38,l),
(135,34,o),
(109,33,o),
(68,33,cs),
(52,33,l),
(52,33,o),
(51,27,o),
(49,16,cs),
(47,5,o),
(46,0,o),
(46,0,c),
(172,0,l),
(298,0,l),
(298,0,o),
(299,5,o),
(301,16,cs),
(303,27,o),
(304,33,o),
(304,33,c),
(288,33,ls),
(248,33,o),
(221,34,o),
(222,38,c)
);
},
{
closed = 1;
nodes = (
(306,466,o),
(332,467,o),
(373,467,cs),
(389,467,l),
(389,467,o),
(390,473,o),
(392,484,cs),
(394,495,o),
(395,500,o),
(395,500,c),
(269,500,l),
(143,500,l),
(143,500,o),
(142,495,o),
(140,484,cs),
(138,473,o),
(137,467,o),
(137,467,c),
(153,467,ls),
(193,467,o),
(220,466,o),
(219,462,c),
(305,462,l)
);
}
);
width = 344;
},
{
.lastUpdate = 794326577.255;
layerId = m009;
shapes = (
{
closed = 1;
nodes = (
(236,38,l),
(319,462,l),
(219,462,l),
(136,38,l)
);
},
{
closed = 1;
nodes = (
(136,38,l),
(135,34,o),
(109,33,o),
(68,33,cs),
(52,33,l),
(52,33,o),
(51,27,o),
(49,16,cs),
(47,5,o),
(46,0,o),
(46,0,c),
(179,0,l),
(312,0,l),
(312,0,o),
(313,5,o),
(315,16,cs),
(317,27,o),
(318,33,o),
(318,33,c),
(302,33,ls),
(262,33,o),
(235,34,o),
(236,38,c)
);
},
{
closed = 1;
nodes = (
(320,466,o),
(346,467,o),
(387,467,cs),
(403,467,l),
(403,467,o),
(404,473,o),
(406,484,cs),
(408,495,o),
(409,500,o),
(409,500,c),
(276,500,l),
(143,500,l),
(143,500,o),
(142,495,o),
(140,484,cs),
(138,473,o),
(137,467,o),
(137,467,c),
(153,467,ls),
(193,467,o),
(220,466,o),
(219,462,c),
(319,462,l)
);
}
);
width = 358;
},
{
.lastUpdate = 794326577.256;
layerId = m010;
shapes = (
{
closed = 1;
nodes = (
(245,38,l),
(328,462,l),
(213,462,l),
(130,38,l)
);
},
{
closed = 1;
nodes = (
(130,38,l),
(129,34,o),
(103,33,o),
(62,33,cs),
(46,33,l),
(46,33,o),
(45,27,o),
(43,16,cs),
(41,5,o),
(40,0,o),
(40,0,c),
(180,0,l),
(321,0,l),
(321,0,o),
(322,5,o),
(324,16,cs),
(326,27,o),
(327,33,o),
(327,33,c),
(311,33,ls),
(271,33,o),
(244,34,o),
(245,38,c)
);
},
{
closed = 1;
nodes = (
(329,466,o),
(355,467,o),
(396,467,cs),
(412,467,l),
(412,467,o),
(413,473,o),
(415,484,cs),
(417,495,o),
(418,500,o),
(418,500,c),
(277,500,l),
(137,500,l),
(137,500,o),
(136,495,o),
(134,484,cs),
(132,473,o),
(131,467,o),
(131,467,c),
(147,467,ls),
(187,467,o),
(214,466,o),
(213,462,c),
(328,462,l)
);
}
);
width = 360;
}
);
note = one;
unicode = 49;
},
{
glyphname = two;
lastChange = "2026-03-04 14:16:17 +0000";
layers = (
{
.lastUpdate = 794326577.256;
layerId = "E059459B-5795-442B-8710-0018C46129BA";
shapes = (
{
closed = 1;
nodes = (
(90,397,o),
(159,468,o),
(241,468,cs),
(323,468,o),
(378,413,o),
(378,330,cs),
(378,219,o),
(224,105,o),
(43,10,c),
(43,0,l),
(254,112,o),
(433,237,o),
(433,343,cs),
(433,443,o),
(368,510,o),
(270,510,cs),
(168,510,o),
(83,423,o),
(58,294,c),
(70,291,l)
);
},
{
closed = 1;
nodes = (
(429,0,l),
(460,49,l),
(123,49,l),
(43,0,l)
);
},
{
closed = 1;
nodes = (
(344,0,l),
(399,0,l),
(399,0,l),
(398,0,o),
(398,0,o),
(429,0,c),
(438,14,o),
(451,34,o),
(460,49,cs),
(469,63,o),
(481,83,o),
(490,98,c),
(490,98,o),
(485,99,o),
(476,100,cs),
(467,102,o),
(461,103,o),
(461,103,c),
(451,87,ls),
(437,64,o),
(421,49,o),
(388,49,c)
);
}
);
width = 531;
},
{
.lastUpdate = 794326577.256;
layerId = "261B483D-14CB-4AC5-AE3A-41E540C8643C";
shapes = (
{
closed = 1;
nodes = (
(93,383,o),
(157,445,o),
(235,445,cs),
(311,445,o),
(361,397,o),
(361,325,cs),
(361,214,o),
(215,106,o),
(44,15,c),
(44,0,l),
(262,115,o),
(447,242,o),
(447,345,cs),
(447,444,o),
(380,510,o),
(280,510,cs),
(172,510,o),
(83,424,o),
(58,294,c),
(75,290,l)
);
},
{
closed = 1;
nodes = (
(435,0,l),
(483,76,l),
(167,76,l),
(44,0,l)
);
},
{
closed = 1;
nodes = (
(333,0,l),
(387,0,l),
(387,0,l),
(387,0,o),
(387,0,o),
(435,0,c),
(447,19,o),
(462,44,o),
(474,62,cs),
(486,81,o),
(502,106,o),
(513,125,c),
(513,125,o),
(507,126,o),
(498,127,cs),
(490,129,o),
(484,130,o),
(484,130,c),
(474,114,ls),
(459,91,o),
(444,76,o),
(411,76,c)
);
}
);
width = 554;
},
{
.lastUpdate = 794326577.256;
layerId = "B523A5AF-871D-4AB2-9BF1-E01A824009A4";
shapes = (
{
closed = 1;
nodes = (
(78,390,o),
(145,457,o),
(225,457,cs),
(304,457,o),
(356,405,o),
(356,328,cs),
(356,216,o),
(206,106,o),
(30,12,c),
(30,0,l),
(244,113,o),
(426,239,o),
(426,344,cs),
(426,444,o),
(360,510,o),
(261,510,cs),
(156,510,o),
(69,424,o),
(44,294,c),
(59,291,l)
);
},
{
closed = 1;
nodes = (
(419,0,l),
(458,62,l),
(131,62,l),
(30,0,l)
);
},
{
closed = 1;
nodes = (
(326,0,l),
(380,0,l),
(380,0,l),
(380,0,o),
(380,0,o),
(419,0,c),
(429,17,o),
(443,39,o),
(453,55,cs),
(464,72,o),
(478,94,o),
(488,111,c),
(488,111,o),
(482,112,o),
(473,113,cs),
(464,115,o),
(459,116,o),
(458,116,c),
(449,100,ls),
(434,77,o),
(419,62,o),
(385,62,c)
);
}
);
width = 526;
},
{
.lastUpdate = 794326577.256;
layerId = "D3C24151-4D63-4841-9665-5260E3226900";
shapes = (
{
closed = 1;
nodes = (
(95,376,o),
(157,434,o),
(232,434,cs),
(305,434,o),
(353,389,o),
(353,323,cs),
(353,212,o),
(211,106,o),
(44,18,c),
(44,0,l),
(264,117,o),
(452,245,o),
(452,346,cs),
(452,444,o),
(385,510,o),
(284,510,cs),
(173,510,o),
(82,424,o),
(57,294,c),
(78,290,l)
);
},
{
closed = 1;
nodes = (
(437,0,l),
(493,89,l),
(188,89,l),
(44,0,l)
);
},
{
closed = 1;
nodes = (
(328,0,l),
(382,0,l),
(382,0,l),
(382,0,o),
(382,0,o),
(437,0,c),
(450,20,o),
(467,48,o),
(480,69,cs),
(493,89,o),
(510,117,o),
(523,137,c),
(523,137,o),
(517,138,o),
(508,140,cs),
(500,142,o),
(494,143,o),
(494,143,c),
(484,127,ls),
(470,104,o),
(454,89,o),
(421,89,c)
);
}
);
width = 564;
},
{
.lastUpdate = 794326577.256;
layerId = "8EEC74F5-9CFA-47B4-A8F8-9A6461F2D63F";
shapes = (
{
closed = 1;
nodes = (
(82,369,o),
(141,423,o),
(215,423,cs),
(284,423,o),
(330,382,o),
(330,320,cs),
(330,210,o),
(192,106,o),
(30,20,c),
(30,0,l),
(254,119,o),
(444,248,o),
(444,347,cs),
(444,445,o),
(376,510,o),
(274,510,cs),
(160,510,o),
(67,424,o),
(42,294,c),
(66,289,l)
);
},
{
closed = 1;
nodes = (
(426,0,l),
(489,102,l),
(195,102,l),
(30,0,l)
);
},
{
closed = 1;
nodes = (
(308,0,l),
(362,0,l),
(362,0,l),
(388,0,o),
(388,0,o),
(426,0,c),
(440,23,o),
(458,53,o),
(473,75,cs),
(487,98,o),
(505,128,o),
(520,151,c),
(520,151,o),
(514,152,o),
(505,153,cs),
(496,155,o),
(491,156,o),
(490,156,c),
(481,140,ls),
(466,117,o),
(451,102,o),
(417,102,c)
);
}
);
width = 544;
},
{
.lastUpdate = 794326577.256;
layerId = m006;
shapes = (
{
closed = 1;
nodes = (
(167,396,o),
(250,468,o),
(332,468,cs),
(403,468,o),
(445,427,o),
(445,362,cs),
(445,226,o),
(244,106,o),
(45,10,c),
(43,0,l),
(275,114,o),
(504,236,o),
(504,383,cs),
(504,460,o),
(454,510,o),
(369,510,cs),
(267,510,o),
(165,423,o),
(115,294,c),
(127,291,l)
);
},
{
closed = 1;
nodes = (
(429,0,l),
(470,49,l),
(133,49,l),
(43,0,l)
);
},
{
closed = 1;
nodes = (
(344,0,l),
(399,0,l),
(399,0,l),
(398,0,o),
(398,0,o),
(429,0,c),
(440,13,o),
(458,34,o),
(470,49,cs),
(481,63,o),
(497,83,o),
(509,98,c),
(509,98,o),
(502,99,o),
(496,100,cs),
(485,102,o),
(481,103,o),
(481,103,c),
(468,87,ls),
(451,66,o),
(432,49,o),
(398,49,c)
);
}
);
width = 531;
},
{
.lastUpdate = 794326577.257;
layerId = m007;
shapes = (
{
closed = 1;
nodes = (
(154,390,o),
(234,457,o),
(314,457,cs),
(382,457,o),
(423,418,o),
(423,358,cs),
(423,224,o),
(225,106,o),
(32,12,c),
(30,0,l),
(265,115,o),
(497,238,o),
(497,383,cs),
(497,461,o),
(445,510,o),
(360,510,cs),
(254,510,o),
(151,423,o),
(101,294,c),
(116,291,l)
);
},
{
closed = 1;
nodes = (
(419,0,l),
(470,62,l),
(143,62,l),
(30,0,l)
);
},
{
closed = 1;
nodes = (
(326,0,l),
(380,0,l),
(380,0,l),
(380,0,o),
(380,0,o),
(419,0,c),
(432,17,o),
(450,39,o),
(464,55,cs),
(480,74,o),
(497,94,o),
(510,111,c),
(510,111,o),
(504,111,o),
(495,113,cs),
(487,114,o),
(482,116,o),
(481,116,c),
(467,99,ls),
(449,77,o),
(431,62,o),
(397,62,c)
);
}
);
width = 526;
},
{
.lastUpdate = 794326577.257;
layerId = m008;
shapes = (
{
closed = 1;
nodes = (
(167,383,o),
(244,445,o),
(321,445,cs),
(387,445,o),
(427,409,o),
(427,352,cs),
(427,224,o),
(237,107,o),
(47,15,c),
(44,0,l),
(284,117,o),
(518,241,o),
(518,383,cs),
(518,460,o),
(466,510,o),
(379,510,cs),
(271,510,o),
(165,424,o),
(115,294,c),
(131,290,l)
);
},
{
closed = 1;
nodes = (
(435,0,l),
(498,76,l),
(182,76,l),
(44,0,l)
);
},
{
closed = 1;
nodes = (
(333,0,l),
(387,0,l),
(387,0,l),
(387,0,o),
(387,0,o),
(435,0,c),
(451,19,o),
(471,44,o),
(486,62,cs),
(503,82,o),
(523,106,o),
(537,125,c),
(537,125,o),
(531,125,o),
(523,127,cs),
(513,129,o),
(509,130,o),
(509,130,c),
(496,114,ls),
(478,92,o),
(460,76,o),
(426,76,c)
);
}
);
width = 554;
},
{
.lastUpdate = 794326577.257;
layerId = m009;
shapes = (
{
closed = 1;
nodes = (
(168,376,o),
(241,434,o),
(316,434,cs),
(379,434,o),
(418,400,o),
(418,347,cs),
(418,224,o),
(231,106,o),
(47,18,c),
(44,0,l),
(286,119,o),
(523,243,o),
(523,383,cs),
(523,460,o),
(471,510,o),
(383,510,cs),
(272,510,o),
(164,424,o),
(114,294,c),
(134,290,l)
);
},
{
closed = 1;
nodes = (
(437,0,l),
(510,89,l),
(205,89,l),
(44,0,l)
);
},
{
closed = 1;
nodes = (
(328,0,l),
(382,0,l),
(382,0,l),
(382,0,o),
(382,0,o),
(437,0,c),
(454,20,o),
(476,47,o),
(493,68,cs),
(510,88,o),
(533,117,o),
(550,137,c),
(550,137,o),
(543,138,o),
(535,140,cs),
(527,142,o),
(522,143,o),
(522,143,c),
(508,126,ls),
(490,104,o),
(471,89,o),
(438,89,c)
);
}
);
width = 564;
},
{
.lastUpdate = 794326577.257;
layerId = m010;
shapes = (
{
closed = 1;
nodes = (
(154,370,o),
(224,423,o),
(297,423,cs),
(357,423,o),
(394,392,o),
(394,342,cs),
(394,223,o),
(213,106,o),
(34,20,c),
(30,0,l),
(276,121,o),
(515,246,o),
(515,384,cs),
(515,461,o),
(461,510,o),
(373,510,cs),
(259,510,o),
(149,424,o),
(99,294,c),
(122,289,l)
);
},
{
closed = 1;
nodes = (
(426,0,l),
(509,102,l),
(215,102,l),
(30,0,l)
);
},
{
closed = 1;
nodes = (
(308,0,l),
(362,0,l),
(362,0,l),
(388,0,o),
(388,0,o),
(426,0,c),
(446,25,o),
(468,52,o),
(488,76,cs),
(507,98,o),
(530,128,o),
(549,151,c),
(549,151,o),
(543,152,o),
(535,153,cs),
(526,155,o),
(521,156,o),
(520,156,c),
(508,141,ls),
(488,116,o),
(470,102,o),
(437,102,c)
);
}
);
width = 544;
}
);
note = two;
unicode = 50;
},
{
glyphname = three;
lastChange = "2026-03-04 14:16:17 +0000";
layers = (
{
.lastUpdate = 794326577.257;
layerId = "E059459B-5795-442B-8710-0018C46129BA";
shapes = (
{
closed = 1;
nodes = (
(58,347,l),
(75,422,o),
(136,471,o),
(211,471,cs),
(283,471,o),
(330,429,o),
(330,365,cs),
(330,287,o),
(245,220,o),
(118,167,c),
(118,155,l),
(281,224,o),
(389,302,o),
(389,384,cs),
(389,460,o),
(327,510,o),
(234,510,cs),
(143,510,o),
(68,446,o),
(46,351,c)
);
},
{
closed = 1;
nodes = (
(44,-232,l),
(250,-210,o),
(388,-118,o),
(388,-1,cs),
(388,95,o),
(308,170,o),
(187,187,c),
(118,155,l),
(245,138,o),
(329,69,o),
(329,-17,cs),
(329,-121,o),
(214,-203,o),
(42,-221,c)
);
}
);
width = 443;
},
{
.lastUpdate = 794326577.257;
layerId = "261B483D-14CB-4AC5-AE3A-41E540C8643C";
shapes = (
{
closed = 1;
nodes = (
(64,346,l),
(78,408,o),
(134,450,o),
(203,450,cs),
(264,450,o),
(305,412,o),
(305,356,cs),
(305,277,o),
(233,215,o),
(124,170,c),
(124,152,l),
(287,222,o),
(396,301,o),
(396,386,cs),
(396,460,o),
(333,510,o),
(238,510,cs),
(144,510,o),
(67,447,o),
(45,351,c)
);
},
{
closed = 1;
nodes = (
(45,-232,l),
(265,-209,o),
(411,-114,o),
(411,7,cs),
(411,108,o),
(337,186,o),
(227,202,c),
(124,152,l),
(242,136,o),
(320,68,o),
(320,-17,cs),
(320,-118,o),
(209,-198,o),
(42,-215,c)
);
}
);
width = 462;
},
{
.lastUpdate = 794326577.257;
layerId = "B523A5AF-871D-4AB2-9BF1-E01A824009A4";
shapes = (
{
closed = 1;
nodes = (
(36,347,l),
(52,415,o),
(111,461,o),
(183,461,cs),
(249,461,o),
(293,421,o),
(293,361,cs),
(293,282,o),
(214,218,o),
(96,168,c),
(96,154,l),
(259,223,o),
(368,301,o),
(368,385,cs),
(368,460,o),
(305,510,o),
(211,510,cs),
(119,510,o),
(43,446,o),
(21,351,c)
);
},
{
closed = 1;
nodes = (
(20,-232,l),
(233,-210,o),
(375,-116,o),
(375,3,cs),
(375,101,o),
(298,178,o),
(182,194,c),
(96,154,l),
(219,137,o),
(301,68,o),
(301,-17,cs),
(301,-120,o),
(188,-200,o),
(18,-218,c)
);
}
);
width = 414;
},
{
.lastUpdate = 794326577.258;
layerId = "D3C24151-4D63-4841-9665-5260E3226900";
shapes = (
{
closed = 1;
nodes = (
(67,345,l),
(80,402,o),
(133,440,o),
(199,440,cs),
(256,440,o),
(294,405,o),
(294,352,cs),
(294,273,o),
(227,214,o),
(127,171,c),
(127,151,l),
(291,221,o),
(400,300,o),
(400,386,cs),
(400,461,o),
(336,510,o),
(240,510,cs),
(145,510,o),
(67,447,o),
(46,352,c)
);
},
{
closed = 1;
nodes = (
(46,-232,l),
(272,-208,o),
(423,-111,o),
(423,11,cs),
(423,114,o),
(352,193,o),
(245,208,c),
(127,151,l),
(241,135,o),
(317,67,o),
(317,-17,cs),
(317,-117,o),
(207,-195,o),
(43,-212,c)
);
}
);
width = 473;
},
{
.lastUpdate = 794326577.258;
layerId = "8EEC74F5-9CFA-47B4-A8F8-9A6461F2D63F";
shapes = (
{
closed = 1;
nodes = (
(44,345,l),
(55,395,o),
(105,429,o),
(169,429,cs),
(220,429,o),
(255,396,o),
(255,348,cs),
(255,268,o),
(194,211,o),
(104,173,c),
(104,150,l),
(268,219,o),
(377,300,o),
(377,387,cs),
(377,461,o),
(312,510,o),
(215,510,cs),
(119,510,o),
(41,447,o),
(19,352,c)
);
},
{
closed = 1;
nodes = (
(20,-232,l),
(253,-207,o),
(408,-109,o),
(408,15,cs),
(408,121,o),
(339,202,o),
(236,216,c),
(104,150,l),
(213,134,o),
(286,67,o),
(286,-18,cs),
(286,-116,o),
(178,-192,o),
(16,-209,c)
);
}
);
width = 447;
},
{
.lastUpdate = 794326577.258;
layerId = m006;
shapes = (
{
closed = 1;
nodes = (
(126,347,l),
(157,421,o),
(227,471,o),
(303,471,cs),
(365,471,o),
(403,439,o),
(403,388,cs),
(403,294,o),
(288,220,o),
(151,167,c),
(148,155,l),
(325,225,o),
(466,306,o),
(466,409,cs),
(466,471,o),
(415,510,o),
(333,510,cs),
(243,510,o),
(155,447,o),
(114,351,c)
);
},
{
closed = 1;
nodes = (
(-1,-232,l),
(210,-211,o),
(391,-110,o),
(391,31,cs),
(391,112,o),
(327,172,o),
(223,187,c),
(148,155,l),
(259,140,o),
(328,82,o),
(328,8,cs),
(328,-111,o),
(174,-205,o),
(-1,-221,c)
);
}
);
width = 443;
},
{
.lastUpdate = 794326577.258;
layerId = m007;
shapes = (
{
closed = 1;
nodes = (
(104,347,l),
(133,415,o),
(201,461,o),
(273,461,cs),
(330,461,o),
(365,431,o),
(365,382,cs),
(365,291,o),
(257,218,o),
(129,168,c),
(126,154,l),
(303,224,o),
(445,306,o),
(445,409,cs),
(445,470,o),
(394,510,o),
(310,510,cs),
(219,510,o),
(130,447,o),
(89,351,c)
);
},
{
closed = 1;
nodes = (
(-25,-232,l),
(192,-211,o),
(379,-110,o),
(379,37,cs),
(379,119,o),
(319,180,o),
(220,194,c),
(126,154,l),
(233,139,o),
(300,81,o),
(300,8,cs),
(300,-110,o),
(149,-202,o),
(-24,-218,c)
);
}
);
width = 414;
},
{
.lastUpdate = 794326577.258;
layerId = m008;
shapes = (
{
closed = 1;
nodes = (
(131,346,l),
(157,408,o),
(222,450,o),
(291,450,cs),
(343,450,o),
(376,421,o),
(376,376,cs),
(376,288,o),
(275,214,o),
(157,170,c),
(154,152,l),
(329,222,o),
(473,306,o),
(473,409,cs),
(473,470,o),
(422,510,o),
(337,510,cs),
(243,510,o),
(154,447,o),
(113,351,c)
);
},
{
closed = 1;
nodes = (
(0,-232,l),
(226,-209,o),
(416,-109,o),
(416,45,cs),
(416,127,o),
(359,188,o),
(266,202,c),
(154,152,l),
(256,138,o),
(319,82,o),
(319,9,cs),
(319,-109,o),
(170,-200,o),
(0,-215,c)
);
}
);
width = 462;
},
{
.lastUpdate = 794326577.258;
layerId = m009;
shapes = (
{
closed = 1;
nodes = (
(134,345,l),
(158,402,o),
(219,440,o),
(285,440,cs),
(334,440,o),
(364,413,o),
(364,371,cs),
(364,286,o),
(269,213,o),
(160,171,c),
(156,151,l),
(335,222,o),
(477,306,o),
(477,409,cs),
(477,471,o),
(425,510,o),
(339,510,cs),
(243,510,o),
(154,446,o),
(115,352,c)
);
},
{
closed = 1;
nodes = (
(1,-232,l),
(230,-208,o),
(429,-109,o),
(429,51,cs),
(429,134,o),
(376,195,o),
(286,208,c),
(156,151,l),
(255,137,o),
(316,81,o),
(316,9,cs),
(316,-108,o),
(169,-197,o),
(2,-212,c)
);
}
);
width = 473;
},
{
.lastUpdate = 794326577.258;
layerId = m010;
shapes = (
{
closed = 1;
nodes = (
(111,345,l),
(132,395,o),
(188,429,o),
(252,429,cs),
(296,429,o),
(324,404,o),
(324,365,cs),
(324,284,o),
(234,208,o),
(138,173,c),
(133,150,l),
(311,219,o),
(455,307,o),
(455,409,cs),
(455,471,o),
(401,510,o),
(314,510,cs),
(217,510,o),
(128,446,o),
(88,352,c)
);
},
{
closed = 1;
nodes = (
(-25,-232,l),
(213,-206,o),
(415,-108,o),
(415,59,cs),
(415,142,o),
(364,204,o),
(278,216,c),
(133,150,l),
(227,136,o),
(285,81,o),
(285,9,cs),
(285,-109,o),
(141,-193,o),
(-25,-209,c)
);
}
);
width = 447;
}
);
note = three;
unicode = 51;
},
{
glyphname = four;
lastChange = "2026-03-04 14:16:17 +0000";
layers = (
{
.lastUpdate = 794326577.258;
layerId = "E059459B-5795-442B-8710-0018C46129BA";
shapes = (
{
closed = 1;
nodes = (
(430,-220,l),
(430,432,l),
(430,530,l),
(423,530,l),
(374,432,l),
(374,-220,l)
);
},
{
closed = 1;
nodes = (
(602,42,l),
(89,42,l),
(39,10,l),
(39,0,l),
(58,0,l),
(602,0,l)
);
},
{
closed = 1;
nodes = (
(65,10,l),
(423,497,l),
(423,530,l),
(39,10,l)
);
},
{
closed = 1;
nodes = (
(547,0,l),
(566,0,o),
(567,-12,o),
(565,-30,cs),
(562,-46,l),
(562,-46,o),
(569,-46,o),
(579,-46,cs),
(589,-46,o),
(595,-46,o),
(595,-46,c),
(598,-24,o),
(602,4,o),
(605,25,cs),
(608,47,o),
(612,75,o),
(615,96,c),
(615,96,o),
(609,96,o),
(599,96,cs),
(589,96,o),
(582,96,o),
(582,96,c),
(580,80,ls),
(577,57,o),
(569,42,o),
(535,42,c)
);
}
);
width = 659;
},
{
.lastUpdate = 794326577.259;
layerId = "261B483D-14CB-4AC5-AE3A-41E540C8643C";
shapes = (
{
closed = 1;
nodes = (
(430,-220,l),
(430,377,l),
(430,530,l),
(419,530,l),
(344,377,l),
(344,-220,l)
);
},
{
closed = 1;
nodes = (
(602,66,l),
(116,66,l),
(39,15,l),
(39,0,l),
(68,0,l),
(602,0,l)
);
},
{
closed = 1;
nodes = (
(79,15,l),
(419,479,l),
(419,530,l),
(39,15,l)
);
},
{
closed = 1;
nodes = (
(547,0,l),
(566,0,o),
(567,-12,o),
(565,-30,cs),
(562,-46,l),
(562,-46,o),
(569,-46,o),
(579,-46,cs),
(589,-46,o),
(595,-46,o),
(595,-46,c),
(599,-21,o),
(604,12,o),
(607,37,cs),
(610,62,o),
(615,95,o),
(618,120,c),
(619,120,o),
(612,120,o),
(602,120,cs),
(592,120,o),
(586,120,o),
(586,120,c),
(583,104,ls),
(580,81,o),
(572,66,o),
(539,66,c)
);
}
);
width = 663;
},
{
.lastUpdate = 794326577.259;
layerId = "B523A5AF-871D-4AB2-9BF1-E01A824009A4";
shapes = (
{
closed = 1;
nodes = (
(406,-220,l),
(406,406,l),
(406,530,l),
(397,530,l),
(336,406,l),
(336,-220,l)
);
},
{
closed = 1;
nodes = (
(578,54,l),
(78,54,l),
(15,12,l),
(15,0,l),
(39,0,l),
(578,0,l)
);
},
{
closed = 1;
nodes = (
(48,12,l),
(397,489,l),
(397,530,l),
(15,12,l)
);
},
{
closed = 1;
nodes = (
(523,0,l),
(542,0,o),
(543,-12,o),
(541,-30,cs),
(538,-46,l),
(538,-46,o),
(545,-46,o),
(555,-46,cs),
(565,-46,o),
(571,-46,o),
(571,-46,c),
(575,-22,o),
(579,8,o),
(582,31,cs),
(585,54,o),
(590,84,o),
(593,107,c),
(593,107,o),
(586,107,o),
(576,107,cs),
(567,107,o),
(560,107,o),
(560,107,c),
(558,92,ls),
(555,69,o),
(546,54,o),
(513,54,c)
);
}
);
width = 602;
},
{
.lastUpdate = 794326577.259;
layerId = "D3C24151-4D63-4841-9665-5260E3226900";
shapes = (
{
closed = 1;
nodes = (
(431,-220,l),
(431,352,l),
(431,530,l),
(418,530,l),
(331,352,l),
(331,-220,l)
);
},
{
closed = 1;
nodes = (
(603,76,l),
(130,76,l),
(40,18,l),
(40,0,l),
(74,0,l),
(603,0,l)
);
},
{
closed = 1;
nodes = (
(87,18,l),
(418,471,l),
(418,530,l),
(40,18,l)
);
},
{
closed = 1;
nodes = (
(548,0,l),
(567,0,o),
(568,-12,o),
(566,-30,cs),
(563,-46,l),
(563,-46,o),
(570,-46,o),
(580,-46,cs),
(590,-46,o),
(596,-46,o),
(596,-46,c),
(600,-19,o),
(605,16,o),
(608,42,cs),
(612,69,o),
(617,104,o),
(621,130,c),
(621,130,o),
(615,130,o),
(605,130,cs),
(595,130,o),
(588,130,o),
(588,130,c),
(586,115,ls),
(583,91,o),
(574,76,o),
(541,76,c)
);
}
);
width = 666;
},
{
.lastUpdate = 794326577.259;
layerId = "8EEC74F5-9CFA-47B4-A8F8-9A6461F2D63F";
shapes = (
{
closed = 1;
nodes = (
(406,-220,l),
(406,325,l),
(406,530,l),
(391,530,l),
(291,325,l),
(291,-220,l)
);
},
{
closed = 1;
nodes = (
(578,88,l),
(118,88,l),
(15,20,l),
(15,0,l),
(54,0,l),
(578,0,l)
);
},
{
closed = 1;
nodes = (
(69,20,l),
(391,462,l),
(391,530,l),
(15,20,l)
);
},
{
closed = 1;
nodes = (
(523,0,l),
(542,0,o),
(543,-12,o),
(541,-30,cs),
(538,-46,l),
(538,-46,o),
(545,-46,o),
(555,-46,cs),
(565,-46,o),
(571,-46,o),
(571,-46,c),
(575,-18,o),
(581,20,o),
(584,48,cs),
(589,76,o),
(594,114,o),
(597,142,c),
(598,142,o),
(591,142,o),
(581,142,cs),
(571,142,o),
(565,142,o),
(565,142,c),
(563,126,ls),
(559,103,o),
(551,88,o),
(518,88,c)
);
}
);
width = 602;
},
{
.lastUpdate = 794326577.259;
layerId = m006;
shapes = (
{
closed = 1;
nodes = (
(387,-220,l),
(514,432,l),
(533,530,l),
(526,530,l),
(458,432,l),
(331,-220,l)
);
},
{
closed = 1;
nodes = (
(610,42,l),
(97,42,l),
(41,10,l),
(39,0,l),
(58,0,l),
(602,0,l)
);
},
{
closed = 1;
nodes = (
(67,10,l),
(520,497,l),
(526,530,l),
(41,10,l)
);
},
{
closed = 1;
nodes = (
(547,0,l),
(568,0,o),
(565,-14,o),
(559,-30,cs),
(553,-46,l),
(553,-46,o),
(560,-46,o),
(570,-46,cs),
(580,-46,o),
(586,-46,o),
(586,-46,c),
(593,-24,o),
(603,4,o),
(610,25,cs),
(618,48,o),
(627,75,o),
(634,96,c),
(634,96,o),
(628,96,o),
(618,96,cs),
(608,96,o),
(601,96,o),
(601,96,c),
(596,81,ls),
(588,57,o),
(577,42,o),
(543,42,c)
);
}
);
width = 659;
},
{
.lastUpdate = 794326577.259;
layerId = m007;
shapes = (
{
closed = 1;
nodes = (
(363,-220,l),
(485,406,l),
(509,530,l),
(500,530,l),
(415,406,l),
(293,-220,l)
);
},
{
closed = 1;
nodes = (
(588,54,l),
(88,54,l),
(17,12,l),
(15,0,l),
(39,0,l),
(578,0,l)
);
},
{
closed = 1;
nodes = (
(50,12,l),
(492,489,l),
(500,530,l),
(17,12,l)
);
},
{
closed = 1;
nodes = (
(523,0,l),
(544,0,o),
(541,-14,o),
(535,-30,cs),
(529,-46,l),
(529,-46,o),
(536,-46,o),
(546,-46,cs),
(556,-46,o),
(562,-46,o),
(562,-46,c),
(571,-22,o),
(580,6,o),
(588,31,cs),
(596,54,o),
(606,84,o),
(614,107,c),
(614,107,o),
(607,107,o),
(597,107,cs),
(588,107,o),
(581,107,o),
(581,107,c),
(576,92,ls),
(568,68,o),
(555,54,o),
(523,54,c)
);
}
);
width = 602;
},
{
.lastUpdate = 794326577.259;
layerId = m008;
shapes = (
{
closed = 1;
nodes = (
(387,-220,l),
(503,377,l),
(533,530,l),
(522,530,l),
(417,377,l),
(301,-220,l)
);
},
{
closed = 1;
nodes = (
(615,66,l),
(129,66,l),
(42,15,l),
(39,0,l),
(68,0,l),
(602,0,l)
);
},
{
closed = 1;
nodes = (
(82,15,l),
(512,479,l),
(522,530,l),
(42,15,l)
);
},
{
closed = 1;
nodes = (
(547,0,l),
(568,0,o),
(565,-14,o),
(559,-30,cs),
(553,-46,l),
(553,-46,o),
(560,-46,o),
(570,-46,cs),
(580,-46,o),
(586,-46,o),
(586,-46,c),
(595,-21,o),
(606,12,o),
(614,37,cs),
(622,62,o),
(633,95,o),
(641,120,c),
(642,120,o),
(635,120,o),
(625,120,cs),
(615,120,o),
(609,120,o),
(609,120,c),
(603,102,ls),
(596,81,o),
(585,66,o),
(552,66,c)
);
}
);
width = 663;
},
{
.lastUpdate = 794326577.259;
layerId = m009;
shapes = (
{
closed = 1;
nodes = (
(388,-220,l),
(499,352,l),
(534,530,l),
(521,530,l),
(399,352,l),
(288,-220,l)
);
},
{
closed = 1;
nodes = (
(618,76,l),
(145,76,l),
(43,18,l),
(40,0,l),
(74,0,l),
(603,0,l)
);
},
{
closed = 1;
nodes = (
(90,18,l),
(510,471,l),
(521,530,l),
(43,18,l)
);
},
{
closed = 1;
nodes = (
(548,0,l),
(569,0,o),
(566,-14,o),
(560,-30,cs),
(554,-46,l),
(554,-46,o),
(561,-46,o),
(571,-46,cs),
(581,-46,o),
(587,-46,o),
(587,-46,c),
(596,-20,o),
(608,16,o),
(616,41,cs),
(625,68,o),
(637,104,o),
(646,130,c),
(646,130,o),
(640,130,o),
(630,130,cs),
(620,130,o),
(613,130,o),
(613,130,c),
(608,114,ls),
(601,91,o),
(589,76,o),
(556,76,c)
);
}
);
width = 666;
},
{
.lastUpdate = 794326577.26;
layerId = m010;
shapes = (
{
closed = 1;
nodes = (
(363,-220,l),
(469,325,l),
(509,530,l),
(494,530,l),
(354,325,l),
(248,-220,l)
);
},
{
closed = 1;
nodes = (
(595,88,l),
(135,88,l),
(19,20,l),
(15,0,l),
(54,0,l),
(578,0,l)
);
},
{
closed = 1;
nodes = (
(73,20,l),
(481,462,l),
(494,530,l),
(19,20,l)
);
},
{
closed = 1;
nodes = (
(523,0,l),
(544,0,o),
(541,-14,o),
(535,-30,cs),
(529,-46,l),
(529,-46,o),
(536,-46,o),
(546,-46,cs),
(556,-46,o),
(562,-46,o),
(562,-46,c),
(571,-18,o),
(585,20,o),
(594,48,cs),
(602,71,o),
(617,114,o),
(625,142,c),
(626,142,o),
(619,142,o),
(609,142,cs),
(599,142,o),
(593,142,o),
(593,142,c),
(587,126,ls),
(578,102,o),
(567,88,o),
(535,88,c)
);
}
);
width = 602;
}
);
note = four;
unicode = 52;
},
{
glyphname = five;
lastChange = "2026-03-04 14:16:17 +0000";
layers = (
{
.lastUpdate = 794326577.26;
layerId = "E059459B-5795-442B-8710-0018C46129BA";
shapes = (
{
closed = 1;
nodes = (
(251,-208,o),
(383,-96,o),
(383,48,cs),
(383,180,o),
(264,269,o),
(87,269,cs),
(62,269,l),
(46,219,l),
(56,211,l),
(80,211,ls),
(233,211,o),
(334,138,o),
(334,29,cs),
(334,-101,o),
(221,-202,o),
(52,-222,c),
(53,-233,l)
);
},
{
closed = 1;
nodes = (
(65,219,l),
(109,450,l),
(324,452,l),
(333,500,l),
(98,500,l),
(46,219,l)
);
},
{
closed = 1;
nodes = (
(333,500,l),
(340,540,l),
(307,540,l),
(306,529,l),
(302,512,o),
(294,500,o),
(264,500,c)
);
}
);
width = 430;
},
{
.lastUpdate = 794326577.26;
layerId = "261B483D-14CB-4AC5-AE3A-41E540C8643C";
shapes = (
{
closed = 1;
nodes = (
(277,-209,o),
(412,-96,o),
(412,50,cs),
(412,186,o),
(291,277,o),
(109,277,cs),
(71,277,l),
(46,200,l),
(62,187,l),
(100,187,ls),
(242,187,o),
(336,121,o),
(336,21,cs),
(336,-103,o),
(231,-199,o),
(74,-218,c),
(75,-234,l)
);
},
{
closed = 1;
nodes = (
(77,200,l),
(115,423,l),
(349,425,l),
(362,500,l),
(99,500,l),
(46,200,l)
);
},
{
closed = 1;
nodes = (
(362,500,l),
(369,540,l),
(336,540,l),
(335,529,l),
(331,512,o),
(323,500,o),
(293,500,c)
);
}
);
width = 459;
},
{
.lastUpdate = 794326577.26;
layerId = "B523A5AF-871D-4AB2-9BF1-E01A824009A4";
shapes = (
{
closed = 1;
nodes = (
(260,-209,o),
(393,-96,o),
(393,49,cs),
(393,183,o),
(273,273,o),
(94,273,cs),
(63,273,l),
(43,210,l),
(55,199,l),
(86,199,ls),
(234,199,o),
(332,130,o),
(332,25,cs),
(332,-102,o),
(223,-200,o),
(59,-220,c),
(60,-233,l)
);
},
{
closed = 1;
nodes = (
(67,210,l),
(108,437,l),
(332,439,l),
(343,500,l),
(95,500,l),
(43,210,l)
);
},
{
closed = 1;
nodes = (
(343,500,l),
(350,540,l),
(317,540,l),
(316,529,l),
(312,512,o),
(304,500,o),
(274,500,c)
);
}
);
width = 423;
},
{
.lastUpdate = 794326577.26;
layerId = "D3C24151-4D63-4841-9665-5260E3226900";
shapes = (
{
closed = 1;
nodes = (
(286,-210,o),
(422,-95,o),
(422,51,cs),
(422,189,o),
(300,281,o),
(117,281,cs),
(75,281,l),
(46,191,l),
(64,175,l),
(106,176,ls),
(243,176,o),
(334,113,o),
(334,18,cs),
(334,-104,o),
(233,-197,o),
(80,-216,c),
(83,-235,l)
);
},
{
closed = 1;
nodes = (
(81,191,l),
(117,410,l),
(356,413,l),
(372,500,l),
(98,500,l),
(46,191,l)
);
},
{
closed = 1;
nodes = (
(372,500,l),
(379,540,l),
(346,540,l),
(345,529,l),
(341,512,o),
(333,500,o),
(303,500,c)
);
}
);
width = 469;
},
{
.lastUpdate = 794326577.26;
layerId = "8EEC74F5-9CFA-47B4-A8F8-9A6461F2D63F";
shapes = (
{
closed = 1;
nodes = (
(266,-210,o),
(403,-95,o),
(403,53,cs),
(403,192,o),
(280,285,o),
(95,285,cs),
(53,285,l),
(20,182,l),
(40,164,l),
(82,164,ls),
(214,164,o),
(302,104,o),
(302,14,cs),
(302,-105,o),
(204,-196,o),
(58,-214,c),
(61,-235,l)
);
},
{
closed = 1;
nodes = (
(60,182,l),
(94,397,l),
(335,400,l),
(353,500,l),
(72,500,l),
(20,182,l)
);
},
{
closed = 1;
nodes = (
(353,500,l),
(360,540,l),
(327,540,l),
(326,529,l),
(322,512,o),
(314,500,o),
(284,500,c)
);
}
);
width = 433;
},
{
.lastUpdate = 794326577.26;
layerId = m006;
shapes = (
{
closed = 1;
nodes = (
(178,-215,o),
(397,-99,o),
(397,87,cs),
(397,198,o),
(298,269,o),
(140,269,cs),
(115,269,l),
(89,219,l),
(97,211,l),
(121,211,ls),
(259,211,o),
(343,152,o),
(343,61,cs),
(343,-103,o),
(148,-210,o),
(9,-222,c),
(8,-233,l)
);
},
{
closed = 1;
nodes = (
(108,219,l),
(197,450,l),
(412,452,l),
(430,500,l),
(195,500,l),
(89,219,l)
);
},
{
closed = 1;
nodes = (
(430,500,l),
(445,540,l),
(412,540,l),
(409,529,l),
(402,512,o),
(391,500,o),
(361,500,c)
);
}
);
width = 430;
},
{
.lastUpdate = 794326577.26;
layerId = m007;
shapes = (
{
closed = 1;
nodes = (
(187,-216,o),
(407,-99,o),
(407,89,cs),
(407,201,o),
(307,273,o),
(147,273,cs),
(116,273,l),
(84,210,l),
(94,199,l),
(125,199,ls),
(258,199,o),
(340,143,o),
(340,55,cs),
(340,-104,o),
(151,-208,o),
(17,-220,c),
(15,-233,l)
);
},
{
closed = 1;
nodes = (
(108,210,l),
(193,437,l),
(418,439,l),
(440,500,l),
(192,500,l),
(84,210,l)
);
},
{
closed = 1;
nodes = (
(440,500,l),
(455,540,l),
(422,540,l),
(419,529,l),
(412,512,o),
(401,500,o),
(371,500,c)
);
}
);
width = 423;
},
{
.lastUpdate = 794326577.26;
layerId = m008;
shapes = (
{
closed = 1;
nodes = (
(204,-216,o),
(426,-99,o),
(426,91,cs),
(426,204,o),
(326,277,o),
(163,277,cs),
(125,277,l),
(85,200,l),
(99,187,l),
(137,187,ls),
(265,187,o),
(343,133,o),
(343,50,cs),
(343,-105,o),
(159,-207,o),
(32,-218,c),
(30,-234,l)
);
},
{
closed = 1;
nodes = (
(116,200,l),
(198,423,l),
(432,425,l),
(460,500,l),
(197,500,l),
(85,200,l)
);
},
{
closed = 1;
nodes = (
(460,500,l),
(474,540,l),
(441,540,l),
(438,529,l),
(431,512,o),
(421,500,o),
(391,500,c)
);
}
);
width = 459;
},
{
.lastUpdate = 794326577.26;
layerId = m009;
shapes = (
{
closed = 1;
nodes = (
(213,-217,o),
(436,-98,o),
(436,93,cs),
(436,207,o),
(335,281,o),
(171,281,cs),
(129,281,l),
(83,191,l),
(98,175,l),
(140,175,ls),
(263,175,o),
(340,124,o),
(340,45,cs),
(340,-107,o),
(158,-206,o),
(38,-216,c),
(37,-235,l)
);
},
{
closed = 1;
nodes = (
(118,191,l),
(196,410,l),
(436,413,l),
(469,500,l),
(195,500,l),
(83,191,l)
);
},
{
closed = 1;
nodes = (
(469,500,l),
(484,540,l),
(451,540,l),
(448,529,l),
(441,512,o),
(430,500,o),
(400,500,c)
);
}
);
width = 469;
},
{
.lastUpdate = 794326577.261;
layerId = m010;
shapes = (
{
closed = 1;
nodes = (
(192,-217,o),
(417,-98,o),
(417,95,cs),
(417,210,o),
(316,285,o),
(150,285,cs),
(108,285,l),
(55,182,l),
(72,164,l),
(114,164,ls),
(233,164,o),
(307,115,o),
(307,39,cs),
(307,-107,o),
(130,-205,o),
(16,-214,c),
(15,-235,l)
);
},
{
closed = 1;
nodes = (
(95,182,l),
(171,397,l),
(412,400,l),
(450,500,l),
(169,500,l),
(55,182,l)
);
},
{
closed = 1;
nodes = (
(450,500,l),
(465,540,l),
(432,540,l),
(429,529,l),
(422,512,o),
(411,500,o),
(381,500,c)
);
}
);
width = 433;
}
);
note = five;
unicode = 53;
},
{
glyphname = six;
lastChange = "2026-03-04 14:16:17 +0000";
layers = (
{
.lastUpdate = 794326577.261;
layerId = "E059459B-5795-442B-8710-0018C46129BA";
shapes = (
{
closed = 1;
nodes = (
(245,688,o),
(52,503,o),
(52,287,cs),
(52,109,o),
(145,-10,o),
(283,-10,cs),
(414,-10,o),
(501,90,o),
(501,239,cs),
(501,374,o),
(411,464,o),
(275,464,cs),
(168,464,o),
(97,388,o),
(97,274,c),
(107,258,l),
(107,372,o),
(172,448,o),
(269,448,cs),
(375,448,o),
(445,366,o),
(445,242,cs),
(445,100,o),
(379,6,o),
(280,6,cs),
(176,6,o),
(107,107,o),
(107,258,cs),
(107,493,o),
(279,687,o),
(538,742,c),
(536,750,l)
);
}
);
width = 577;
},
{
.lastUpdate = 794326577.261;
layerId = "261B483D-14CB-4AC5-AE3A-41E540C8643C";
shapes = (
{
closed = 1;
nodes = (
(247,688,o),
(51,504,o),
(51,291,cs),
(51,111,o),
(145,-10,o),
(286,-10,cs),
(419,-10,o),
(507,90,o),
(507,239,cs),
(507,375,o),
(421,466,o),
(293,466,cs),
(190,466,o),
(121,388,o),
(121,271,c),
(136,246,l),
(136,363,o),
(195,441,o),
(283,441,cs),
(366,441,o),
(421,362,o),
(421,243,cs),
(421,106,o),
(365,15,o),
(282,15,cs),
(194,15,o),
(136,107,o),
(136,246,cs),
(136,488,o),
(300,685,o),
(545,737,c),
(542,750,l)
);
}
);
width = 584;
},
{
.lastUpdate = 794326577.261;
layerId = "B523A5AF-871D-4AB2-9BF1-E01A824009A4";
shapes = (
{
closed = 1;
nodes = (
(245,688,o),
(50,503,o),
(50,289,cs),
(50,110,o),
(143,-10,o),
(283,-10,cs),
(415,-10,o),
(502,90,o),
(502,239,cs),
(502,375,o),
(414,465,o),
(282,465,cs),
(177,465,o),
(107,388,o),
(107,273,c),
(120,252,l),
(120,368,o),
(182,445,o),
(274,445,cs),
(369,445,o),
(432,364,o),
(432,243,cs),
(432,103,o),
(371,10,o),
(279,10,cs),
(184,10,o),
(120,107,o),
(120,252,cs),
(120,491,o),
(288,686,o),
(540,740,c),
(537,750,l)
);
}
);
width = 554;
},
{
.lastUpdate = 794326577.261;
layerId = "D3C24151-4D63-4841-9665-5260E3226900";
shapes = (
{
closed = 1;
nodes = (
(249,687,o),
(51,504,o),
(51,293,cs),
(51,111,o),
(146,-10,o),
(288,-10,cs),
(422,-10,o),
(511,89,o),
(511,239,cs),
(511,376,o),
(427,467,o),
(301,467,cs),
(200,467,o),
(133,388,o),
(133,269,c),
(150,240,l),
(150,359,o),
(206,438,o),
(290,438,cs),
(362,438,o),
(411,360,o),
(411,244,cs),
(411,109,o),
(360,19,o),
(283,19,cs),
(203,19,o),
(150,107,o),
(150,240,cs),
(150,486,o),
(310,684,o),
(549,735,c),
(546,750,l)
);
}
);
width = 588;
},
{
.lastUpdate = 794326577.261;
layerId = "8EEC74F5-9CFA-47B4-A8F8-9A6461F2D63F";
shapes = (
{
closed = 1;
nodes = (
(249,686,o),
(50,504,o),
(50,295,cs),
(50,112,o),
(146,-10,o),
(289,-10,cs),
(423,-10,o),
(513,89,o),
(513,238,cs),
(513,376,o),
(431,468,o),
(309,468,cs),
(210,468,o),
(144,388,o),
(144,268,c),
(164,234,l),
(164,355,o),
(217,435,o),
(296,435,cs),
(357,435,o),
(398,359,o),
(398,245,cs),
(398,112,o),
(352,23,o),
(283,23,cs),
(211,23,o),
(164,108,o),
(164,234,cs),
(164,484,o),
(319,683,o),
(553,733,c),
(548,750,l)
);
}
);
width = 567;
},
{
.lastUpdate = 794326577.261;
layerId = m006;
shapes = (
{
closed = 1;
nodes = (
(377,690,o),
(99,482,o),
(99,201,cs),
(99,72,o),
(166,-10,o),
(281,-10,cs),
(428,-10,o),
(553,129,o),
(553,292,cs),
(553,397,o),
(482,464,o),
(365,464,cs),
(258,464,o),
(172,388,o),
(150,274,c),
(157,258,l),
(179,372,o),
(259,448,o),
(356,448,cs),
(445,448,o),
(498,390,o),
(498,298,cs),
(498,147,o),
(394,6,o),
(281,6,cs),
(197,6,o),
(149,73,o),
(149,177,cs),
(149,498,o),
(474,707,o),
(682,742,c),
(682,750,l)
);
}
);
width = 577;
},
{
.lastUpdate = 794326577.261;
layerId = m007;
shapes = (
{
closed = 1;
nodes = (
(378,690,o),
(97,485,o),
(97,203,cs),
(97,72,o),
(165,-10,o),
(281,-10,cs),
(429,-10,o),
(554,129,o),
(554,293,cs),
(554,398,o),
(486,465,o),
(372,465,cs),
(266,465,o),
(182,387,o),
(160,273,c),
(169,252,l),
(192,369,o),
(269,445,o),
(360,445,cs),
(439,445,o),
(485,389,o),
(485,301,cs),
(485,152,o),
(386,10,o),
(281,10,cs),
(204,10,o),
(160,73,o),
(160,172,cs),
(160,496,o),
(487,708,o),
(684,740,c),
(682,750,l)
);
}
);
width = 554;
},
{
.lastUpdate = 794326577.261;
layerId = m008;
shapes = (
{
closed = 1;
nodes = (
(383,690,o),
(99,488,o),
(99,204,cs),
(99,73,o),
(168,-10,o),
(284,-10,cs),
(434,-10,o),
(559,129,o),
(559,295,cs),
(559,399,o),
(493,466,o),
(384,466,cs),
(281,466,o),
(197,388,o),
(174,271,c),
(184,246,l),
(207,363,o),
(281,441,o),
(369,441,cs),
(436,441,o),
(475,390,o),
(475,306,cs),
(475,158,o),
(382,15,o),
(285,15,cs),
(216,15,o),
(176,72,o),
(176,166,cs),
(176,493,o),
(504,709,o),
(689,737,c),
(688,750,l)
);
}
);
width = 584;
},
{
.lastUpdate = 794326577.261;
layerId = m009;
shapes = (
{
closed = 1;
nodes = (
(382,688,o),
(99,489,o),
(99,206,cs),
(99,73,o),
(169,-10,o),
(286,-10,cs),
(438,-10,o),
(563,129,o),
(563,296,cs),
(563,401,o),
(499,467,o),
(392,467,cs),
(290,467,o),
(208,387,o),
(185,269,c),
(197,240,l),
(220,359,o),
(291,438,o),
(375,438,cs),
(432,438,o),
(465,389,o),
(465,311,cs),
(465,165,o),
(377,19,o),
(287,19,cs),
(224,19,o),
(188,73,o),
(188,161,cs),
(188,491,o),
(515,709,o),
(692,735,c),
(692,750,l)
);
}
);
width = 588;
},
{
.lastUpdate = 794326577.262;
layerId = m010;
shapes = (
{
closed = 1;
nodes = (
(383,687,o),
(98,491,o),
(98,207,cs),
(98,74,o),
(168,-10,o),
(287,-10,cs),
(440,-10,o),
(565,129,o),
(565,297,cs),
(565,402,o),
(503,468,o),
(400,468,cs),
(300,468,o),
(219,387,o),
(196,268,c),
(209,234,l),
(233,357,o),
(302,435,o),
(380,435,cs),
(427,435,o),
(453,390,o),
(453,319,cs),
(453,172,o),
(369,23,o),
(287,23,cs),
(232,23,o),
(201,73,o),
(201,154,cs),
(201,489,o),
(525,708,o),
(695,733,c),
(693,750,l)
);
}
);
width = 567;
}
);
note = six;
unicode = 54;
},
{
glyphname = seven;
lastChange = "2026-03-04 14:16:17 +0000";
layers = (
{
.lastUpdate = 794326577.262;
layerId = "E059459B-5795-442B-8710-0018C46129BA";
shapes = (
{
closed = 1;
nodes = (
(169,-220,l),
(447,485,l),
(447,500,l),
(439,500,l),
(93,500,l),
(74,455,l),
(420,455,l),
(447,485,l),
(431,485,l),
(127,-220,l)
);
},
{
closed = 1;
nodes = (
(121,500,o),
(121,510,o),
(128,525,cs),
(133,537,l),
(133,537,o),
(127,537,o),
(117,537,cs),
(107,537,o),
(101,537,o),
(101,537,c),
(91,517,o),
(79,489,o),
(70,469,cs),
(61,449,o),
(49,421,o),
(40,401,c),
(40,401,o),
(46,401,o),
(56,401,cs),
(66,401,o),
(73,401,o),
(73,401,c),
(78,413,ls),
(89,438,o),
(99,455,o),
(108,455,c),
(142,500,l)
);
}
);
width = 488;
},
{
.lastUpdate = 794326577.262;
layerId = "261B483D-14CB-4AC5-AE3A-41E540C8643C";
shapes = (
{
closed = 1;
nodes = (
(209,-220,l),
(475,485,l),
(475,500,l),
(462,500,l),
(114,500,l),
(85,430,l),
(433,430,l),
(475,485,l),
(450,485,l),
(143,-220,l)
);
},
{
closed = 1;
nodes = (
(133,500,o),
(132,510,o),
(138,525,cs),
(144,537,l),
(144,537,o),
(137,537,o),
(128,537,cs),
(118,537,o),
(111,537,o),
(111,537,c),
(101,513,o),
(86,481,o),
(75,457,cs),
(65,433,o),
(51,401,o),
(40,376,c),
(40,376,o),
(46,376,o),
(56,376,cs),
(65,376,o),
(72,376,o),
(72,376,c),
(78,388,ls),
(89,413,o),
(98,430,o),
(108,430,c),
(163,500,l)
);
}
);
width = 516;
},
{
.lastUpdate = 794326577.262;
layerId = "B523A5AF-871D-4AB2-9BF1-E01A824009A4";
shapes = (
{
closed = 1;
nodes = (
(165,-220,l),
(437,485,l),
(437,500,l),
(427,500,l),
(80,500,l),
(56,443,l),
(403,443,l),
(437,485,l),
(417,485,l),
(112,-220,l)
);
},
{
closed = 1;
nodes = (
(104,500,o),
(103,510,o),
(110,525,cs),
(115,537,l),
(115,537,o),
(109,537,o),
(99,537,cs),
(89,537,o),
(83,537,o),
(83,537,c),
(73,515,o),
(59,485,o),
(50,463,cs),
(40,441,o),
(27,411,o),
(17,389,c),
(17,389,o),
(23,389,o),
(33,389,cs),
(43,389,o),
(50,389,o),
(49,389,c),
(55,401,ls),
(66,426,o),
(75,443,o),
(85,443,c),
(129,500,l)
);
}
);
width = 442;
},
{
.lastUpdate = 794326577.262;
layerId = "D3C24151-4D63-4841-9665-5260E3226900";
shapes = (
{
closed = 1;
nodes = (
(227,-220,l),
(488,485,l),
(488,500,l),
(473,500,l),
(124,500,l),
(90,419,l),
(439,419,l),
(488,485,l),
(459,485,l),
(150,-220,l)
);
},
{
closed = 1;
nodes = (
(139,500,o),
(137,510,o),
(144,525,cs),
(149,537,l),
(149,537,o),
(143,537,o),
(133,537,cs),
(123,537,o),
(116,537,o),
(116,537,c),
(105,511,o),
(90,477,o),
(78,451,cs),
(67,425,o),
(51,391,o),
(40,365,c),
(40,365,o),
(46,365,o),
(56,365,cs),
(66,365,o),
(73,365,o),
(72,365,c),
(78,377,ls),
(89,402,o),
(99,419,o),
(108,419,c),
(173,500,l)
);
}
);
width = 529;
},
{
.lastUpdate = 794326577.262;
layerId = "8EEC74F5-9CFA-47B4-A8F8-9A6461F2D63F";
shapes = (
{
closed = 1;
nodes = (
(192,-220,l),
(447,485,l),
(447,500,l),
(430,500,l),
(80,500,l),
(41,406,l),
(391,406,l),
(447,485,l),
(413,485,l),
(104,-220,l)
);
},
{
closed = 1;
nodes = (
(90,500,o),
(88,510,o),
(95,525,cs),
(100,537,l),
(100,537,o),
(93,537,o),
(84,537,cs),
(74,537,o),
(67,537,o),
(67,537,c),
(55,510,o),
(39,473,o),
(26,445,cs),
(14,417,o),
(-2,380,o),
(-15,353,c),
(-15,353,o),
(-8,353,o),
(1,353,cs),
(11,353,o),
(18,353,o),
(18,353,c),
(23,365,ls),
(34,390,o),
(43,406,o),
(53,406,c),
(129,500,l)
);
}
);
width = 451;
},
{
.lastUpdate = 794326577.262;
layerId = m006;
shapes = (
{
closed = 1;
nodes = (
(126,-220,l),
(541,485,l),
(544,500,l),
(536,500,l),
(190,500,l),
(162,455,l),
(508,455,l),
(541,485,l),
(525,485,l),
(84,-220,l)
);
},
{
closed = 1;
nodes = (
(217,500,o),
(221,511,o),
(229,524,cs),
(237,537,l),
(237,537,o),
(231,537,o),
(221,537,cs),
(211,537,o),
(205,537,o),
(205,537,c),
(191,517,o),
(177,494,o),
(161,469,cs),
(148,449,o),
(131,421,o),
(118,401,c),
(118,401,o),
(124,401,o),
(134,401,cs),
(144,401,o),
(151,401,o),
(151,401,c),
(158,413,ls),
(172,437,o),
(186,455,o),
(196,455,c),
(239,500,l)
);
}
);
width = 488;
},
{
.lastUpdate = 794326577.262;
layerId = m007;
shapes = (
{
closed = 1;
nodes = (
(122,-220,l),
(531,485,l),
(534,500,l),
(524,500,l),
(177,500,l),
(142,443,l),
(489,443,l),
(531,485,l),
(511,485,l),
(69,-220,l)
);
},
{
closed = 1;
nodes = (
(200,500,o),
(203,511,o),
(211,524,cs),
(219,537,l),
(219,537,o),
(213,537,o),
(203,537,cs),
(193,537,o),
(187,537,o),
(187,537,c),
(173,515,o),
(153,485,o),
(140,464,cs),
(125,440,o),
(107,412,o),
(92,389,c),
(92,389,o),
(98,389,o),
(108,389,cs),
(118,389,o),
(125,389,o),
(124,389,c),
(133,402,ls),
(148,424,o),
(161,443,o),
(171,443,c),
(226,500,l)
);
}
);
width = 442;
},
{
.lastUpdate = 794326577.262;
layerId = m008;
shapes = (
{
closed = 1;
nodes = (
(166,-220,l),
(569,485,l),
(572,500,l),
(559,500,l),
(211,500,l),
(168,430,l),
(516,430,l),
(569,485,l),
(544,485,l),
(100,-220,l)
);
},
{
closed = 1;
nodes = (
(230,500,o),
(230,510,o),
(240,525,cs),
(248,537,l),
(248,537,o),
(241,537,o),
(232,537,cs),
(222,537,o),
(215,537,o),
(215,537,c),
(200,513,o),
(179,481,o),
(164,457,cs),
(149,433,o),
(129,401,o),
(113,376,c),
(113,376,o),
(119,376,o),
(129,376,cs),
(138,376,o),
(145,376,o),
(145,376,c),
(154,390,ls),
(169,413,o),
(181,430,o),
(191,430,c),
(260,500,l)
);
}
);
width = 516;
},
{
.lastUpdate = 794326577.262;
layerId = m009;
shapes = (
{
closed = 1;
nodes = (
(184,-220,l),
(582,485,l),
(585,500,l),
(570,500,l),
(221,500,l),
(171,419,l),
(520,419,l),
(582,485,l),
(553,485,l),
(107,-220,l)
);
},
{
closed = 1;
nodes = (
(235,500,o),
(237,511,o),
(245,524,cs),
(253,537,l),
(253,537,o),
(247,537,o),
(237,537,cs),
(227,537,o),
(220,537,o),
(220,537,c),
(204,510,o),
(193,494,o),
(165,450,cs),
(149,424,o),
(127,391,o),
(111,365,c),
(111,365,o),
(117,365,o),
(127,365,cs),
(137,365,o),
(144,365,o),
(143,365,c),
(152,379,ls),
(167,402,o),
(180,419,o),
(189,419,c),
(270,500,l)
);
}
);
width = 529;
},
{
.lastUpdate = 794326577.263;
layerId = m010;
shapes = (
{
closed = 1;
nodes = (
(150,-220,l),
(542,485,l),
(545,500,l),
(528,500,l),
(178,500,l),
(120,406,l),
(470,406,l),
(542,485,l),
(508,485,l),
(62,-220,l)
);
},
{
closed = 1;
nodes = (
(188,500,o),
(187,510,o),
(197,525,cs),
(205,537,l),
(205,537,o),
(198,537,o),
(189,537,cs),
(179,537,o),
(172,537,o),
(172,537,c),
(155,510,o),
(131,473,o),
(113,445,cs),
(95,417,o),
(72,380,o),
(54,353,c),
(54,353,o),
(61,353,o),
(70,353,cs),
(80,353,o),
(87,353,o),
(87,353,c),
(94,364,ls),
(110,389,o),
(122,406,o),
(132,406,c),
(227,500,l)
);
}
);
width = 451;
}
);
note = seven;
unicode = 55;
},
{
glyphname = eight;
lastChange = "2026-03-04 14:16:17 +0000";
layers = (
{
.lastUpdate = 794326577.263;
layerId = "E059459B-5795-442B-8710-0018C46129BA";
shapes = (
{
closed = 1;
nodes = (
(279,395,l),
(394,437,o),
(471,518,o),
(471,597,cs),
(471,695,o),
(391,760,o),
(271,760,cs),
(153,760,o),
(75,689,o),
(75,583,cs),
(75,493,o),
(147,417,o),
(255,373,cs),
(375,323,o),
(455,270,o),
(455,164,cs),
(455,67,o),
(382,3,o),
(273,3,cs),
(168,3,o),
(98,71,o),
(98,174,cs),
(98,270,o),
(159,356,o),
(251,390,c),
(251,402,l),
(130,358,o),
(50,267,o),
(50,174,cs),
(50,64,o),
(139,-10,o),
(273,-10,cs),
(407,-10,o),
(497,69,o),
(497,188,cs),
(497,309,o),
(409,369,o),
(276,424,cs),
(182,463,o),
(119,528,o),
(119,604,cs),
(119,690,o),
(180,747,o),
(271,747,cs),
(362,747,o),
(423,685,o),
(423,592,cs),
(423,512,o),
(365,438,o),
(279,407,c)
);
}
);
width = 547;
},
{
.lastUpdate = 794326577.263;
layerId = "261B483D-14CB-4AC5-AE3A-41E540C8643C";
shapes = (
{
closed = 1;
nodes = (
(283,392,l),
(400,435,o),
(478,517,o),
(478,598,cs),
(478,695,o),
(397,760,o),
(275,760,cs),
(155,760,o),
(76,688,o),
(76,580,cs),
(76,482,o),
(146,402,o),
(252,358,cs),
(364,313,o),
(438,261,o),
(438,154,cs),
(438,67,o),
(373,10,o),
(277,10,cs),
(186,10,o),
(125,76,o),
(125,174,cs),
(125,273,o),
(177,358,o),
(255,386,c),
(255,406,l),
(132,362,o),
(50,269,o),
(50,174,cs),
(50,64,o),
(141,-10,o),
(277,-10,cs),
(413,-10,o),
(504,71,o),
(504,191,cs),
(504,322,o),
(416,383,o),
(285,438,cs),
(201,473,o),
(145,535,o),
(145,612,cs),
(145,689,o),
(197,740,o),
(275,740,cs),
(353,740,o),
(405,680,o),
(405,590,cs),
(405,508,o),
(356,436,o),
(283,410,c)
);
}
);
width = 554;
},
{
.lastUpdate = 794326577.263;
layerId = "B523A5AF-871D-4AB2-9BF1-E01A824009A4";
shapes = (
{
closed = 1;
nodes = (
(273,394,l),
(390,436,o),
(467,517,o),
(467,598,cs),
(467,695,o),
(386,760,o),
(265,760,cs),
(147,760,o),
(68,689,o),
(68,581,cs),
(68,487,o),
(139,410,o),
(246,366,cs),
(362,318,o),
(439,266,o),
(439,159,cs),
(439,67,o),
(370,6,o),
(267,6,cs),
(169,6,o),
(104,73,o),
(104,174,cs),
(104,271,o),
(161,357,o),
(245,388,c),
(245,404,l),
(124,360,o),
(43,268,o),
(43,174,cs),
(43,64,o),
(133,-10,o),
(267,-10,cs),
(403,-10,o),
(493,70,o),
(493,190,cs),
(493,315,o),
(405,376,o),
(273,430,cs),
(184,467,o),
(124,531,o),
(124,608,cs),
(124,689,o),
(181,744,o),
(265,744,cs),
(350,744,o),
(407,683,o),
(407,591,cs),
(407,511,o),
(354,438,o),
(273,408,c)
);
}
);
width = 532;
},
{
.lastUpdate = 794326577.263;
layerId = "D3C24151-4D63-4841-9665-5260E3226900";
shapes = (
{
closed = 1;
nodes = (
(284,391,l),
(402,433,o),
(481,516,o),
(481,598,cs),
(481,695,o),
(399,760,o),
(276,760,cs),
(156,760,o),
(76,687,o),
(76,579,cs),
(76,477,o),
(146,395,o),
(251,352,cs),
(358,307,o),
(430,257,o),
(430,149,cs),
(430,67,o),
(369,13,o),
(278,13,cs),
(193,13,o),
(137,77,o),
(137,174,cs),
(137,274,o),
(185,358,o),
(256,384,c),
(256,408,l),
(132,363,o),
(50,269,o),
(50,174,cs),
(50,64,o),
(141,-10,o),
(278,-10,cs),
(415,-10,o),
(506,71,o),
(506,193,cs),
(506,328,o),
(419,390,o),
(289,444,cs),
(209,477,o),
(156,539,o),
(156,616,cs),
(156,689,o),
(204,737,o),
(276,737,cs),
(348,737,o),
(396,678,o),
(396,589,cs),
(396,507,o),
(351,436,o),
(284,411,c)
);
}
);
width = 557;
},
{
.lastUpdate = 794326577.263;
layerId = "8EEC74F5-9CFA-47B4-A8F8-9A6461F2D63F";
shapes = (
{
closed = 1;
nodes = (
(268,389,l),
(387,432,o),
(467,516,o),
(467,599,cs),
(467,695,o),
(384,760,o),
(260,760,cs),
(139,760,o),
(59,687,o),
(59,577,cs),
(59,471,o),
(128,387,o),
(232,345,cs),
(335,302,o),
(404,253,o),
(404,144,cs),
(404,68,o),
(347,17,o),
(262,17,cs),
(185,17,o),
(133,80,o),
(133,174,cs),
(133,276,o),
(176,359,o),
(240,383,c),
(240,409,l),
(116,364,o),
(33,270,o),
(33,174,cs),
(33,64,o),
(125,-10,o),
(262,-10,cs),
(400,-10,o),
(492,72,o),
(492,195,cs),
(492,335,o),
(406,398,o),
(276,451,cs),
(201,482,o),
(151,543,o),
(151,620,cs),
(151,688,o),
(195,733,o),
(260,733,cs),
(325,733,o),
(369,675,o),
(369,588,cs),
(369,505,o),
(329,435,o),
(268,413,c)
);
}
);
width = 531;
},
{
.lastUpdate = 794326577.263;
layerId = m006;
shapes = (
{
closed = 1;
nodes = (
(356,395,l),
(479,437,o),
(590,525,o),
(590,629,cs),
(590,709,o),
(525,760,o),
(419,760,cs),
(287,760,o),
(185,666,o),
(185,551,cs),
(185,476,o),
(238,413,o),
(329,372,cs),
(424,329,o),
(490,283,o),
(490,199,cs),
(490,81,o),
(389,3,o),
(273,3,cs),
(183,3,o),
(128,54,o),
(128,135,cs),
(128,273,o),
(257,369,o),
(327,390,c),
(329,402,l),
(199,359,o),
(80,255,o),
(80,138,cs),
(80,48,o),
(153,-10,o),
(271,-10,cs),
(414,-10,o),
(538,88,o),
(538,230,cs),
(538,326,o),
(465,375,o),
(356,425,cs),
(282,459,o),
(234,513,o),
(234,578,cs),
(234,669,o),
(313,747,o),
(416,747,cs),
(494,747,o),
(542,701,o),
(542,629,cs),
(542,526,o),
(452,437,o),
(358,407,c)
);
}
);
width = 547;
},
{
.lastUpdate = 794326577.263;
layerId = m007;
shapes = (
{
closed = 1;
nodes = (
(349,394,l),
(476,436,o),
(586,526,o),
(586,629,cs),
(586,709,o),
(520,760,o),
(412,760,cs),
(281,760,o),
(177,666,o),
(177,546,cs),
(177,468,o),
(230,405,o),
(319,365,cs),
(412,323,o),
(473,277,o),
(473,196,cs),
(473,77,o),
(374,6,o),
(268,6,cs),
(183,6,o),
(133,56,o),
(133,134,cs),
(133,273,o),
(259,371,o),
(320,388,c),
(323,404,l),
(192,361,o),
(73,255,o),
(73,138,cs),
(73,48,o),
(147,-10,o),
(265,-10,cs),
(409,-10,o),
(534,88,o),
(534,234,cs),
(534,331,o),
(461,383,o),
(359,429,cs),
(286,462,o),
(239,513,o),
(239,580,cs),
(239,671,o),
(315,744,o),
(409,744,cs),
(482,744,o),
(526,700,o),
(526,629,cs),
(526,526,o),
(440,436,o),
(352,408,c)
);
}
);
width = 532;
},
{
.lastUpdate = 794326577.263;
layerId = m008;
shapes = (
{
closed = 1;
nodes = (
(359,392,l),
(485,435,o),
(597,525,o),
(597,629,cs),
(597,708,o),
(531,760,o),
(422,760,cs),
(293,760,o),
(185,669,o),
(185,542,cs),
(185,462,o),
(236,396,o),
(322,358,cs),
(412,318,o),
(472,274,o),
(472,192,cs),
(472,74,o),
(376,10,o),
(279,10,cs),
(201,10,o),
(154,58,o),
(154,133,cs),
(154,245,o),
(247,364,o),
(330,386,c),
(334,406,l),
(201,363,o),
(80,256,o),
(80,139,cs),
(80,48,o),
(154,-10,o),
(275,-10,cs),
(415,-10,o),
(546,84,o),
(546,239,cs),
(546,338,o),
(473,391,o),
(370,438,cs),
(302,469,o),
(261,520,o),
(261,583,cs),
(261,671,o),
(330,740,o),
(419,740,cs),
(484,740,o),
(523,698,o),
(523,630,cs),
(523,506,o),
(418,426,o),
(362,410,c)
);
}
);
width = 554;
},
{
.lastUpdate = 794326577.263;
layerId = m009;
shapes = (
{
closed = 1;
nodes = (
(360,391,l),
(485,432,o),
(600,524,o),
(600,629,cs),
(600,708,o),
(534,760,o),
(423,760,cs),
(297,760,o),
(184,672,o),
(184,538,cs),
(184,454,o),
(235,390,o),
(321,351,cs),
(407,312,o),
(463,268,o),
(463,189,cs),
(463,72,o),
(371,13,o),
(280,13,cs),
(208,13,o),
(166,59,o),
(166,131,cs),
(166,239,o),
(251,363,o),
(330,384,c),
(335,408,l),
(201,364,o),
(80,256,o),
(80,139,cs),
(80,48,o),
(154,-10,o),
(276,-10,cs),
(417,-10,o),
(548,84,o),
(548,244,cs),
(548,345,o),
(478,397,o),
(377,443,cs),
(311,473,o),
(272,522,o),
(272,585,cs),
(272,682,o),
(347,737,o),
(419,737,cs),
(479,737,o),
(514,695,o),
(514,631,cs),
(514,522,o),
(430,430,o),
(364,411,c)
);
}
);
width = 557;
},
{
.lastUpdate = 794326577.264;
layerId = m010;
shapes = (
{
closed = 1;
nodes = (
(343,389,l),
(470,431,o),
(586,525,o),
(586,629,cs),
(586,708,o),
(518,760,o),
(407,760,cs),
(281,760,o),
(166,673,o),
(166,532,cs),
(166,446,o),
(218,381,o),
(298,345,cs),
(381,308,o),
(436,266,o),
(436,185,cs),
(436,72,o),
(350,17,o),
(265,17,cs),
(201,17,o),
(162,61,o),
(162,131,cs),
(162,234,o),
(240,363,o),
(314,383,c),
(319,409,l),
(185,365,o),
(63,256,o),
(63,139,cs),
(63,49,o),
(138,-10,o),
(260,-10,cs),
(398,-10,o),
(535,81,o),
(535,249,cs),
(535,352,o),
(466,405,o),
(366,450,cs),
(306,477,o),
(268,523,o),
(268,587,cs),
(268,681,o),
(337,733,o),
(402,733,cs),
(455,733,o),
(487,694,o),
(487,631,cs),
(487,529,o),
(413,430,o),
(348,413,c)
);
}
);
width = 531;
}
);
note = eight;
unicode = 56;
},
{
glyphname = nine;
lastChange = "2026-03-04 14:16:17 +0000";
layers = (
{
.lastUpdate = 794326577.264;
layerId = "E059459B-5795-442B-8710-0018C46129BA";
shapes = (
{
closed = 1;
nodes = (
(331,-188,o),
(525,-3,o),
(525,213,cs),
(525,391,o),
(432,510,o),
(293,510,cs),
(163,510,o),
(76,410,o),
(76,261,cs),
(76,126,o),
(166,36,o),
(301,36,cs),
(408,36,o),
(479,112,o),
(479,226,c),
(469,242,l),
(470,128,o),
(405,52,o),
(307,52,cs),
(202,52,o),
(132,134,o),
(131,258,cs),
(132,400,o),
(197,494,o),
(296,494,cs),
(400,494,o),
(470,393,o),
(469,242,cs),
(470,7,o),
(297,-187,o),
(39,-242,c),
(41,-250,l)
);
}
);
width = 577;
},
{
.lastUpdate = 794326577.264;
layerId = "261B483D-14CB-4AC5-AE3A-41E540C8643C";
shapes = (
{
closed = 1;
nodes = (
(337,-188,o),
(533,-4,o),
(533,209,cs),
(533,389,o),
(439,510,o),
(298,510,cs),
(166,510,o),
(77,410,o),
(77,261,cs),
(77,125,o),
(163,34,o),
(292,34,cs),
(395,34,o),
(463,112,o),
(463,229,c),
(448,254,l),
(448,137,o),
(390,59,o),
(301,59,cs),
(219,59,o),
(163,138,o),
(163,257,cs),
(163,394,o),
(219,485,o),
(303,485,cs),
(390,485,o),
(448,393,o),
(448,254,cs),
(448,12,o),
(285,-185,o),
(39,-237,c),
(42,-250,l)
);
}
);
width = 584;
},
{
.lastUpdate = 794326577.264;
layerId = "B523A5AF-871D-4AB2-9BF1-E01A824009A4";
shapes = (
{
closed = 1;
nodes = (
(310,-188,o),
(505,-3,o),
(505,211,cs),
(505,390,o),
(411,510,o),
(271,510,cs),
(140,510,o),
(53,410,o),
(53,261,cs),
(53,125,o),
(141,35,o),
(273,35,cs),
(378,35,o),
(448,112,o),
(447,227,c),
(435,248,l),
(435,132,o),
(373,55,o),
(281,55,cs),
(186,55,o),
(123,136,o),
(122,257,cs),
(123,397,o),
(184,490,o),
(275,490,cs),
(371,490,o),
(435,393,o),
(435,248,cs),
(435,9,o),
(267,-186,o),
(15,-240,c),
(18,-250,l)
);
}
);
width = 554;
},
{
.lastUpdate = 794326577.264;
layerId = "D3C24151-4D63-4841-9665-5260E3226900";
shapes = (
{
closed = 1;
nodes = (
(339,-187,o),
(537,-4,o),
(537,207,cs),
(537,389,o),
(442,510,o),
(300,510,cs),
(166,510,o),
(77,411,o),
(78,261,cs),
(77,124,o),
(161,33,o),
(287,33,cs),
(388,33,o),
(455,112,o),
(455,231,c),
(438,260,l),
(438,141,o),
(382,62,o),
(299,62,cs),
(226,62,o),
(177,140,o),
(178,256,cs),
(177,391,o),
(229,481,o),
(306,481,cs),
(385,481,o),
(438,393,o),
(438,260,cs),
(438,14,o),
(279,-184,o),
(39,-235,c),
(43,-250,l)
);
}
);
width = 588;
},
{
.lastUpdate = 794326577.264;
layerId = "8EEC74F5-9CFA-47B4-A8F8-9A6461F2D63F";
shapes = (
{
closed = 1;
nodes = (
(318,-186,o),
(518,-4,o),
(518,205,cs),
(518,388,o),
(422,510,o),
(279,510,cs),
(144,510,o),
(54,411,o),
(54,262,cs),
(54,124,o),
(136,32,o),
(259,32,cs),
(358,32,o),
(423,112,o),
(423,232,c),
(403,266,l),
(403,145,o),
(351,65,o),
(272,65,cs),
(210,65,o),
(169,141,o),
(169,255,cs),
(169,388,o),
(216,477,o),
(285,477,cs),
(356,477,o),
(403,392,o),
(403,266,cs),
(403,16,o),
(248,-183,o),
(15,-233,c),
(19,-250,l)
);
}
);
width = 567;
},
{
.lastUpdate = 794326577.264;
layerId = m006;
shapes = (
{
closed = 1;
nodes = (
(295,-190,o),
(575,17,o),
(575,299,cs),
(575,428,o),
(508,510,o),
(392,510,cs),
(246,510,o),
(121,371,o),
(121,208,cs),
(121,103,o),
(192,36,o),
(308,36,cs),
(415,36,o),
(501,112,o),
(523,226,c),
(516,242,l),
(495,128,o),
(415,52,o),
(317,52,cs),
(212,52,o),
(157,134,o),
(182,260,cs),
(210,401,o),
(294,494,o),
(392,494,cs),
(476,494,o),
(525,428,o),
(525,324,cs),
(525,3,o),
(202,-206,o),
(-8,-242,c),
(-8,-250,l)
);
}
);
width = 577;
},
{
.lastUpdate = 794326577.264;
layerId = m007;
shapes = (
{
closed = 1;
nodes = (
(273,-190,o),
(554,15,o),
(554,297,cs),
(554,427,o),
(486,510,o),
(370,510,cs),
(223,510,o),
(98,371,o),
(98,207,cs),
(98,102,o),
(166,35,o),
(279,35,cs),
(385,35,o),
(470,113,o),
(491,227,c),
(483,248,l),
(460,131,o),
(383,55,o),
(291,55,cs),
(198,55,o),
(148,134,o),
(172,257,cs),
(199,396,o),
(278,490,o),
(370,490,cs),
(447,490,o),
(491,427,o),
(491,328,cs),
(491,4,o),
(164,-208,o),
(-32,-240,c),
(-31,-250,l)
);
}
);
width = 554;
},
{
.lastUpdate = 794326577.264;
layerId = m008;
shapes = (
{
closed = 1;
nodes = (
(299,-190,o),
(583,12,o),
(583,296,cs),
(583,427,o),
(514,510,o),
(397,510,cs),
(248,510,o),
(122,371,o),
(122,205,cs),
(122,101,o),
(188,34,o),
(299,34,cs),
(401,34,o),
(485,111,o),
(508,229,c),
(497,254,l),
(474,136,o),
(401,59,o),
(313,59,cs),
(246,59,o),
(207,112,o),
(207,195,cs),
(207,342,o),
(300,485,o),
(397,485,cs),
(466,485,o),
(506,428,o),
(506,334,cs),
(506,7,o),
(179,-209,o),
(-7,-237,c),
(-7,-250,l)
);
}
);
width = 584;
},
{
.lastUpdate = 794326577.264;
layerId = m009;
shapes = (
{
closed = 1;
nodes = (
(303,-188,o),
(586,11,o),
(586,294,cs),
(586,427,o),
(516,510,o),
(399,510,cs),
(264,510,o),
(157,410,o),
(128,261,cs),
(101,122,o),
(169,33,o),
(293,33,cs),
(395,33,o),
(477,113,o),
(500,231,c),
(488,260,l),
(465,142,o),
(394,62,o),
(311,62,cs),
(253,62,o),
(220,111,o),
(220,188,cs),
(220,336,o),
(309,481,o),
(399,481,cs),
(461,481,o),
(497,427,o),
(497,340,cs),
(497,10,o),
(171,-209,o),
(-7,-235,c),
(-6,-250,l)
);
}
);
width = 588;
},
{
.lastUpdate = 794326577.265;
layerId = m010;
shapes = (
{
closed = 1;
nodes = (
(282,-187,o),
(567,9,o),
(567,293,cs),
(567,426,o),
(497,510,o),
(378,510,cs),
(225,510,o),
(99,372,o),
(99,203,cs),
(99,99,o),
(161,32,o),
(266,32,cs),
(365,32,o),
(445,113,o),
(468,232,c),
(455,266,l),
(431,143,o),
(363,65,o),
(285,65,cs),
(238,65,o),
(211,109,o),
(211,181,cs),
(211,327,o),
(295,477,o),
(378,477,cs),
(432,477,o),
(463,427,o),
(463,346,cs),
(463,11,o),
(138,-209,o),
(-30,-233,c),
(-29,-250,l)
);
}
);
width = 567;
}
);
note = nine;
unicode = 57;
},
{
glyphname = colon;
lastChange = "2026-03-04 14:16:17 +0000";
layers = (
{
.lastUpdate = 794326577.265;
layerId = "E059459B-5795-442B-8710-0018C46129BA";
shapes = (
{
closed = 1;
nodes = (
(148,-5,o),
(164,11,o),
(164,34,cs),
(164,57,o),
(148,73,o),
(125,73,cs),
(102,73,o),
(86,57,o),
(86,34,cs),
(86,11,o),
(102,-5,o),
(125,-5,cs)
);
},
{
closed = 1;
nodes = (
(148,427,o),
(164,443,o),
(164,466,cs),
(164,489,o),
(148,505,o),
(125,505,cs),
(102,505,o),
(86,489,o),
(86,466,cs),
(86,443,o),
(102,427,o),
(125,427,cs)
);
}
);
width = 229;
},
{
.lastUpdate = 794326577.265;
layerId = "261B483D-14CB-4AC5-AE3A-41E540C8643C";
shapes = (
{
closed = 1;
nodes = (
(162,-5,o),
(186,19,o),
(186,56,cs),
(186,92,o),
(162,116,o),
(125,116,cs),
(88,116,o),
(64,92,o),
(64,56,cs),
(64,19,o),
(88,-5,o),
(125,-5,cs)
);
},
{
closed = 1;
nodes = (
(162,384,o),
(186,408,o),
(186,444,cs),
(186,481,o),
(162,505,o),
(125,505,cs),
(88,505,o),
(64,481,o),
(64,444,cs),
(64,408,o),
(88,384,o),
(125,384,cs)
);
}
);
width = 250;
},
{
.lastUpdate = 794326577.265;
layerId = "B523A5AF-871D-4AB2-9BF1-E01A824009A4";
shapes = (
{
closed = 1;
nodes = (
(154,-5,o),
(174,15,o),
(174,44,cs),
(174,74,o),
(154,94,o),
(125,94,cs),
(96,94,o),
(76,74,o),
(76,44,cs),
(76,15,o),
(96,-5,o),
(125,-5,cs)
);
},
{
closed = 1;
nodes = (
(154,406,o),
(174,426,o),
(174,456,cs),
(174,485,o),
(154,505,o),
(125,505,cs),
(96,505,o),
(76,485,o),
(76,456,cs),
(76,426,o),
(96,406,o),
(125,406,cs)
);
}
);
width = 239;
},
{
.lastUpdate = 794326577.265;
layerId = "D3C24151-4D63-4841-9665-5260E3226900";
shapes = (
{
closed = 1;
nodes = (
(168,-5,o),
(196,23,o),
(196,66,cs),
(196,108,o),
(168,136,o),
(125,136,cs),
(82,136,o),
(54,108,o),
(54,66,cs),
(54,23,o),
(82,-5,o),
(125,-5,cs)
);
},
{
closed = 1;
nodes = (
(168,364,o),
(196,392,o),
(196,434,cs),
(196,477,o),
(168,505,o),
(125,505,cs),
(82,505,o),
(54,477,o),
(54,434,cs),
(54,392,o),
(82,364,o),
(125,364,cs)
);
}
);
width = 260;
},
{
.lastUpdate = 794326577.265;
layerId = "8EEC74F5-9CFA-47B4-A8F8-9A6461F2D63F";
shapes = (
{
closed = 1;
nodes = (
(173,-5,o),
(205,27,o),
(205,75,cs),
(205,123,o),
(173,155,o),
(125,155,cs),
(77,155,o),
(45,123,o),
(45,75,cs),
(45,27,o),
(77,-5,o),
(125,-5,cs)
);
},
{
closed = 1;
nodes = (
(173,345,o),
(205,377,o),
(205,425,cs),
(205,473,o),
(173,505,o),
(125,505,cs),
(77,505,o),
(45,473,o),
(45,425,cs),
(45,377,o),
(77,345,o),
(125,345,cs)
);
}
);
width = 270;
},
{
.lastUpdate = 794326577.265;
layerId = m006;
shapes = (
{
closed = 1;
nodes = (
(151,-5,o),
(172,17,o),
(172,43,cs),
(172,61,o),
(159,73,o),
(139,73,cs),
(113,73,o),
(92,51,o),
(92,25,cs),
(92,7,o),
(105,-5,o),
(124,-5,cs)
);
},
{
closed = 1;
nodes = (
(235,427,o),
(256,449,o),
(256,475,cs),
(256,493,o),
(244,505,o),
(223,505,cs),
(197,505,o),
(176,483,o),
(176,457,cs),
(176,439,o),
(188,427,o),
(208,427,cs)
);
}
);
width = 229;
},
{
.lastUpdate = 794326577.265;
layerId = m007;
shapes = (
{
closed = 1;
nodes = (
(156,-5,o),
(183,22,o),
(183,56,cs),
(183,79,o),
(168,94,o),
(143,94,cs),
(110,94,o),
(83,67,o),
(83,33,cs),
(83,10,o),
(99,-5,o),
(124,-5,cs)
);
},
{
closed = 1;
nodes = (
(236,406,o),
(263,433,o),
(263,467,cs),
(263,490,o),
(247,505,o),
(223,505,cs),
(189,505,o),
(163,478,o),
(163,444,cs),
(163,421,o),
(179,406,o),
(203,406,cs)
);
}
);
width = 239;
},
{
.lastUpdate = 794326577.265;
layerId = m008;
shapes = (
{
closed = 1;
nodes = (
(165,-5,o),
(198,28,o),
(198,70,cs),
(198,98,o),
(179,116,o),
(147,116,cs),
(110,116,o),
(73,88,o),
(73,41,cs),
(73,13,o),
(91,-5,o),
(124,-5,cs)
);
},
{
closed = 1;
nodes = (
(236,384,o),
(273,412,o),
(273,459,cs),
(273,487,o),
(254,505,o),
(223,505,cs),
(181,505,o),
(148,472,o),
(148,430,cs),
(148,402,o),
(167,384,o),
(199,384,cs)
);
}
);
width = 250;
},
{
.lastUpdate = 794326577.266;
layerId = m009;
shapes = (
{
closed = 1;
nodes = (
(172,-5,o),
(210,33,o),
(210,82,cs),
(210,115,o),
(188,136,o),
(151,136,cs),
(108,136,o),
(65,103,o),
(65,49,cs),
(65,16,o),
(87,-5,o),
(124,-5,cs)
);
},
{
closed = 1;
nodes = (
(239,364,o),
(282,397,o),
(282,451,cs),
(282,484,o),
(260,505,o),
(223,505,cs),
(175,505,o),
(137,467,o),
(137,418,cs),
(137,385,o),
(159,364,o),
(196,364,cs)
);
}
);
width = 260;
},
{
.lastUpdate = 794326577.266;
layerId = m010;
shapes = (
{
closed = 1;
nodes = (
(179,-5,o),
(222,39,o),
(222,94,cs),
(222,131,o),
(197,155,o),
(155,155,cs),
(101,155,o),
(58,111,o),
(58,56,cs),
(58,19,o),
(83,-5,o),
(124,-5,cs)
);
},
{
closed = 1;
nodes = (
(247,345,o),
(290,389,o),
(290,444,cs),
(290,481,o),
(265,505,o),
(223,505,cs),
(169,505,o),
(126,462,o),
(126,406,cs),
(126,369,o),
(151,345,o),
(192,345,cs)
);
}
);
width = 270;
}
);
note = colon;
unicode = 58;
},
{
glyphname = semicolon;
lastChange = "2026-03-04 14:16:17 +0000";
layers = (
{
.lastUpdate = 794326577.266;
layerId = "E059459B-5795-442B-8710-0018C46129BA";
shapes = (
{
closed = 1;
nodes = (
(163,-5,o),
(179,11,o),
(179,34,cs),
(179,57,o),
(163,73,o),
(140,73,cs),
(117,73,o),
(101,57,o),
(101,34,cs),
(101,11,o),
(117,-5,o),
(140,-5,cs)
);
},
{
closed = 1;
nodes = (
(140,45,l),
(155,45,o),
(165,32,o),
(165,13,cs),
(165,-37,o),
(138,-78,o),
(98,-89,c),
(101,-100,l),
(156,-85,o),
(193,-37,o),
(193,17,cs),
(193,51,o),
(172,73,o),
(140,73,c)
);
},
{
closed = 1;
nodes = (
(148,385,o),
(164,401,o),
(164,424,cs),
(164,447,o),
(148,463,o),
(125,463,cs),
(102,463,o),
(86,447,o),
(86,424,cs),
(86,401,o),
(102,385,o),
(125,385,cs)
);
}
);
width = 249;
},
{
.lastUpdate = 794326577.266;
layerId = "261B483D-14CB-4AC5-AE3A-41E540C8643C";
shapes = (
{
closed = 1;
nodes = (
(177,-5,o),
(201,19,o),
(201,56,cs),
(201,92,o),
(177,116,o),
(140,116,cs),
(103,116,o),
(79,92,o),
(79,56,cs),
(79,19,o),
(103,-5,o),
(140,-5,cs)
);
},
{
closed = 1;
nodes = (
(140,73,l),
(163,73,o),
(179,48,o),
(179,11,cs),
(179,-46,o),
(137,-96,o),
(74,-114,c),
(79,-131,l),
(165,-106,o),
(222,-46,o),
(222,19,cs),
(222,77,o),
(189,116,o),
(140,116,c)
);
},
{
closed = 1;
nodes = (
(162,385,o),
(186,409,o),
(186,446,cs),
(186,482,o),
(162,506,o),
(125,506,cs),
(88,506,o),
(64,482,o),
(64,446,cs),
(64,409,o),
(88,385,o),
(125,385,cs)
);
}
);
width = 270;
},
{
.lastUpdate = 794326577.266;
layerId = "B523A5AF-871D-4AB2-9BF1-E01A824009A4";
shapes = (
{
closed = 1;
nodes = (
(169,-5,o),
(189,15,o),
(189,44,cs),
(189,74,o),
(169,94,o),
(140,94,cs),
(111,94,o),
(91,74,o),
(91,44,cs),
(91,15,o),
(111,-5,o),
(140,-5,cs)
);
},
{
closed = 1;
nodes = (
(140,58,l),
(159,58,o),
(172,40,o),
(172,12,cs),
(172,-41,o),
(138,-86,o),
(87,-101,c),
(91,-115,l),
(160,-95,o),
(207,-42,o),
(207,18,cs),
(207,64,o),
(180,94,o),
(140,94,c)
);
},
{
closed = 1;
nodes = (
(154,385,o),
(174,405,o),
(174,434,cs),
(174,464,o),
(154,484,o),
(125,484,cs),
(96,484,o),
(76,464,o),
(76,434,cs),
(76,405,o),
(96,385,o),
(125,385,cs)
);
}
);
width = 259;
},
{
.lastUpdate = 794326577.266;
layerId = "D3C24151-4D63-4841-9665-5260E3226900";
shapes = (
{
closed = 1;
nodes = (
(183,-5,o),
(211,23,o),
(211,66,cs),
(211,108,o),
(183,136,o),
(140,136,cs),
(97,136,o),
(69,108,o),
(69,66,cs),
(69,23,o),
(97,-5,o),
(140,-5,cs)
);
},
{
closed = 1;
nodes = (
(140,86,l),
(169,86,o),
(188,56,o),
(188,11,cs),
(188,-51,o),
(139,-106,o),
(64,-128,c),
(69,-145,l),
(168,-117,o),
(233,-51,o),
(233,19,cs),
(233,89,o),
(196,136,o),
(140,136,c)
);
},
{
closed = 1;
nodes = (
(168,385,o),
(196,413,o),
(196,456,cs),
(196,498,o),
(168,526,o),
(125,526,cs),
(82,526,o),
(54,498,o),
(54,456,cs),
(54,413,o),
(82,385,o),
(125,385,cs)
);
}
);
width = 280;
},
{
.lastUpdate = 794326577.266;
layerId = "8EEC74F5-9CFA-47B4-A8F8-9A6461F2D63F";
shapes = (
{
closed = 1;
nodes = (
(188,-5,o),
(220,27,o),
(220,75,cs),
(220,123,o),
(188,155,o),
(140,155,cs),
(92,155,o),
(60,123,o),
(60,75,cs),
(60,27,o),
(92,-5,o),
(140,-5,cs)
);
},
{
closed = 1;
nodes = (
(140,97,l),
(173,97,o),
(195,62,o),
(195,11,cs),
(195,-57,o),
(139,-118,o),
(55,-143,c),
(60,-160,l),
(171,-128,o),
(245,-56,o),
(245,19,cs),
(245,101,o),
(203,155,o),
(140,155,c)
);
},
{
closed = 1;
nodes = (
(173,385,o),
(205,417,o),
(205,465,cs),
(205,513,o),
(173,545,o),
(125,545,cs),
(77,545,o),
(45,513,o),
(45,465,cs),
(45,417,o),
(77,385,o),
(125,385,cs)
);
}
);
width = 290;
},
{
.lastUpdate = 794326577.266;
layerId = m006;
shapes = (
{
closed = 1;
nodes = (
(166,-5,o),
(187,17,o),
(187,43,cs),
(187,61,o),
(174,73,o),
(154,73,cs),
(128,73,o),
(107,51,o),
(107,25,cs),
(107,7,o),
(120,-5,o),
(139,-5,cs)
);
},
{
closed = 1;
nodes = (
(149,45,l),
(162,45,o),
(169,35,o),
(169,22,cs),
(169,-21,o),
(123,-81,o),
(81,-89,c),
(82,-100,l),
(122,-92,o),
(198,-38,o),
(198,31,cs),
(198,57,o),
(182,73,o),
(154,73,c)
);
},
{
closed = 1;
nodes = (
(226,385,o),
(248,406,o),
(248,433,cs),
(248,451,o),
(235,463,o),
(215,463,cs),
(189,463,o),
(168,441,o),
(168,415,cs),
(168,397,o),
(180,385,o),
(200,385,cs)
);
}
);
width = 249;
},
{
.lastUpdate = 794326577.266;
layerId = m007;
shapes = (
{
closed = 1;
nodes = (
(171,-5,o),
(198,22,o),
(198,56,cs),
(198,79,o),
(183,94,o),
(158,94,cs),
(125,94,o),
(98,67,o),
(98,33,cs),
(98,10,o),
(114,-5,o),
(139,-5,cs)
);
},
{
closed = 1;
nodes = (
(151,58,l),
(166,58,o),
(175,46,o),
(175,27,cs),
(175,-42,o),
(103,-93,o),
(67,-101,c),
(68,-115,l),
(125,-101,o),
(212,-43,o),
(212,38,cs),
(212,72,o),
(192,94,o),
(158,94,c)
);
},
{
closed = 1;
nodes = (
(232,385,o),
(259,412,o),
(259,446,cs),
(259,469,o),
(243,484,o),
(219,484,cs),
(186,484,o),
(159,457,o),
(159,423,cs),
(159,400,o),
(174,385,o),
(199,385,cs)
);
}
);
width = 259;
},
{
.lastUpdate = 794326577.266;
layerId = m008;
shapes = (
{
closed = 1;
nodes = (
(181,-5,o),
(213,28,o),
(213,70,cs),
(213,98,o),
(194,116,o),
(163,116,cs),
(126,116,o),
(89,88,o),
(89,41,cs),
(89,13,o),
(107,-5,o),
(139,-5,cs)
);
},
{
closed = 1;
nodes = (
(154,73,l),
(172,73,o),
(183,57,o),
(183,32,cs),
(183,-48,o),
(102,-102,o),
(52,-114,c),
(54,-131,l),
(144,-107,o),
(229,-40,o),
(229,45,cs),
(229,88,o),
(205,116,o),
(163,116,c)
);
},
{
closed = 1;
nodes = (
(242,385,o),
(274,418,o),
(274,460,cs),
(274,488,o),
(255,506,o),
(224,506,cs),
(186,506,o),
(149,478,o),
(149,431,cs),
(149,403,o),
(168,385,o),
(200,385,cs)
);
}
);
width = 270;
},
{
.lastUpdate = 794326577.266;
layerId = m009;
shapes = (
{
closed = 1;
nodes = (
(187,-5,o),
(225,33,o),
(225,82,cs),
(225,115,o),
(203,136,o),
(166,136,cs),
(123,136,o),
(80,103,o),
(80,49,cs),
(80,16,o),
(102,-5,o),
(139,-5,cs)
);
},
{
closed = 1;
nodes = (
(157,86,l),
(180,86,o),
(193,67,o),
(193,37,cs),
(193,-42,o),
(119,-107,o),
(39,-128,c),
(41,-145,l),
(145,-117,o),
(240,-47,o),
(240,52,cs),
(240,103,o),
(213,136,o),
(166,136,c)
);
},
{
closed = 1;
nodes = (
(248,385,o),
(286,423,o),
(286,472,cs),
(286,505,o),
(264,526,o),
(227,526,cs),
(184,526,o),
(141,493,o),
(141,439,cs),
(141,406,o),
(163,385,o),
(200,385,cs)
);
}
);
width = 280;
},
{
.lastUpdate = 794326577.267;
layerId = m010;
shapes = (
{
closed = 1;
nodes = (
(193,-5,o),
(236,39,o),
(236,94,cs),
(236,131,o),
(211,155,o),
(170,155,cs),
(115,155,o),
(72,111,o),
(72,56,cs),
(72,19,o),
(97,-5,o),
(139,-5,cs)
);
},
{
closed = 1;
nodes = (
(159,97,l),
(185,97,o),
(200,75,o),
(200,40,cs),
(200,-49,o),
(116,-119,o),
(27,-143,c),
(29,-160,l),
(147,-127,o),
(253,-54,o),
(253,59,cs),
(253,118,o),
(222,155,o),
(170,155,c)
);
},
{
closed = 1;
nodes = (
(254,385,o),
(297,429,o),
(297,484,cs),
(297,521,o),
(272,545,o),
(231,545,cs),
(176,545,o),
(133,502,o),
(133,446,cs),
(133,409,o),
(158,385,o),
(200,385,cs)
);
}
);
width = 290;
}
);
note = semicolon;
unicode = 59;
},
{
glyphname = equal;
lastChange = "2026-03-04 14:16:17 +0000";
layers = (
{
.lastUpdate = 794326577.267;
layerId = "E059459B-5795-442B-8710-0018C46129BA";
shapes = (
{
closed = 1;
nodes = (
(79,288,l),
(449,288,l),
(449,312,l),
(79,312,l)
);
},
{
closed = 1;
nodes = (
(79,188,l),
(449,188,l),
(449,212,l),
(79,212,l)
);
}
);
width = 519;
},
{
.lastUpdate = 794326577.267;
layerId = "261B483D-14CB-4AC5-AE3A-41E540C8643C";
shapes = (
{
closed = 1;
nodes = (
(83,281,l),
(454,281,l),
(454,319,l),
(83,319,l)
);
},
{
closed = 1;
nodes = (
(83,181,l),
(454,181,l),
(454,219,l),
(83,219,l)
);
}
);
width = 524;
},
{
.lastUpdate = 794326577.267;
layerId = "B523A5AF-871D-4AB2-9BF1-E01A824009A4";
shapes = (
{
closed = 1;
nodes = (
(81,284,l),
(452,284,l),
(452,316,l),
(81,316,l)
);
},
{
closed = 1;
nodes = (
(81,184,l),
(452,184,l),
(452,216,l),
(81,216,l)
);
}
);
width = 521;
},
{
.lastUpdate = 794326577.267;
layerId = "D3C24151-4D63-4841-9665-5260E3226900";
shapes = (
{
closed = 1;
nodes = (
(86,278,l),
(456,278,l),
(456,322,l),
(86,322,l)
);
},
{
closed = 1;
nodes = (
(86,178,l),
(456,178,l),
(456,222,l),
(86,222,l)
);
}
);
width = 526;
},
{
.lastUpdate = 794326577.267;
layerId = "8EEC74F5-9CFA-47B4-A8F8-9A6461F2D63F";
shapes = (
{
closed = 1;
nodes = (
(88,274,l),
(459,274,l),
(459,326,l),
(88,326,l)
);
},
{
closed = 1;
nodes = (
(88,174,l),
(459,174,l),
(459,226,l),
(88,226,l)
);
}
);
width = 528;
},
{
.lastUpdate = 794326577.267;
layerId = m006;
shapes = (
{
closed = 1;
nodes = (
(135,288,l),
(505,288,l),
(510,312,l),
(140,312,l)
);
},
{
closed = 1;
nodes = (
(116,188,l),
(486,188,l),
(491,212,l),
(121,212,l)
);
}
);
width = 519;
},
{
.lastUpdate = 794326577.267;
layerId = m007;
shapes = (
{
closed = 1;
nodes = (
(136,284,l),
(507,284,l),
(514,316,l),
(143,316,l)
);
},
{
closed = 1;
nodes = (
(117,184,l),
(488,184,l),
(494,216,l),
(123,216,l)
);
}
);
width = 521;
},
{
.lastUpdate = 794326577.268;
layerId = m008;
shapes = (
{
closed = 1;
nodes = (
(137,281,l),
(508,281,l),
(516,319,l),
(145,319,l)
);
},
{
closed = 1;
nodes = (
(118,181,l),
(489,181,l),
(496,219,l),
(125,219,l)
);
}
);
width = 524;
},
{
.lastUpdate = 794326577.268;
layerId = m009;
shapes = (
{
closed = 1;
nodes = (
(140,278,l),
(510,278,l),
(519,322,l),
(149,322,l)
);
},
{
closed = 1;
nodes = (
(121,178,l),
(491,178,l),
(500,222,l),
(130,222,l)
);
}
);
width = 526;
},
{
.lastUpdate = 794326577.268;
layerId = m010;
shapes = (
{
closed = 1;
nodes = (
(141,274,l),
(512,274,l),
(523,326,l),
(152,326,l)
);
},
{
closed = 1;
nodes = (
(122,174,l),
(493,174,l),
(503,226,l),
(132,226,l)
);
}
);
width = 528;
}
);
note = equal;
unicode = 61;
},
{
glyphname = question;
lastChange = "2026-03-04 14:16:17 +0000";
layers = (
{
.lastUpdate = 794326577.268;
layerId = "E059459B-5795-442B-8710-0018C46129BA";
shapes = (
{
closed = 1;
nodes = (
(114,760,o),
(93,744,o),
(93,719,cs),
(93,703,o),
(105,692,o),
(123,692,cs),
(136,692,o),
(152,701,o),
(165,701,c),
(145,760,l)
);
},
{
closed = 1;
nodes = (
(125,360,l),
(211,360,o),
(245,396,o),
(282,451,cs),
(299,477,o),
(310,518,o),
(310,553,cs),
(310,677,o),
(244,760,o),
(145,760,c),
(165,701,l),
(242,701,o),
(294,639,o),
(294,547,cs),
(294,527,o),
(284,500,o),
(269,478,cs),
(244,441,o),
(215,416,o),
(106,416,c),
(112,180,l),
(122,180,l)
);
},
{
closed = 1;
nodes = (
(148,-5,o),
(164,11,o),
(164,34,cs),
(164,57,o),
(148,73,o),
(125,73,cs),
(102,73,o),
(86,57,o),
(86,34,cs),
(86,11,o),
(102,-5,o),
(125,-5,cs)
);
}
);
width = 303;
},
{
.lastUpdate = 794326577.268;
layerId = "261B483D-14CB-4AC5-AE3A-41E540C8643C";
shapes = (
{
closed = 1;
nodes = (
(96,760,o),
(64,735,o),
(64,696,cs),
(64,671,o),
(83,654,o),
(111,654,cs),
(131,654,o),
(156,669,o),
(176,669,c),
(145,760,l)
);
},
{
closed = 1;
nodes = (
(125,360,l),
(219,360,o),
(251,394,o),
(285,444,cs),
(303,470,o),
(315,515,o),
(315,555,cs),
(315,678,o),
(247,760,o),
(145,760,c),
(176,669,l),
(244,669,o),
(289,619,o),
(289,545,cs),
(289,530,o),
(280,506,o),
(266,485,cs),
(248,458,o),
(222,440,o),
(97,440,c),
(109,211,l),
(125,211,l)
);
},
{
closed = 1;
nodes = (
(162,-5,o),
(186,19,o),
(186,56,cs),
(186,92,o),
(162,116,o),
(125,116,cs),
(88,116,o),
(64,92,o),
(64,56,cs),
(64,19,o),
(88,-5,o),
(125,-5,cs)
);
}
);
width = 299;
},
{
.lastUpdate = 794326577.268;
layerId = "B523A5AF-871D-4AB2-9BF1-E01A824009A4";
shapes = (
{
closed = 1;
nodes = (
(105,760,o),
(79,739,o),
(79,708,cs),
(79,688,o),
(94,674,o),
(117,674,cs),
(134,674,o),
(153,686,o),
(170,686,c),
(145,760,l)
);
},
{
closed = 1;
nodes = (
(125,360,l),
(214,360,o),
(248,395,o),
(283,448,cs),
(301,474,o),
(312,516,o),
(312,554,cs),
(312,678,o),
(245,760,o),
(145,760,c),
(170,686,l),
(243,686,o),
(292,630,o),
(292,546,cs),
(292,529,o),
(282,503,o),
(268,481,cs),
(247,451,o),
(220,430,o),
(101,430,c),
(111,195,l),
(123,195,l)
);
},
{
closed = 1;
nodes = (
(154,-5,o),
(174,15,o),
(174,44,cs),
(174,74,o),
(154,94,o),
(125,94,cs),
(96,94,o),
(76,74,o),
(76,44,cs),
(76,15,o),
(96,-5,o),
(125,-5,cs)
);
}
);
width = 301;
},
{
.lastUpdate = 794326577.268;
layerId = "D3C24151-4D63-4841-9665-5260E3226900";
shapes = (
{
closed = 1;
nodes = (
(89,760,o),
(51,730,o),
(51,686,cs),
(51,657,o),
(73,637,o),
(105,637,cs),
(129,637,o),
(157,654,o),
(181,654,c),
(145,760,l)
);
},
{
closed = 1;
nodes = (
(125,360,l),
(221,360,o),
(254,392,o),
(287,441,cs),
(305,467,o),
(317,513,o),
(317,556,cs),
(317,678,o),
(248,760,o),
(145,760,c),
(181,654,l),
(245,654,o),
(287,610,o),
(287,544,cs),
(287,531,o),
(278,509,o),
(264,488,cs),
(245,459,o),
(219,440,o),
(97,440,c),
(108,225,l),
(126,225,l)
);
},
{
closed = 1;
nodes = (
(168,-5,o),
(196,23,o),
(196,66,cs),
(196,108,o),
(168,136,o),
(125,136,cs),
(82,136,o),
(54,108,o),
(54,66,cs),
(54,23,o),
(82,-5,o),
(125,-5,cs)
);
}
);
width = 297;
},
{
.lastUpdate = 794326577.268;
layerId = "8EEC74F5-9CFA-47B4-A8F8-9A6461F2D63F";
shapes = (
{
closed = 1;
nodes = (
(80,760,o),
(37,726,o),
(37,675,cs),
(37,641,o),
(62,618,o),
(99,618,cs),
(127,618,o),
(159,638,o),
(187,638,c),
(145,760,l)
);
},
{
closed = 1;
nodes = (
(125,360,l),
(225,360,o),
(257,391,o),
(288,437,cs),
(307,464,o),
(319,512,o),
(319,557,cs),
(319,679,o),
(249,760,o),
(145,760,c),
(187,638,l),
(246,638,o),
(285,600,o),
(285,543,cs),
(285,532,o),
(276,512,o),
(263,492,cs),
(242,461,o),
(215,440,o),
(97,440,c),
(107,240,l),
(127,240,l)
);
},
{
closed = 1;
nodes = (
(173,-5,o),
(205,27,o),
(205,75,cs),
(205,123,o),
(173,155,o),
(125,155,cs),
(77,155,o),
(45,123,o),
(45,75,cs),
(45,27,o),
(77,-5,o),
(125,-5,cs)
);
}
);
width = 295;
},
{
.lastUpdate = 794326577.268;
layerId = m006;
shapes = (
{
closed = 1;
nodes = (
(258,760,o),
(232,738,o),
(232,713,cs),
(232,700,o),
(243,692,o),
(258,692,cs),
(271,692,o),
(289,701,o),
(302,701,c),
(293,760,l)
);
},
{
closed = 1;
nodes = (
(195,360,l),
(282,360,o),
(324,398,o),
(369,450,cs),
(400,486,o),
(424,548,o),
(424,612,cs),
(424,702,o),
(376,760,o),
(293,760,c),
(302,701,l),
(367,701,o),
(405,656,o),
(405,589,cs),
(405,534,o),
(383,502,o),
(362,478,cs),
(330,441,o),
(296,416,o),
(187,416,c),
(147,180,l),
(157,180,l)
);
},
{
closed = 1;
nodes = (
(151,-5,o),
(172,17,o),
(172,43,cs),
(172,61,o),
(159,73,o),
(139,73,cs),
(113,73,o),
(92,51,o),
(92,25,cs),
(92,7,o),
(105,-5,o),
(124,-5,cs)
);
}
);
width = 303;
},
{
.lastUpdate = 794326577.268;
layerId = m007;
shapes = (
{
closed = 1;
nodes = (
(247,760,o),
(215,732,o),
(215,701,cs),
(215,685,o),
(227,674,o),
(248,674,cs),
(265,674,o),
(286,686,o),
(303,686,c),
(292,760,l)
);
},
{
closed = 1;
nodes = (
(195,360,l),
(285,360,o),
(326,397,o),
(370,448,cs),
(402,485,o),
(425,552,o),
(425,612,cs),
(425,703,o),
(376,760,o),
(292,760,c),
(303,686,l),
(364,686,o),
(401,646,o),
(401,583,cs),
(401,540,o),
(384,508,o),
(361,481,cs),
(336,452,o),
(304,430,o),
(184,430,c),
(148,195,l),
(160,195,l)
);
},
{
closed = 1;
nodes = (
(156,-5,o),
(183,22,o),
(183,56,cs),
(183,79,o),
(168,94,o),
(143,94,cs),
(110,94,o),
(83,67,o),
(83,33,cs),
(83,10,o),
(99,-5,o),
(124,-5,cs)
);
}
);
width = 301;
},
{
.lastUpdate = 794326577.268;
layerId = m008;
shapes = (
{
closed = 1;
nodes = (
(237,760,o),
(198,726,o),
(198,687,cs),
(198,667,o),
(214,654,o),
(238,654,cs),
(258,654,o),
(286,669,o),
(306,669,c),
(292,760,l)
);
},
{
closed = 1;
nodes = (
(195,360,l),
(289,360,o),
(327,394,o),
(371,444,cs),
(401,478,o),
(428,547,o),
(428,611,cs),
(428,702,o),
(378,760,o),
(292,760,c),
(306,669,l),
(364,669,o),
(398,632,o),
(398,576,cs),
(398,542,o),
(386,515,o),
(360,485,cs),
(337,458,o),
(306,440,o),
(182,440,c),
(150,211,l),
(166,211,l)
);
},
{
closed = 1;
nodes = (
(165,-5,o),
(198,28,o),
(198,70,cs),
(198,98,o),
(179,116,o),
(147,116,cs),
(110,116,o),
(73,88,o),
(73,41,cs),
(73,13,o),
(91,-5,o),
(124,-5,cs)
);
}
);
width = 299;
},
{
.lastUpdate = 794326577.268;
layerId = m009;
shapes = (
{
closed = 1;
nodes = (
(230,760,o),
(183,721,o),
(183,676,cs),
(183,652,o),
(201,637,o),
(229,637,cs),
(253,637,o),
(284,654,o),
(308,654,c),
(293,760,l)
);
},
{
closed = 1;
nodes = (
(195,360,l),
(288,360,o),
(328,390,o),
(372,440,cs),
(401,473,o),
(431,543,o),
(431,611,cs),
(431,702,o),
(379,760,o),
(293,760,c),
(308,654,l),
(363,654,o),
(395,621,o),
(395,571,cs),
(395,543,o),
(387,521,o),
(358,487,cs),
(333,458,o),
(301,440,o),
(182,440,c),
(152,225,l),
(170,225,l)
);
},
{
closed = 1;
nodes = (
(172,-5,o),
(210,33,o),
(210,82,cs),
(210,115,o),
(188,136,o),
(151,136,cs),
(108,136,o),
(65,103,o),
(65,49,cs),
(65,16,o),
(87,-5,o),
(124,-5,cs)
);
}
);
width = 297;
},
{
.lastUpdate = 794326577.269;
layerId = m010;
shapes = (
{
closed = 1;
nodes = (
(222,760,o),
(167,716,o),
(167,663,cs),
(167,636,o),
(187,618,o),
(219,618,cs),
(247,618,o),
(283,638,o),
(311,638,c),
(293,760,l)
);
},
{
closed = 1;
nodes = (
(195,360,l),
(296,360,o),
(337,393,o),
(376,440,cs),
(405,475,o),
(433,547,o),
(433,611,cs),
(433,702,o),
(381,760,o),
(293,760,c),
(311,638,l),
(363,638,o),
(393,609,o),
(393,565,cs),
(393,540,o),
(384,521,o),
(359,492,cs),
(332,461,o),
(301,440,o),
(183,440,c),
(154,240,l),
(174,240,l)
);
},
{
closed = 1;
nodes = (
(179,-5,o),
(222,39,o),
(222,94,cs),
(222,131,o),
(197,155,o),
(155,155,cs),
(101,155,o),
(58,111,o),
(58,56,cs),
(58,19,o),
(83,-5,o),
(124,-5,cs)
);
}
);
width = 295;
}
);
note = question;
unicode = 63;
},
{
glyphname = arobase;
lastChange = "2026-03-04 14:16:17 +0000";
layers = (
{
.lastUpdate = 794326577.269;
layerId = "E059459B-5795-442B-8710-0018C46129BA";
shapes = (
{
closed = 1;
nodes = (
(963,-143,o),
(781,-238,o),
(573,-238,cs),
(288,-238,o),
(98,-39,o),
(98,259,cs),
(98,557,o),
(285,756,o),
(565,756,cs),
(844,756,o),
(1031,591,o),
(1031,343,cs),
(1031,140,o),
(955,5,o),
(841,5,cs),
(726,5,o),
(669,83,o),
(698,200,cs),
(768,480,l),
(716,480,l),
(646,200,ls),
(613,72,o),
(687,-14,o),
(831,-14,cs),
(977,-14,o),
(1074,129,o),
(1074,343,cs),
(1074,600,o),
(870,772,o),
(565,772,cs),
(259,772,o),
(55,567,o),
(55,259,cs),
(55,-49,o),
(262,-254,o),
(573,-254,cs),
(787,-254,o),
(977,-152,o),
(1048,0,c),
(1030,0,l)
);
},
{
closed = 1;
nodes = (
(696,437,o),
(645,490,o),
(569,490,cs),
(404,490,o),
(293,372,o),
(293,196,cs),
(293,86,o),
(361,12,o),
(462,12,cs),
(554,12,o),
(632,82,o),
(658,186,c),
(646,200,l),
(622,106,o),
(560,43,o),
(491,43,cs),
(409,43,o),
(354,109,o),
(354,207,cs),
(354,368,o),
(440,475,o),
(568,475,cs),
(638,475,o),
(684,427,o),
(684,355,c),
(696,358,l)
);
}
);
width = 1128;
},
{
.lastUpdate = 794326577.269;
layerId = "261B483D-14CB-4AC5-AE3A-41E540C8643C";
shapes = (
{
closed = 1;
nodes = (
(961,-142,o),
(786,-236,o),
(589,-236,cs),
(309,-236,o),
(122,-38,o),
(122,259,cs),
(122,556,o),
(303,754,o),
(574,754,cs),
(844,754,o),
(1025,590,o),
(1025,343,cs),
(1025,141,o),
(952,7,o),
(844,7,cs),
(750,7,o),
(706,84,o),
(736,200,cs),
(806,480,l),
(724,480,l),
(654,200,ls),
(621,67,o),
(691,-22,o),
(828,-22,cs),
(986,-22,o),
(1092,124,o),
(1092,343,cs),
(1092,604,o),
(885,778,o),
(574,778,cs),
(262,778,o),
(55,570,o),
(55,259,cs),
(55,-52,o),
(269,-260,o),
(589,-260,cs),
(797,-260,o),
(983,-156,o),
(1056,0,c),
(1028,0,l)
);
},
{
closed = 1;
nodes = (
(712,438,o),
(659,490,o),
(578,490,cs),
(402,490,o),
(285,371,o),
(285,192,cs),
(285,82,o),
(355,8,o),
(459,8,cs),
(562,8,o),
(648,76,o),
(673,178,c),
(654,200,l),
(633,114,o),
(572,56,o),
(503,56,cs),
(429,56,o),
(379,117,o),
(379,208,cs),
(379,363,o),
(458,466,o),
(576,466,cs),
(646,466,o),
(693,422,o),
(693,355,c),
(712,360,l)
);
}
);
width = 1146;
},
{
.lastUpdate = 794326577.269;
layerId = "B523A5AF-871D-4AB2-9BF1-E01A824009A4";
shapes = (
{
closed = 1;
nodes = (
(962,-142,o),
(783,-237,o),
(581,-237,cs),
(298,-237,o),
(110,-39,o),
(110,259,cs),
(110,557,o),
(294,755,o),
(569,755,cs),
(844,755,o),
(1028,590,o),
(1028,343,cs),
(1028,141,o),
(954,6,o),
(842,6,cs),
(737,6,o),
(687,84,o),
(716,200,cs),
(786,480,l),
(720,480,l),
(650,200,ls),
(617,69,o),
(689,-18,o),
(829,-18,cs),
(981,-18,o),
(1082,126,o),
(1082,343,cs),
(1082,602,o),
(877,775,o),
(569,775,cs),
(261,775,o),
(55,569,o),
(55,259,cs),
(55,-51,o),
(265,-257,o),
(581,-257,cs),
(792,-257,o),
(980,-154,o),
(1052,0,c),
(1029,0,l)
);
},
{
closed = 1;
nodes = (
(704,438,o),
(652,490,o),
(574,490,cs),
(403,490,o),
(289,372,o),
(289,194,cs),
(289,84,o),
(358,10,o),
(461,10,cs),
(557,10,o),
(639,79,o),
(665,183,c),
(650,200,l),
(627,109,o),
(566,49,o),
(497,49,cs),
(418,49,o),
(366,112,o),
(366,208,cs),
(366,366,o),
(448,471,o),
(572,471,cs),
(642,471,o),
(689,425,o),
(689,355,c),
(704,359,l)
);
}
);
width = 1137;
},
{
.lastUpdate = 794326577.269;
layerId = "D3C24151-4D63-4841-9665-5260E3226900";
shapes = (
{
closed = 1;
nodes = (
(961,-141,o),
(789,-235,o),
(597,-235,cs),
(318,-235,o),
(133,-37,o),
(133,259,cs),
(133,555,o),
(311,753,o),
(578,753,cs),
(844,753,o),
(1022,589,o),
(1022,343,cs),
(1022,143,o),
(951,9,o),
(845,9,cs),
(761,9,o),
(724,85,o),
(753,200,cs),
(823,480,l),
(729,480,l),
(659,200,ls),
(625,64,o),
(692,-26,o),
(827,-26,cs),
(991,-26,o),
(1100,122,o),
(1100,343,cs),
(1100,606,o),
(891,781,o),
(578,781,cs),
(265,781,o),
(56,572,o),
(56,259,cs),
(56,-54,o),
(272,-263,o),
(597,-263,cs),
(801,-263,o),
(986,-158,o),
(1060,0,c),
(1026,0,l)
);
},
{
closed = 1;
nodes = (
(719,438,o),
(664,490,o),
(583,490,cs),
(402,490,o),
(282,370,o),
(282,190,cs),
(282,80,o),
(352,6,o),
(457,6,cs),
(566,6,o),
(655,73,o),
(680,175,c),
(659,200,l),
(638,117,o),
(578,61,o),
(509,61,cs),
(438,61,o),
(391,120,o),
(391,209,cs),
(391,361,o),
(467,462,o),
(580,462,cs),
(650,462,o),
(697,419,o),
(697,355,c),
(719,361,l)
);
}
);
width = 1155;
},
{
.lastUpdate = 794326577.269;
layerId = "8EEC74F5-9CFA-47B4-A8F8-9A6461F2D63F";
shapes = (
{
closed = 1;
nodes = (
(960,-140,o),
(791,-234,o),
(604,-234,cs),
(329,-234,o),
(145,-37,o),
(145,259,cs),
(145,555,o),
(320,752,o),
(582,752,cs),
(844,752,o),
(1019,588,o),
(1019,343,cs),
(1019,143,o),
(950,10,o),
(847,10,cs),
(773,10,o),
(743,86,o),
(772,200,cs),
(842,480,l),
(733,480,l),
(663,200,ls),
(629,62,o),
(694,-30,o),
(826,-30,cs),
(996,-30,o),
(1109,119,o),
(1109,343,cs),
(1109,608,o),
(898,784,o),
(582,784,cs),
(267,784,o),
(56,574,o),
(56,259,cs),
(56,-56,o),
(275,-266,o),
(604,-266,cs),
(806,-266,o),
(989,-160,o),
(1064,0,c),
(1025,0,l)
);
},
{
closed = 1;
nodes = (
(726,439,o),
(670,490,o),
(587,490,cs),
(402,490,o),
(278,369,o),
(278,188,cs),
(278,77,o),
(349,4,o),
(456,4,cs),
(570,4,o),
(663,71,o),
(687,170,c),
(663,200,l),
(643,121,o),
(584,68,o),
(515,68,cs),
(448,68,o),
(404,125,o),
(404,210,cs),
(404,359,o),
(476,458,o),
(584,458,cs),
(655,458,o),
(702,417,o),
(702,355,c),
(726,362,l)
);
}
);
width = 1163;
},
{
.lastUpdate = 794326577.269;
layerId = m006;
shapes = (
{
closed = 1;
nodes = (
(935,-143,o),
(735,-238,o),
(526,-238,cs),
(282,-238,o),
(136,-91,o),
(136,138,cs),
(136,481,o),
(393,756,o),
(712,756,cs),
(957,756,o),
(1106,628,o),
(1106,430,cs),
(1106,220,o),
(973,5,o),
(842,5,cs),
(726,5,o),
(685,84,o),
(737,201,cs),
(861,480,l),
(809,480,l),
(684,199,ls),
(627,71,o),
(685,-14,o),
(828,-14,cs),
(994,-14,o),
(1149,200,o),
(1149,429,cs),
(1149,638,o),
(984,772,o),
(715,772,cs),
(368,772,o),
(93,493,o),
(93,140,cs),
(93,-101,o),
(255,-254,o),
(523,-254,cs),
(739,-254,o),
(948,-151,o),
(1048,0,c),
(1030,0,l)
);
},
{
closed = 1;
nodes = (
(780,437,o),
(740,490,o),
(664,490,cs),
(485,490,o),
(326,331,o),
(326,150,cs),
(326,66,o),
(378,12,o),
(464,12,cs),
(556,12,o),
(648,82,o),
(694,186,c),
(685,200,l),
(643,107,o),
(569,43,o),
(499,43,cs),
(430,43,o),
(389,90,o),
(389,163,cs),
(389,324,o),
(520,475,o),
(660,475,cs),
(730,475,o),
(767,427,o),
(753,355,c),
(765,358,l)
);
}
);
width = 1128;
},
{
.lastUpdate = 794326577.27;
layerId = m007;
shapes = (
{
closed = 1;
nodes = (
(935,-141,o),
(738,-237,o),
(535,-237,cs),
(293,-237,o),
(148,-92,o),
(148,137,cs),
(148,479,o),
(401,755,o),
(715,755,cs),
(956,755,o),
(1103,628,o),
(1103,430,cs),
(1103,220,o),
(971,6,o),
(843,6,cs),
(738,6,o),
(703,84,o),
(755,201,cs),
(879,480,l),
(813,480,l),
(688,199,ls),
(630,69,o),
(685,-18,o),
(825,-18,cs),
(998,-18,o),
(1157,196,o),
(1157,430,cs),
(1157,640,o),
(991,775,o),
(719,775,cs),
(370,775,o),
(93,494,o),
(93,140,cs),
(93,-102,o),
(257,-257,o),
(531,-257,cs),
(742,-257,o),
(950,-154,o),
(1052,0,c),
(1029,0,l)
);
},
{
closed = 1;
nodes = (
(788,438,o),
(747,490,o),
(669,490,cs),
(463,490,o),
(322,310,o),
(322,149,cs),
(322,64,o),
(375,10,o),
(463,10,cs),
(558,10,o),
(654,79,o),
(700,183,c),
(689,200,l),
(648,109,o),
(576,49,o),
(506,49,cs),
(441,49,o),
(402,93,o),
(402,164,cs),
(402,322,o),
(528,471,o),
(663,471,cs),
(733,471,o),
(772,425,o),
(758,355,c),
(773,359,l)
);
}
);
width = 1137;
},
{
.lastUpdate = 794326577.27;
layerId = m008;
shapes = (
{
closed = 1;
nodes = (
(934,-141,o),
(741,-236,o),
(543,-236,cs),
(304,-236,o),
(160,-91,o),
(160,137,cs),
(160,478,o),
(411,754,o),
(720,754,cs),
(957,754,o),
(1100,628,o),
(1100,431,cs),
(1100,223,o),
(970,7,o),
(845,7,cs),
(751,7,o),
(722,84,o),
(774,200,cs),
(899,480,l),
(817,480,l),
(693,201,ls),
(633,66,o),
(687,-22,o),
(823,-22,cs),
(1003,-22,o),
(1167,193,o),
(1167,430,cs),
(1167,642,o),
(1000,778,o),
(725,778,cs),
(372,778,o),
(93,496,o),
(93,141,cs),
(93,-103,o),
(260,-260,o),
(538,-260,cs),
(745,-260,o),
(952,-157,o),
(1056,0,c),
(1028,0,l)
);
},
{
closed = 1;
nodes = (
(797,438,o),
(754,490,o),
(673,490,cs),
(462,490,o),
(317,310,o),
(317,147,cs),
(317,62,o),
(371,8,o),
(460,8,cs),
(563,8,o),
(662,76,o),
(707,178,c),
(692,200,l),
(654,113,o),
(581,56,o),
(513,56,cs),
(452,56,o),
(415,99,o),
(415,166,cs),
(415,320,o),
(538,466,o),
(666,466,cs),
(736,466,o),
(775,422,o),
(762,355,c),
(782,360,l)
);
}
);
width = 1146;
},
{
.lastUpdate = 794326577.27;
layerId = m009;
shapes = (
{
closed = 1;
nodes = (
(933,-142,o),
(742,-235,o),
(551,-235,cs),
(313,-235,o),
(171,-90,o),
(171,137,cs),
(171,476,o),
(419,753,o),
(724,753,cs),
(956,753,o),
(1097,628,o),
(1097,432,cs),
(1097,226,o),
(969,9,o),
(846,9,cs),
(763,9,o),
(740,84,o),
(791,199,cs),
(916,480,l),
(822,480,l),
(697,199,ls),
(637,64,o),
(686,-26,o),
(822,-26,cs),
(1008,-26,o),
(1175,191,o),
(1175,431,cs),
(1175,644,o),
(1006,781,o),
(729,781,cs),
(375,781,o),
(94,497,o),
(94,141,cs),
(94,-105,o),
(263,-263,o),
(545,-263,cs),
(750,-263,o),
(955,-158,o),
(1060,0,c),
(1026,0,l)
);
},
{
closed = 1;
nodes = (
(804,438,o),
(759,490,o),
(678,490,cs),
(462,490,o),
(314,310,o),
(314,145,cs),
(314,60,o),
(368,6,o),
(458,6,cs),
(567,6,o),
(669,73,o),
(714,175,c),
(697,200,l),
(660,117,o),
(589,61,o),
(520,61,cs),
(461,61,o),
(427,103,o),
(427,167,cs),
(427,317,o),
(546,462,o),
(669,462,cs),
(740,462,o),
(778,419,o),
(766,355,c),
(789,361,l)
);
}
);
width = 1155;
},
{
.lastUpdate = 794326577.271;
layerId = m010;
shapes = (
{
closed = 1;
nodes = (
(932,-141,o),
(744,-234,o),
(558,-234,cs),
(324,-234,o),
(183,-90,o),
(183,136,cs),
(183,474,o),
(428,752,o),
(728,752,cs),
(956,752,o),
(1094,627,o),
(1094,433,cs),
(1094,227,o),
(968,10,o),
(849,10,cs),
(774,10,o),
(760,87,o),
(809,197,cs),
(935,480,l),
(826,480,l),
(702,201,ls),
(641,64,o),
(686,-30,o),
(820,-30,cs),
(1013,-30,o),
(1184,187,o),
(1184,431,cs),
(1184,646,o),
(1014,784,o),
(734,784,cs),
(378,784,o),
(94,499,o),
(94,141,cs),
(94,-107,o),
(266,-266,o),
(552,-266,cs),
(754,-266,o),
(958,-160,o),
(1064,0,c),
(1025,0,l)
);
},
{
closed = 1;
nodes = (
(811,439,o),
(765,490,o),
(682,490,cs),
(463,490,o),
(310,311,o),
(310,143,cs),
(310,58,o),
(365,4,o),
(456,4,cs),
(570,4,o),
(677,71,o),
(720,170,c),
(701,200,l),
(666,121,o),
(596,68,o),
(528,68,cs),
(472,68,o),
(440,108,o),
(440,169,cs),
(440,315,o),
(555,458,o),
(673,458,cs),
(744,458,o),
(783,417,o),
(771,355,c),
(796,362,l)
);
}
);
width = 1163;
}
);
note = arobase;
unicode = 64;
},
{
glyphname = bracketleft;
lastChange = "2026-03-04 14:16:17 +0000";
layers = (
{
.lastUpdate = 794326577.271;
layerId = "E059459B-5795-442B-8710-0018C46129BA";
shapes = (
{
closed = 1;
nodes = (
(107,-195,l),
(137,-195,l),
(137,750,l),
(107,750,l)
);
},
{
closed = 1;
nodes = (
(127,734,l),
(337,734,l),
(337,750,l),
(127,750,l)
);
},
{
closed = 1;
nodes = (
(127,-195,l),
(337,-195,l),
(337,-179,l),
(127,-179,l)
);
}
);
width = 286;
},
{
.lastUpdate = 794326577.271;
layerId = "261B483D-14CB-4AC5-AE3A-41E540C8643C";
shapes = (
{
closed = 1;
nodes = (
(104,-195,l),
(145,-195,l),
(145,750,l),
(104,750,l)
);
},
{
closed = 1;
nodes = (
(135,725,l),
(345,725,l),
(345,750,l),
(135,750,l)
);
},
{
closed = 1;
nodes = (
(135,-195,l),
(345,-195,l),
(345,-170,l),
(135,-170,l)
);
}
);
width = 294;
},
{
.lastUpdate = 794326577.271;
layerId = "B523A5AF-871D-4AB2-9BF1-E01A824009A4";
shapes = (
{
closed = 1;
nodes = (
(106,-195,l),
(141,-195,l),
(141,750,l),
(106,750,l)
);
},
{
closed = 1;
nodes = (
(131,729,l),
(341,729,l),
(341,750,l),
(131,750,l)
);
},
{
closed = 1;
nodes = (
(131,-195,l),
(341,-195,l),
(341,-174,l),
(131,-174,l)
);
}
);
width = 290;
},
{
.lastUpdate = 794326577.271;
layerId = "D3C24151-4D63-4841-9665-5260E3226900";
shapes = (
{
closed = 1;
nodes = (
(103,-195,l),
(148,-195,l),
(148,750,l),
(103,750,l)
);
},
{
closed = 1;
nodes = (
(138,721,l),
(348,721,l),
(348,750,l),
(138,750,l)
);
},
{
closed = 1;
nodes = (
(138,-195,l),
(348,-195,l),
(348,-166,l),
(138,-166,l)
);
}
);
width = 298;
},
{
.lastUpdate = 794326577.271;
layerId = "8EEC74F5-9CFA-47B4-A8F8-9A6461F2D63F";
shapes = (
{
closed = 1;
nodes = (
(102,-195,l),
(152,-195,l),
(152,750,l),
(102,750,l)
);
},
{
closed = 1;
nodes = (
(142,716,l),
(352,716,l),
(352,750,l),
(142,750,l)
);
},
{
closed = 1;
nodes = (
(142,-195,l),
(352,-195,l),
(352,-161,l),
(142,-161,l)
);
}
);
width = 302;
},
{
.lastUpdate = 794326577.271;
layerId = m006;
shapes = (
{
closed = 1;
nodes = (
(69,-195,l),
(99,-195,l),
(283,750,l),
(253,750,l)
);
},
{
closed = 1;
nodes = (
(270,734,l),
(480,734,l),
(483,750,l),
(273,750,l)
);
},
{
closed = 1;
nodes = (
(89,-195,l),
(299,-195,l),
(302,-179,l),
(92,-179,l)
);
}
);
width = 286;
},
{
.lastUpdate = 794326577.271;
layerId = m007;
shapes = (
{
closed = 1;
nodes = (
(68,-195,l),
(103,-195,l),
(287,750,l),
(252,750,l)
);
},
{
closed = 1;
nodes = (
(273,729,l),
(483,729,l),
(487,750,l),
(277,750,l)
);
},
{
closed = 1;
nodes = (
(93,-195,l),
(303,-195,l),
(307,-174,l),
(97,-174,l)
);
}
);
width = 290;
},
{
.lastUpdate = 794326577.271;
layerId = m008;
shapes = (
{
closed = 1;
nodes = (
(66,-195,l),
(107,-195,l),
(291,750,l),
(250,750,l)
);
},
{
closed = 1;
nodes = (
(276,725,l),
(486,725,l),
(491,750,l),
(281,750,l)
);
},
{
closed = 1;
nodes = (
(97,-195,l),
(307,-195,l),
(312,-170,l),
(102,-170,l)
);
}
);
width = 294;
},
{
.lastUpdate = 794326577.271;
layerId = m009;
shapes = (
{
closed = 1;
nodes = (
(65,-195,l),
(110,-195,l),
(294,750,l),
(249,750,l)
);
},
{
closed = 1;
nodes = (
(278,721,l),
(488,721,l),
(494,750,l),
(284,750,l)
);
},
{
closed = 1;
nodes = (
(100,-195,l),
(310,-195,l),
(316,-166,l),
(106,-166,l)
);
}
);
width = 298;
},
{
.lastUpdate = 794326577.271;
layerId = m010;
shapes = (
{
closed = 1;
nodes = (
(64,-195,l),
(114,-195,l),
(298,750,l),
(248,750,l)
);
},
{
closed = 1;
nodes = (
(281,716,l),
(491,716,l),
(498,750,l),
(288,750,l)
);
},
{
closed = 1;
nodes = (
(104,-195,l),
(314,-195,l),
(321,-161,l),
(111,-161,l)
);
}
);
width = 302;
}
);
note = bracketleft;
unicode = 91;
},
{
glyphname = backslash;
lastChange = "2026-03-04 14:16:17 +0000";
layers = (
{
.lastUpdate = 794326577.271;
layerId = "E059459B-5795-442B-8710-0018C46129BA";
shapes = (
{
closed = 1;
nodes = (
(296,-80,l),
(328,-80,l),
(68,770,l),
(36,770,l)
);
}
);
width = 338;
},
{
.lastUpdate = 794326577.272;
layerId = "261B483D-14CB-4AC5-AE3A-41E540C8643C";
shapes = (
{
closed = 1;
nodes = (
(287,-80,l),
(337,-80,l),
(77,770,l),
(27,770,l)
);
}
);
width = 347;
},
{
.lastUpdate = 794326577.272;
layerId = "B523A5AF-871D-4AB2-9BF1-E01A824009A4";
shapes = (
{
closed = 1;
nodes = (
(291,-80,l),
(333,-80,l),
(73,770,l),
(31,770,l)
);
}
);
width = 342;
},
{
.lastUpdate = 794326577.272;
layerId = "D3C24151-4D63-4841-9665-5260E3226900";
shapes = (
{
closed = 1;
nodes = (
(283,-80,l),
(341,-80,l),
(81,770,l),
(23,770,l)
);
}
);
width = 351;
},
{
.lastUpdate = 794326577.272;
layerId = "8EEC74F5-9CFA-47B4-A8F8-9A6461F2D63F";
shapes = (
{
closed = 1;
nodes = (
(278,-80,l),
(346,-80,l),
(86,770,l),
(18,770,l)
);
}
);
width = 355;
},
{
.lastUpdate = 794326577.272;
layerId = m006;
shapes = (
{
closed = 1;
nodes = (
(281,-80,l),
(313,-80,l),
(218,770,l),
(186,770,l)
);
}
);
width = 338;
},
{
.lastUpdate = 794326577.272;
layerId = m007;
shapes = (
{
closed = 1;
nodes = (
(276,-80,l),
(318,-80,l),
(223,770,l),
(181,770,l)
);
}
);
width = 342;
},
{
.lastUpdate = 794326577.272;
layerId = m008;
shapes = (
{
closed = 1;
nodes = (
(272,-80,l),
(322,-80,l),
(227,770,l),
(177,770,l)
);
}
);
width = 347;
},
{
.lastUpdate = 794326577.272;
layerId = m009;
shapes = (
{
closed = 1;
nodes = (
(268,-80,l),
(326,-80,l),
(231,770,l),
(173,770,l)
);
}
);
width = 351;
},
{
.lastUpdate = 794326577.272;
layerId = m010;
shapes = (
{
closed = 1;
nodes = (
(263,-80,l),
(331,-80,l),
(236,770,l),
(168,770,l)
);
}
);
width = 355;
}
);
note = backslash;
unicode = 92;
},
{
glyphname = bracketright;
lastChange = "2026-03-04 14:16:17 +0000";
layers = (
{
.lastUpdate = 794326577.272;
layerId = "E059459B-5795-442B-8710-0018C46129BA";
shapes = (
{
closed = 1;
nodes = (
(150,-195,l),
(180,-195,l),
(180,750,l),
(150,750,l)
);
},
{
closed = 1;
nodes = (
(-50,750,l),
(-50,734,l),
(160,734,l),
(160,750,l)
);
},
{
closed = 1;
nodes = (
(-50,-179,l),
(-50,-195,l),
(160,-195,l),
(160,-179,l)
);
}
);
width = 289;
},
{
.lastUpdate = 794326577.272;
layerId = "261B483D-14CB-4AC5-AE3A-41E540C8643C";
shapes = (
{
closed = 1;
nodes = (
(147,-195,l),
(188,-195,l),
(188,750,l),
(147,750,l)
);
},
{
closed = 1;
nodes = (
(-53,750,l),
(-53,725,l),
(157,725,l),
(157,750,l)
);
},
{
closed = 1;
nodes = (
(-53,-170,l),
(-53,-195,l),
(157,-195,l),
(157,-170,l)
);
}
);
width = 297;
},
{
.lastUpdate = 794326577.272;
layerId = "B523A5AF-871D-4AB2-9BF1-E01A824009A4";
shapes = (
{
closed = 1;
nodes = (
(149,-195,l),
(184,-195,l),
(184,750,l),
(149,750,l)
);
},
{
closed = 1;
nodes = (
(-51,750,l),
(-51,729,l),
(159,729,l),
(159,750,l)
);
},
{
closed = 1;
nodes = (
(-51,-174,l),
(-51,-195,l),
(159,-195,l),
(159,-174,l)
);
}
);
width = 293;
},
{
.lastUpdate = 794326577.272;
layerId = "D3C24151-4D63-4841-9665-5260E3226900";
shapes = (
{
closed = 1;
nodes = (
(146,-195,l),
(191,-195,l),
(191,750,l),
(146,750,l)
);
},
{
closed = 1;
nodes = (
(-54,750,l),
(-54,721,l),
(156,721,l),
(156,750,l)
);
},
{
closed = 1;
nodes = (
(-54,-166,l),
(-54,-195,l),
(156,-195,l),
(156,-166,l)
);
}
);
width = 301;
},
{
.lastUpdate = 794326577.272;
layerId = "8EEC74F5-9CFA-47B4-A8F8-9A6461F2D63F";
shapes = (
{
closed = 1;
nodes = (
(145,-195,l),
(195,-195,l),
(195,750,l),
(145,750,l)
);
},
{
closed = 1;
nodes = (
(-55,750,l),
(-55,716,l),
(155,716,l),
(155,750,l)
);
},
{
closed = 1;
nodes = (
(-55,-161,l),
(-55,-195,l),
(155,-195,l),
(155,-161,l)
);
}
);
width = 305;
},
{
.lastUpdate = 794326577.272;
layerId = m006;
shapes = (
{
closed = 1;
nodes = (
(112,-195,l),
(142,-195,l),
(326,750,l),
(296,750,l)
);
},
{
closed = 1;
nodes = (
(96,750,l),
(93,734,l),
(303,734,l),
(306,750,l)
);
},
{
closed = 1;
nodes = (
(-85,-179,l),
(-88,-195,l),
(122,-195,l),
(125,-179,l)
);
}
);
width = 289;
},
{
.lastUpdate = 794326577.272;
layerId = m007;
shapes = (
{
closed = 1;
nodes = (
(111,-195,l),
(146,-195,l),
(330,750,l),
(295,750,l)
);
},
{
closed = 1;
nodes = (
(95,750,l),
(91,729,l),
(301,729,l),
(305,750,l)
);
},
{
closed = 1;
nodes = (
(-85,-174,l),
(-89,-195,l),
(121,-195,l),
(125,-174,l)
);
}
);
width = 293;
},
{
.lastUpdate = 794326577.273;
layerId = m008;
shapes = (
{
closed = 1;
nodes = (
(109,-195,l),
(150,-195,l),
(334,750,l),
(293,750,l)
);
},
{
closed = 1;
nodes = (
(93,750,l),
(88,725,l),
(298,725,l),
(303,750,l)
);
},
{
closed = 1;
nodes = (
(-86,-170,l),
(-91,-195,l),
(119,-195,l),
(124,-170,l)
);
}
);
width = 297;
},
{
.lastUpdate = 794326577.273;
layerId = m009;
shapes = (
{
closed = 1;
nodes = (
(108,-195,l),
(153,-195,l),
(337,750,l),
(292,750,l)
);
},
{
closed = 1;
nodes = (
(92,750,l),
(86,721,l),
(296,721,l),
(302,750,l)
);
},
{
closed = 1;
nodes = (
(-86,-166,l),
(-92,-195,l),
(118,-195,l),
(124,-166,l)
);
}
);
width = 301;
},
{
.lastUpdate = 794326577.273;
layerId = m010;
shapes = (
{
closed = 1;
nodes = (
(107,-195,l),
(157,-195,l),
(341,750,l),
(291,750,l)
);
},
{
closed = 1;
nodes = (
(91,750,l),
(84,716,l),
(294,716,l),
(301,750,l)
);
},
{
closed = 1;
nodes = (
(-86,-161,l),
(-93,-195,l),
(117,-195,l),
(124,-161,l)
);
}
);
width = 305;
}
);
note = bracketright;
unicode = 93;
},
{
glyphname = asciicircum;
lastChange = "2026-03-04 14:16:17 +0000";
layers = (
{
.lastUpdate = 794326577.273;
layerId = "E059459B-5795-442B-8710-0018C46129BA";
shapes = (
{
closed = 1;
nodes = (
(184,743,l),
(184,763,l),
(180,769,o),
(170,783,o),
(164,783,cs),
(159,783,o),
(149,769,o),
(145,763,c),
(145,744,l)
);
},
{
closed = 1;
nodes = (
(145,763,l),
(15,563,l),
(22,557,l),
(184,743,l)
);
},
{
closed = 1;
nodes = (
(314,563,l),
(184,763,l),
(145,744,l),
(306,557,l)
);
}
);
width = 328;
},
{
.lastUpdate = 794326577.273;
layerId = "261B483D-14CB-4AC5-AE3A-41E540C8643C";
shapes = (
{
closed = 1;
nodes = (
(194,724,l),
(195,754,l),
(189,763,o),
(174,785,o),
(164,785,cs),
(155,785,o),
(140,764,o),
(134,754,c),
(134,724,l)
);
},
{
closed = 1;
nodes = (
(134,754,l),
(12,565,l),
(24,555,l),
(194,724,l)
);
},
{
closed = 1;
nodes = (
(316,565,l),
(195,754,l),
(134,724,l),
(305,555,l)
);
}
);
width = 328;
},
{
.lastUpdate = 794326577.273;
layerId = "B523A5AF-871D-4AB2-9BF1-E01A824009A4";
shapes = (
{
closed = 1;
nodes = (
(189,734,l),
(189,759,l),
(184,766,o),
(172,784,o),
(164,784,cs),
(157,784,o),
(145,766,o),
(140,759,c),
(139,734,l)
);
},
{
closed = 1;
nodes = (
(140,759,l),
(14,564,l),
(23,556,l),
(189,734,l)
);
},
{
closed = 1;
nodes = (
(315,564,l),
(189,759,l),
(139,734,l),
(305,556,l)
);
}
);
width = 328;
},
{
.lastUpdate = 794326577.273;
layerId = "D3C24151-4D63-4841-9665-5260E3226900";
shapes = (
{
closed = 1;
nodes = (
(199,714,l),
(200,750,l),
(193,761,o),
(176,786,o),
(164,786,cs),
(153,786,o),
(136,761,o),
(129,750,c),
(129,715,l)
);
},
{
closed = 1;
nodes = (
(129,750,l),
(11,566,l),
(25,555,l),
(199,714,l)
);
},
{
closed = 1;
nodes = (
(317,566,l),
(200,750,l),
(129,715,l),
(304,555,l)
);
}
);
width = 328;
},
{
.lastUpdate = 794326577.273;
layerId = "8EEC74F5-9CFA-47B4-A8F8-9A6461F2D63F";
shapes = (
{
closed = 1;
nodes = (
(205,705,l),
(205,745,l),
(197,757,o),
(178,786,o),
(164,786,cs),
(151,786,o),
(132,758,o),
(124,746,c),
(124,705,l)
);
},
{
closed = 1;
nodes = (
(124,746,l),
(10,567,l),
(25,554,l),
(205,705,l)
);
},
{
closed = 1;
nodes = (
(319,567,l),
(205,745,l),
(124,705,l),
(303,554,l)
);
}
);
width = 328;
},
{
.lastUpdate = 794326577.273;
layerId = m006;
shapes = (
{
closed = 1;
nodes = (
(328,743,l),
(332,763,l),
(328,772,o),
(321,783,o),
(316,783,cs),
(311,783,o),
(299,770,o),
(293,763,c),
(289,744,l)
);
},
{
closed = 1;
nodes = (
(293,763,l),
(124,563,l),
(130,557,l),
(328,743,l)
);
},
{
closed = 1;
nodes = (
(423,563,l),
(332,763,l),
(289,744,l),
(414,557,l)
);
}
);
width = 328;
},
{
.lastUpdate = 794326577.273;
layerId = m007;
shapes = (
{
closed = 1;
nodes = (
(332,734,l),
(337,759,l),
(334,765,o),
(325,784,o),
(317,784,cs),
(310,784,o),
(298,770,o),
(288,759,c),
(282,734,l)
);
},
{
closed = 1;
nodes = (
(288,759,l),
(124,564,l),
(131,556,l),
(332,734,l)
);
},
{
closed = 1;
nodes = (
(425,564,l),
(337,759,l),
(282,734,l),
(413,556,l)
);
}
);
width = 328;
},
{
.lastUpdate = 794326577.273;
layerId = m008;
shapes = (
{
closed = 1;
nodes = (
(335,724,l),
(342,754,l),
(338,763,o),
(327,785,o),
(317,785,cs),
(308,785,o),
(289,764,o),
(281,754,c),
(275,724,l)
);
},
{
closed = 1;
nodes = (
(281,754,l),
(122,565,l),
(132,555,l),
(335,724,l)
);
},
{
closed = 1;
nodes = (
(426,565,l),
(342,754,l),
(275,724,l),
(413,555,l)
);
}
);
width = 328;
},
{
.lastUpdate = 794326577.273;
layerId = m009;
shapes = (
{
closed = 1;
nodes = (
(338,714,l),
(346,750,l),
(341,761,o),
(329,786,o),
(317,786,cs),
(306,786,o),
(284,761,o),
(275,750,c),
(268,715,l)
);
},
{
closed = 1;
nodes = (
(275,750,l),
(121,566,l),
(133,555,l),
(338,714,l)
);
},
{
closed = 1;
nodes = (
(427,566,l),
(346,750,l),
(268,715,l),
(412,555,l)
);
}
);
width = 328;
},
{
.lastUpdate = 794326577.274;
layerId = m010;
shapes = (
{
closed = 1;
nodes = (
(342,705,l),
(350,745,l),
(342,761,o),
(330,786,o),
(317,786,cs),
(304,786,o),
(281,760,o),
(269,746,c),
(261,705,l)
);
},
{
closed = 1;
nodes = (
(269,746,l),
(120,567,l),
(132,554,l),
(342,705,l)
);
},
{
closed = 1;
nodes = (
(429,567,l),
(350,745,l),
(261,705,l),
(410,554,l)
);
}
);
width = 328;
}
);
note = asciicircum;
unicode = 94;
},
{
glyphname = underscore;
lastChange = "2026-03-04 14:16:17 +0000";
layers = (
{
.lastUpdate = 794326577.274;
layerId = "E059459B-5795-442B-8710-0018C46129BA";
shapes = (
{
closed = 1;
nodes = (
(5,-81,l),
(429,-81,l),
(429,-50,l),
(5,-50,l)
);
}
);
width = 434;
},
{
.lastUpdate = 794326577.274;
layerId = "261B483D-14CB-4AC5-AE3A-41E540C8643C";
shapes = (
{
closed = 1;
nodes = (
(5,-98,l),
(429,-98,l),
(429,-50,l),
(5,-50,l)
);
}
);
width = 434;
},
{
.lastUpdate = 794326577.274;
layerId = "B523A5AF-871D-4AB2-9BF1-E01A824009A4";
shapes = (
{
closed = 1;
nodes = (
(5,-89,l),
(429,-89,l),
(429,-50,l),
(5,-50,l)
);
}
);
width = 434;
},
{
.lastUpdate = 794326577.274;
layerId = "D3C24151-4D63-4841-9665-5260E3226900";
shapes = (
{
closed = 1;
nodes = (
(5,-106,l),
(429,-106,l),
(429,-50,l),
(5,-50,l)
);
}
);
width = 434;
},
{
.lastUpdate = 794326577.274;
layerId = "8EEC74F5-9CFA-47B4-A8F8-9A6461F2D63F";
shapes = (
{
closed = 1;
nodes = (
(5,-114,l),
(429,-114,l),
(429,-50,l),
(5,-50,l)
);
}
);
width = 434;
},
{
.lastUpdate = 794326577.274;
layerId = m006;
shapes = (
{
closed = 1;
nodes = (
(-11,-81,l),
(413,-81,l),
(419,-50,l),
(-5,-50,l)
);
}
);
width = 434;
},
{
.lastUpdate = 794326577.274;
layerId = m007;
shapes = (
{
closed = 1;
nodes = (
(-12,-89,l),
(412,-89,l),
(420,-50,l),
(-4,-50,l)
);
}
);
width = 434;
},
{
.lastUpdate = 794326577.274;
layerId = m008;
shapes = (
{
closed = 1;
nodes = (
(-14,-98,l),
(410,-98,l),
(419,-50,l),
(-5,-50,l)
);
}
);
width = 434;
},
{
.lastUpdate = 794326577.274;
layerId = m009;
shapes = (
{
closed = 1;
nodes = (
(-16,-106,l),
(408,-106,l),
(419,-50,l),
(-5,-50,l)
);
}
);
width = 434;
},
{
.lastUpdate = 794326577.274;
layerId = m010;
shapes = (
{
closed = 1;
nodes = (
(-17,-114,l),
(407,-114,l),
(419,-50,l),
(-5,-50,l)
);
}
);
width = 434;
}
);
note = underscore;
unicode = 95;
},
{
glyphname = a;
lastChange = "2026-03-04 14:16:17 +0000";
layers = (
{
.lastUpdate = 794326577.274;
anchors = (
{
name = bottom;
pos = (252,0);
},
{
name = ogonek;
pos = (450,10);
},
{
name = top;
pos = (252,500);
}
);
layerId = "E059459B-5795-442B-8710-0018C46129BA";
shapes = (
{
closed = 1;
nodes = (
(69,335,o),
(80,319,o),
(97,319,cs),
(118,319,o),
(132,335,o),
(131,347,cs),
(131,364,o),
(112,380,o),
(111,394,c),
(69,358,l)
);
},
{
closed = 1;
nodes = (
(499,87,l),
(494,56,o),
(472,35,o),
(444,35,cs),
(410,35,o),
(387,55,o),
(387,85,cs),
(387,358,ls),
(387,463,o),
(334,510,o),
(254,510,cs),
(142,510,o),
(68,413,o),
(69,358,c),
(111,394,l),
(111,430,o),
(160,493,o),
(234,493,cs),
(293,493,o),
(332,457,o),
(332,378,cs),
(332,85,ls),
(332,31,o),
(368,-5,o),
(421,-5,cs),
(465,-5,o),
(501,29,o),
(510,81,c)
);
},
{
closed = 1;
nodes = (
(336,104,l),
(276,43,o),
(227,20,o),
(189,20,cs),
(139,20,o),
(105,47,o),
(105,87,cs),
(105,124,o),
(158,152,o),
(337,233,c),
(337,246,l),
(114,145,o),
(49,112,o),
(49,82,cs),
(49,27,o),
(93,-10,o),
(160,-10,cs),
(206,-10,o),
(265,19,o),
(340,95,c)
);
}
);
width = 552;
},
{
.lastUpdate = 794326577.275;
anchors = (
{
name = bottom;
pos = (257,0);
},
{
name = ogonek;
pos = (459,10);
},
{
name = top;
pos = (257,500);
}
);
layerId = "261B483D-14CB-4AC5-AE3A-41E540C8643C";
shapes = (
{
closed = 1;
nodes = (
(70,322,o),
(90,298,o),
(119,298,cs),
(147,298,o),
(165,323,o),
(164,341,cs),
(164,361,o),
(145,381,o),
(144,401,c),
(70,358,l)
);
},
{
closed = 1;
nodes = (
(505,110,l),
(500,77,o),
(478,56,o),
(450,56,cs),
(418,56,o),
(396,75,o),
(396,103,cs),
(396,355,ls),
(396,462,o),
(341,510,o),
(259,510,cs),
(144,510,o),
(69,413,o),
(70,358,c),
(144,401,l),
(144,431,o),
(177,484,o),
(229,484,cs),
(277,484,o),
(310,454,o),
(310,386,cs),
(310,103,ls),
(310,38,o),
(352,-5,o),
(415,-5,cs),
(467,-5,o),
(508,38,o),
(520,103,c)
);
},
{
closed = 1;
nodes = (
(316,108,l),
(269,56,o),
(232,36,o),
(205,36,cs),
(164,36,o),
(136,60,o),
(136,97,cs),
(136,142,o),
(177,166,o),
(318,230,c),
(318,250,l),
(111,156,o),
(50,124,o),
(50,88,cs),
(50,29,o),
(94,-10,o),
(159,-10,cs),
(200,-10,o),
(254,19,o),
(323,95,c)
);
}
);
width = 563;
},
{
.lastUpdate = 794326577.275;
anchors = (
{
name = bottom;
pos = (250,0);
},
{
name = ogonek;
pos = (450,10);
},
{
name = top;
pos = (250,500);
}
);
layerId = "B523A5AF-871D-4AB2-9BF1-E01A824009A4";
shapes = (
{
closed = 1;
nodes = (
(65,329,o),
(79,309,o),
(101,309,cs),
(124,309,o),
(140,329,o),
(139,344,cs),
(139,363,o),
(120,385,o),
(119,402,c),
(65,358,l)
);
},
{
closed = 1;
nodes = (
(497,98,l),
(492,66,o),
(470,45,o),
(442,45,cs),
(409,45,o),
(387,64,o),
(387,93,cs),
(387,357,ls),
(387,462,o),
(333,510,o),
(252,510,cs),
(138,510,o),
(64,413,o),
(65,358,c),
(119,402,l),
(119,433,o),
(161,489,o),
(227,489,cs),
(281,489,o),
(317,456,o),
(317,382,cs),
(317,93,ls),
(317,34,o),
(356,-5,o),
(414,-5,cs),
(461,-5,o),
(500,34,o),
(510,91,c)
);
},
{
closed = 1;
nodes = (
(322,106,l),
(268,49,o),
(225,27,o),
(192,27,cs),
(146,27,o),
(115,53,o),
(115,92,cs),
(115,133,o),
(162,159,o),
(324,232,c),
(324,248,l),
(108,150,o),
(45,117,o),
(45,85,cs),
(45,28,o),
(89,-10,o),
(155,-10,cs),
(198,-10,o),
(255,19,o),
(328,95,c)
);
}
);
width = 500;
},
{
.lastUpdate = 794326577.275;
anchors = (
{
name = bottom;
pos = (260,0);
},
{
name = ogonek;
pos = (463,10);
},
{
name = top;
pos = (260,500);
}
);
layerId = "D3C24151-4D63-4841-9665-5260E3226900";
shapes = (
{
closed = 1;
nodes = (
(71,316,o),
(96,288,o),
(133,288,cs),
(164,288,o),
(184,317,o),
(184,338,cs),
(183,357,o),
(164,374,o),
(164,394,c),
(71,358,l)
);
},
{
closed = 1;
nodes = (
(508,120,l),
(503,88,o),
(481,66,o),
(454,66,cs),
(421,66,o),
(400,84,o),
(400,111,cs),
(400,354,ls),
(400,462,o),
(345,510,o),
(262,510,cs),
(146,510,o),
(70,413,o),
(71,358,c),
(164,394,l),
(164,422,o),
(192,471,o),
(236,471,cs),
(275,471,o),
(301,446,o),
(301,390,cs),
(300,111,ls),
(300,41,o),
(345,-5,o),
(412,-5,cs),
(467,-5,o),
(512,42,o),
(524,112,c)
);
},
{
closed = 1;
nodes = (
(308,111,l),
(265,62,o),
(235,43,o),
(213,43,cs),
(176,43,o),
(151,66,o),
(151,101,cs),
(151,151,o),
(187,172,o),
(310,228,c),
(310,252,l),
(110,161,o),
(51,130,o),
(51,91,cs),
(51,30,o),
(94,-10,o),
(160,-10,cs),
(198,-10,o),
(250,19,o),
(315,95,c)
);
}
);
width = 567;
},
{
.lastUpdate = 794326577.275;
anchors = (
{
name = bottom;
pos = (256,0);
},
{
name = ogonek;
pos = (461,10);
},
{
name = top;
pos = (256,500);
}
);
layerId = "8EEC74F5-9CFA-47B4-A8F8-9A6461F2D63F";
shapes = (
{
closed = 1;
nodes = (
(65,310,o),
(94,278,o),
(137,278,cs),
(170,278,o),
(193,311,o),
(193,335,cs),
(192,356,o),
(173,373,o),
(173,398,c),
(64,358,l)
);
},
{
closed = 1;
nodes = (
(505,131,l),
(499,99,o),
(477,77,o),
(450,77,cs),
(419,77,o),
(398,94,o),
(398,120,cs),
(398,353,ls),
(398,461,o),
(342,510,o),
(258,510,cs),
(140,510,o),
(64,413,o),
(64,358,c),
(173,398,l),
(172,422,o),
(196,464,o),
(231,464,cs),
(262,464,o),
(283,442,o),
(283,394,cs),
(283,120,ls),
(283,45,o),
(331,-5,o),
(403,-5,cs),
(461,-5,o),
(509,46,o),
(522,123,c)
);
},
{
closed = 1;
nodes = (
(292,113,l),
(255,68,o),
(230,51,o),
(214,51,cs),
(182,51,o),
(160,73,o),
(160,106,cs),
(160,160,o),
(190,180,o),
(294,227,c),
(294,253,l),
(101,166,o),
(44,135,o),
(44,94,cs),
(44,32,o),
(88,-10,o),
(153,-10,cs),
(190,-10,o),
(238,19,o),
(300,95,c)
);
}
);
width = 512;
},
{
.lastUpdate = 794326577.275;
anchors = (
{
name = bottom;
pos = (252,0);
},
{
name = ogonek;
pos = (452,10);
},
{
name = top;
pos = (349,500);
}
);
layerId = m006;
shapes = (
{
closed = 1;
nodes = (
(134,335,o),
(141,319,o),
(159,319,cs),
(180,319,o),
(199,335,o),
(199,352,cs),
(199,367,o),
(185,381,o),
(187,394,c),
(138,358,l)
);
},
{
closed = 1;
nodes = (
(516,87,l),
(505,56,o),
(479,35,o),
(451,35,cs),
(415,35,o),
(398,57,o),
(404,88,cs),
(457,361,ls),
(477,464,o),
(432,510,o),
(353,510,cs),
(242,510,o),
(148,414,o),
(138,358,c),
(187,394,l),
(194,430,o),
(255,493,o),
(330,493,cs),
(388,493,o),
(421,458,o),
(405,376,cs),
(349,88,ls),
(338,31,o),
(367,-5,o),
(420,-5,cs),
(464,-5,o),
(507,29,o),
(526,81,c)
);
},
{
closed = 1;
nodes = (
(356,104,l),
(284,43,o),
(231,20,o),
(193,20,cs),
(149,20,o),
(121,41,o),
(121,74,cs),
(121,122,o),
(170,144,o),
(382,233,c),
(385,246,l),
(106,129,o),
(63,111,o),
(63,64,cs),
(63,19,o),
(99,-10,o),
(158,-10,cs),
(204,-10,o),
(268,19,o),
(358,95,c)
);
}
);
width = 552;
},
{
.lastUpdate = 794326577.275;
anchors = (
{
name = bottom;
pos = (250,0);
},
{
name = ogonek;
pos = (452,10);
},
{
name = top;
pos = (348,500);
}
);
layerId = m007;
shapes = (
{
closed = 1;
nodes = (
(129,328,o),
(140,309,o),
(162,309,cs),
(184,309,o),
(207,329,o),
(207,351,cs),
(207,368,o),
(196,387,o),
(198,402,c),
(135,358,l)
);
},
{
closed = 1;
nodes = (
(516,98,l),
(505,66,o),
(479,45,o),
(451,45,cs),
(418,45,o),
(400,64,o),
(406,95,cs),
(457,358,ls),
(477,461,o),
(433,510,o),
(352,510,cs),
(238,510,o),
(145,414,o),
(135,358,c),
(198,402,l),
(204,433,o),
(257,489,o),
(322,489,cs),
(377,489,o),
(406,455,o),
(392,383,cs),
(336,95,ls),
(324,33,o),
(356,-5,o),
(413,-5,cs),
(460,-5,o),
(507,34,o),
(528,91,c)
);
},
{
closed = 1;
nodes = (
(343,106,l),
(278,49,o),
(231,27,o),
(198,27,cs),
(158,27,o),
(132,47,o),
(132,79,cs),
(132,131,o),
(185,155,o),
(370,232,c),
(373,248,l),
(108,137,o),
(60,117,o),
(60,66,cs),
(60,20,o),
(95,-10,o),
(153,-10,cs),
(196,-10,o),
(258,18,o),
(347,95,c)
);
}
);
width = 500;
},
{
.lastUpdate = 794326577.275;
anchors = (
{
name = bottom;
pos = (257,0);
},
{
name = ogonek;
pos = (461,10);
},
{
name = top;
pos = (354,500);
}
);
layerId = m008;
shapes = (
{
closed = 1;
nodes = (
(133,322,o),
(148,298,o),
(177,298,cs),
(205,298,o),
(231,324,o),
(231,348,cs),
(231,366,o),
(219,383,o),
(222,401,c),
(140,358,l)
);
},
{
closed = 1;
nodes = (
(526,110,l),
(515,78,o),
(490,56,o),
(461,56,cs),
(427,56,o),
(411,77,o),
(416,103,cs),
(465,355,ls),
(486,463,o),
(439,510,o),
(358,510,cs),
(244,510,o),
(150,414,o),
(140,358,c),
(222,401,l),
(228,431,o),
(271,484,o),
(323,484,cs),
(372,484,o),
(398,453,o),
(385,386,cs),
(330,103,ls),
(317,36,o),
(353,-5,o),
(414,-5,cs),
(465,-5,o),
(515,37,o),
(540,103,c)
);
},
{
closed = 1;
nodes = (
(337,108,l),
(280,56,o),
(239,36,o),
(212,36,cs),
(176,36,o),
(154,55,o),
(154,84,cs),
(154,141,o),
(213,167,o),
(363,230,c),
(367,250,l),
(105,140,o),
(65,122,o),
(65,67,cs),
(65,20,o),
(100,-10,o),
(157,-10,cs),
(198,-10,o),
(256,18,o),
(341,95,c)
);
}
);
width = 563;
},
{
.lastUpdate = 794326577.275;
anchors = (
{
name = bottom;
pos = (260,0);
},
{
name = ogonek;
pos = (465,10);
},
{
name = top;
pos = (357,500);
}
);
layerId = m009;
shapes = (
{
closed = 1;
nodes = (
(132,317,o),
(151,288,o),
(189,288,cs),
(220,288,o),
(250,320,o),
(250,343,cs),
(250,360,o),
(236,376,o),
(240,394,c),
(140,358,l)
);
},
{
closed = 1;
nodes = (
(531,120,l),
(520,89,o),
(494,66,o),
(466,66,cs),
(433,66,o),
(416,84,o),
(421,110,cs),
(469,357,ls),
(489,460,o),
(446,510,o),
(361,510,cs),
(244,510,o),
(150,413,o),
(140,358,c),
(240,394,l),
(245,421,o),
(283,471,o),
(327,471,cs),
(367,471,o),
(387,445,o),
(376,389,cs),
(321,110,ls),
(307,39,o),
(346,-5,o),
(411,-5,cs),
(465,-5,o),
(519,41,o),
(545,112,c)
);
},
{
closed = 1;
nodes = (
(329,111,l),
(278,63,o),
(243,43,o),
(221,43,cs),
(188,43,o),
(169,61,o),
(169,88,cs),
(169,149,o),
(230,176,o),
(354,228,c),
(359,252,l),
(103,145,o),
(66,126,o),
(66,69,cs),
(66,21,o),
(100,-10,o),
(158,-10,cs),
(196,-10,o),
(253,19,o),
(333,95,c)
);
}
);
width = 567;
},
{
.lastUpdate = 794326577.276;
anchors = (
{
name = bottom;
pos = (256,0);
},
{
name = ogonek;
pos = (463,10);
},
{
name = top;
pos = (353,500);
}
);
layerId = m010;
shapes = (
{
closed = 1;
nodes = (
(126,310,o),
(148,278,o),
(191,278,cs),
(224,278,o),
(259,314,o),
(259,341,cs),
(259,359,o),
(246,375,o),
(250,398,c),
(134,358,l)
);
},
{
closed = 1;
nodes = (
(531,131,l),
(519,100,o),
(493,77,o),
(465,77,cs),
(437,77,o),
(416,92,o),
(421,118,cs),
(467,355,ls),
(488,463,o),
(439,510,o),
(357,510,cs),
(240,510,o),
(145,414,o),
(134,358,c),
(250,398,l),
(254,422,o),
(286,464,o),
(321,464,cs),
(352,464,o),
(369,442,o),
(359,391,cs),
(306,118,ls),
(292,46,o),
(329,-5,o),
(402,-5,cs),
(460,-5,o),
(518,46,o),
(546,123,c)
);
},
{
closed = 1;
nodes = (
(314,113,l),
(268,68,o),
(240,51,o),
(224,51,cs),
(196,51,o),
(179,68,o),
(179,93,cs),
(179,161,o),
(249,190,o),
(338,227,c),
(343,253,l),
(97,150,o),
(60,132,o),
(60,71,cs),
(60,22,o),
(95,-10,o),
(151,-10,cs),
(188,-10,o),
(242,19,o),
(319,95,c)
);
}
);
width = 512;
}
);
note = a;
unicode = 97;
},
{
glyphname = b;
lastChange = "2026-03-04 14:16:17 +0000";
layers = (
{
.lastUpdate = 794326577.276;
anchors = (
{
name = bottom;
pos = (248,0);
},
{
name = center;
pos = (90,780);
},
{
name = top;
pos = (248,500);
}
);
layerId = "E059459B-5795-442B-8710-0018C46129BA";
shapes = (
{
closed = 1;
nodes = (
(87,0,l),
(132,167,l),
(139,195,l),
(139,638,l),
(84,638,l),
(84,195,l),
(84,195,l),
(84,0,l)
);
},
{
closed = 1;
nodes = (
(107,195,l),
(105,65,l),
(143,20,o),
(218,-10,o),
(294,-10,cs),
(428,-10,o),
(517,95,o),
(517,252,cs),
(517,404,o),
(425,505,o),
(287,505,cs),
(228,505,o),
(167,469,o),
(133,416,c),
(133,400,l),
(164,449,o),
(217,482,o),
(264,482,cs),
(379,482,o),
(455,387,o),
(455,245,cs),
(455,99,o),
(392,2,o),
(297,2,cs),
(236,2,o),
(173,29,o),
(139,70,c),
(139,195,l)
);
},
{
closed = 1;
nodes = (
(139,732,o),
(139,750,o),
(139,750,c),
(139,750,l),
(139,750,o),
(139,750,o),
(139,750,c),
(139,750,o),
(139,750,o),
(139,750,c),
(130,750,l),
(14,717,l),
(14,717,o),
(14,710,o),
(14,700,cs),
(14,690,o),
(14,684,o),
(14,684,c),
(29,689,ls),
(62,698,o),
(84,691,o),
(84,624,c),
(139,638,l)
);
}
);
width = 575;
},
{
.lastUpdate = 794326577.276;
anchors = (
{
name = bottom;
pos = (256,0);
},
{
name = center;
pos = (98,780);
},
{
name = top;
pos = (256,500);
}
);
layerId = "261B483D-14CB-4AC5-AE3A-41E540C8643C";
shapes = (
{
closed = 1;
nodes = (
(89,0,l),
(159,152,l),
(170,195,l),
(170,638,l),
(84,638,l),
(84,195,l),
(84,195,l),
(84,0,l)
);
},
{
closed = 1;
nodes = (
(120,195,l),
(119,65,l),
(150,20,o),
(220,-10,o),
(295,-10,cs),
(434,-10,o),
(526,95,o),
(526,253,cs),
(526,404,o),
(438,505,o),
(306,505,cs),
(249,505,o),
(191,473,o),
(160,425,c),
(160,400,l),
(187,442,o),
(232,470,o),
(271,470,cs),
(367,470,o),
(430,379,o),
(430,242,cs),
(430,102,o),
(378,9,o),
(300,9,cs),
(236,9,o),
(185,33,o),
(170,70,c),
(170,195,l)
);
},
{
closed = 1;
nodes = (
(170,732,o),
(170,750,o),
(170,750,c),
(170,750,l),
(170,750,o),
(170,750,o),
(170,750,c),
(170,750,o),
(170,750,o),
(170,750,c),
(155,750,l),
(14,710,l),
(14,710,o),
(14,703,o),
(14,693,cs),
(14,683,o),
(14,677,o),
(14,677,c),
(30,681,ls),
(62,691,o),
(84,684,o),
(84,617,c),
(170,638,l)
);
}
);
width = 585;
},
{
.lastUpdate = 794326577.276;
anchors = (
{
name = bottom;
pos = (315,0);
},
{
name = center;
pos = (157,780);
},
{
name = top;
pos = (315,500);
}
);
layerId = "B523A5AF-871D-4AB2-9BF1-E01A824009A4";
shapes = (
{
closed = 1;
nodes = (
(151,0,l),
(208,160,l),
(217,195,l),
(217,638,l),
(147,638,l),
(147,195,l),
(147,85,l),
(147,0,l)
);
},
{
closed = 1;
nodes = (
(177,195,l),
(174,65,l),
(212,20,o),
(285,-10,o),
(358,-10,cs),
(493,-10,o),
(584,95,o),
(584,252,cs),
(584,404,o),
(494,505,o),
(359,505,cs),
(302,505,o),
(241,471,o),
(209,420,c),
(209,400,l),
(238,446,o),
(287,476,o),
(331,476,cs),
(436,476,o),
(506,383,o),
(506,244,cs),
(506,101,o),
(448,6,o),
(361,6,cs),
(301,6,o),
(243,32,o),
(217,70,c),
(217,195,l)
);
},
{
closed = 1;
nodes = (
(217,664,o),
(217,750,o),
(217,750,c),
(217,742,l),
(217,724,o),
(217,716,o),
(217,716,c),
(217,682,o),
(217,750,o),
(217,750,c),
(205,750,l),
(77,713,l),
(77,713,o),
(77,707,o),
(77,697,cs),
(77,687,o),
(77,680,o),
(77,681,c),
(93,685,ls),
(125,694,o),
(147,688,o),
(147,621,c),
(217,638,l)
);
}
);
width = 629;
},
{
.lastUpdate = 794326577.276;
anchors = (
{
name = bottom;
pos = (259,0);
},
{
name = center;
pos = (102,780);
},
{
name = top;
pos = (259,500);
}
);
layerId = "D3C24151-4D63-4841-9665-5260E3226900";
shapes = (
{
closed = 1;
nodes = (
(90,0,l),
(170,145,l),
(184,195,l),
(184,638,l),
(84,638,l),
(84,195,l),
(84,195,l),
(84,0,l)
);
},
{
closed = 1;
nodes = (
(126,195,l),
(126,65,l),
(147,20,o),
(214,-10,o),
(295,-10,cs),
(435,-10,o),
(529,95,o),
(529,253,cs),
(529,404,o),
(443,505,o),
(315,505,cs),
(258,505,o),
(201,475,o),
(172,429,c),
(172,400,l),
(197,438,o),
(237,464,o),
(274,464,cs),
(360,464,o),
(417,375,o),
(417,241,cs),
(417,104,o),
(370,12,o),
(300,12,cs),
(243,12,o),
(197,35,o),
(184,70,c),
(184,195,l)
);
},
{
closed = 1;
nodes = (
(184,732,o),
(184,750,o),
(184,750,c),
(184,750,l),
(184,750,o),
(184,750,o),
(184,750,c),
(184,750,o),
(184,750,o),
(184,750,c),
(166,750,l),
(13,706,l),
(13,706,o),
(13,700,o),
(13,690,cs),
(13,680,o),
(13,673,o),
(13,674,c),
(29,678,ls),
(62,687,o),
(84,681,o),
(84,614,c),
(184,638,l)
);
}
);
width = 588;
},
{
.lastUpdate = 794326577.277;
anchors = (
{
name = bottom;
pos = (315,0);
},
{
name = center;
pos = (158,780);
},
{
name = top;
pos = (315,500);
}
);
layerId = "8EEC74F5-9CFA-47B4-A8F8-9A6461F2D63F";
shapes = (
{
closed = 1;
nodes = (
(143,0,l),
(236,138,l),
(251,195,l),
(251,638,l),
(136,638,l),
(136,195,l),
(136,195,l),
(136,0,l)
);
},
{
closed = 1;
nodes = (
(184,195,l),
(187,65,l),
(203,20,o),
(267,-10,o),
(347,-10,cs),
(490,-10,o),
(586,95,o),
(586,253,cs),
(586,404,o),
(502,505,o),
(377,505,cs),
(321,505,o),
(265,476,o),
(238,434,c),
(238,400,l),
(259,435,o),
(296,458,o),
(330,458,cs),
(406,458,o),
(457,371,o),
(457,240,cs),
(457,106,o),
(416,16,o),
(354,16,cs),
(304,16,o),
(263,38,o),
(251,70,c),
(251,195,l)
);
},
{
closed = 1;
nodes = (
(251,732,o),
(251,750,o),
(251,750,c),
(251,750,l),
(251,750,o),
(251,750,o),
(251,750,c),
(251,750,o),
(251,750,o),
(251,750,c),
(231,750,l),
(66,703,l),
(66,703,o),
(66,696,o),
(66,686,cs),
(66,676,o),
(66,670,o),
(66,670,c),
(81,674,ls),
(114,684,o),
(136,677,o),
(136,610,c),
(251,638,l)
);
}
);
width = 630;
},
{
.lastUpdate = 794326577.277;
anchors = (
{
name = bottom;
pos = (248,0);
},
{
name = center;
pos = (242,780);
},
{
name = top;
pos = (345,500);
}
);
layerId = m006;
shapes = (
{
closed = 1;
nodes = (
(87,0,l),
(164,167,l),
(177,195,l),
(263,638,l),
(208,638,l),
(122,195,l),
(122,195,l),
(84,0,l)
);
},
{
closed = 1;
nodes = (
(145,195,l),
(118,65,l),
(147,20,o),
(216,-10,o),
(292,-10,cs),
(445,-10,o),
(573,139,o),
(573,316,cs),
(573,432,o),
(503,505,o),
(385,505,cs),
(327,505,o),
(259,470,o),
(214,416,c),
(211,400,l),
(251,449,o),
(311,482,o),
(358,482,cs),
(453,482,o),
(509,417,o),
(509,312,cs),
(509,151,o),
(407,2,o),
(297,2,cs),
(236,2,o),
(179,29,o),
(153,70,c),
(177,195,l)
);
},
{
closed = 1;
nodes = (
(281,732,o),
(285,750,o),
(285,750,c),
(285,750,l),
(285,750,o),
(285,750,o),
(285,750,c),
(285,750,o),
(285,750,o),
(285,750,c),
(276,750,l),
(153,717,l),
(153,717,o),
(152,711,o),
(150,700,cs),
(148,689,o),
(147,684,o),
(147,684,c),
(165,689,ls),
(198,698,o),
(218,691,o),
(205,624,c),
(263,638,l)
);
}
);
width = 575;
},
{
.lastUpdate = 794326577.277;
anchors = (
{
name = bottom;
pos = (315,0);
},
{
name = center;
pos = (309,780);
},
{
name = top;
pos = (412,500);
}
);
layerId = m007;
shapes = (
{
closed = 1;
nodes = (
(151,0,l),
(239,160,l),
(255,195,l),
(341,638,l),
(271,638,l),
(185,195,l),
(164,85,l),
(147,0,l)
);
},
{
closed = 1;
nodes = (
(215,195,l),
(187,65,l),
(216,20,o),
(283,-10,o),
(356,-10,cs),
(511,-10,o),
(640,139,o),
(640,318,cs),
(640,432,o),
(572,505,o),
(457,505,cs),
(400,505,o),
(333,471,o),
(291,420,c),
(287,400,l),
(325,446,o),
(379,476,o),
(424,476,cs),
(509,476,o),
(560,413,o),
(560,313,cs),
(560,157,o),
(464,6,o),
(362,6,cs),
(304,6,o),
(250,31,o),
(231,70,c),
(255,195,l)
);
},
{
closed = 1;
nodes = (
(346,664,o),
(363,750,o),
(363,750,c),
(361,742,l),
(358,724,o),
(356,716,o),
(356,716,c),
(349,682,o),
(363,750,o),
(363,750,c),
(351,750,l),
(216,713,l),
(216,713,o),
(214,706,o),
(212,697,cs),
(210,687,o),
(209,680,o),
(209,681,c),
(229,686,ls),
(261,694,o),
(281,686,o),
(268,621,c),
(341,638,l)
);
}
);
width = 629;
},
{
.lastUpdate = 794326577.277;
anchors = (
{
name = bottom;
pos = (256,0);
},
{
name = center;
pos = (250,780);
},
{
name = top;
pos = (353,500);
}
);
layerId = m008;
shapes = (
{
closed = 1;
nodes = (
(89,0,l),
(189,152,l),
(208,195,l),
(294,638,l),
(208,638,l),
(122,195,l),
(122,195,l),
(84,0,l)
);
},
{
closed = 1;
nodes = (
(158,195,l),
(132,65,l),
(154,20,o),
(219,-10,o),
(293,-10,cs),
(452,-10,o),
(582,138,o),
(582,319,cs),
(582,432,o),
(516,505,o),
(404,505,cs),
(348,505,o),
(283,473,o),
(243,425,c),
(238,400,l),
(273,442,o),
(324,470,o),
(362,470,cs),
(440,470,o),
(485,411,o),
(485,315,cs),
(485,161,o),
(394,9,o),
(302,9,cs),
(238,9,o),
(192,33,o),
(184,70,c),
(208,195,l)
);
},
{
closed = 1;
nodes = (
(312,732,o),
(316,750,o),
(316,750,c),
(316,750,l),
(316,750,o),
(316,750,o),
(316,750,c),
(316,750,o),
(316,750,o),
(316,750,c),
(301,750,l),
(152,710,l),
(152,710,o),
(151,704,o),
(149,693,cs),
(147,682,o),
(146,677,o),
(146,677,c),
(164,682,ls),
(196,691,o),
(217,684,o),
(204,617,c),
(294,638,l)
);
}
);
width = 585;
},
{
.lastUpdate = 794326577.277;
anchors = (
{
name = bottom;
pos = (259,0);
},
{
name = center;
pos = (254,780);
},
{
name = top;
pos = (356,500);
}
);
layerId = m009;
shapes = (
{
closed = 1;
nodes = (
(90,0,l),
(198,145,l),
(222,195,l),
(308,638,l),
(208,638,l),
(122,195,l),
(122,195,l),
(84,0,l)
);
},
{
closed = 1;
nodes = (
(164,195,l),
(139,65,l),
(151,20,o),
(213,-10,o),
(293,-10,cs),
(454,-10,o),
(585,138,o),
(585,321,cs),
(585,433,o),
(521,505,o),
(413,505,cs),
(356,505,o),
(293,475,o),
(255,429,c),
(250,400,l),
(283,439,o),
(328,464,o),
(364,464,cs),
(433,464,o),
(472,407,o),
(472,317,cs),
(472,167,o),
(386,12,o),
(302,12,cs),
(246,12,o),
(204,35,o),
(198,70,c),
(222,195,l)
);
},
{
closed = 1;
nodes = (
(326,732,o),
(330,750,o),
(330,750,c),
(330,750,l),
(330,750,o),
(330,750,o),
(330,750,c),
(330,750,o),
(330,750,o),
(330,750,c),
(312,750,l),
(150,706,l),
(150,706,o),
(150,706,o),
(147,690,cs),
(145,680,o),
(144,673,o),
(144,674,c),
(160,678,ls),
(196,687,o),
(216,681,o),
(203,614,c),
(308,638,l)
);
}
);
width = 588;
},
{
.lastUpdate = 794326577.278;
anchors = (
{
name = bottom;
pos = (315,0);
},
{
name = center;
pos = (310,780);
},
{
name = top;
pos = (412,500);
}
);
layerId = m010;
shapes = (
{
closed = 1;
nodes = (
(143,0,l),
(263,138,l),
(289,195,l),
(375,638,l),
(260,638,l),
(174,195,l),
(174,195,l),
(136,0,l)
);
},
{
closed = 1;
nodes = (
(222,195,l),
(200,65,l),
(207,21,o),
(264,-10,o),
(345,-10,cs),
(510,-10,o),
(642,138,o),
(642,322,cs),
(642,434,o),
(580,505,o),
(475,505,cs),
(419,505,o),
(357,476,o),
(322,434,c),
(316,400,l),
(344,435,o),
(385,458,o),
(419,458,cs),
(478,458,o),
(512,406,o),
(512,320,cs),
(512,174,o),
(432,16,o),
(357,16,cs),
(307,16,o),
(271,38,o),
(265,70,c),
(289,195,l)
);
},
{
closed = 1;
nodes = (
(393,732,o),
(397,750,o),
(397,750,c),
(397,750,l),
(397,750,o),
(397,750,o),
(397,750,c),
(397,750,o),
(397,750,o),
(397,750,c),
(377,750,l),
(203,703,l),
(203,703,o),
(201,696,o),
(199,686,cs),
(197,676,o),
(196,670,o),
(196,670,c),
(211,674,ls),
(248,684,o),
(268,675,o),
(255,610,c),
(375,638,l)
);
}
);
width = 630;
}
);
note = b;
unicode = 98;
},
{
glyphname = c;
kernLeft = o;
kernRight = o;
lastChange = "2026-03-04 14:16:17 +0000";
layers = (
{
.lastUpdate = 794326577.278;
anchors = (
{
name = bottom;
pos = (265,0);
},
{
name = top;
pos = (265,500);
}
);
layerId = "E059459B-5795-442B-8710-0018C46129BA";
shapes = (
{
closed = 1;
nodes = (
(477,135,l),
(450,68,o),
(381,24,o),
(305,24,cs),
(191,24,o),
(114,121,o),
(114,266,cs),
(114,405,o),
(193,497,o),
(312,497,cs),
(364,497,o),
(413,460,o),
(433,405,cs),
(439,388,o),
(450,377,o),
(461,377,c),
(461,377,l),
(484,377,o),
(495,388,o),
(488,405,cs),
(465,468,o),
(396,510,o),
(315,510,cs),
(161,510,o),
(58,401,o),
(58,238,cs),
(58,89,o),
(149,-10,o),
(286,-10,cs),
(370,-10,o),
(450,47,o),
(485,132,c)
);
}
);
width = 538;
},
{
.lastUpdate = 794326577.278;
anchors = (
{
name = bottom;
pos = (265,0);
},
{
name = top;
pos = (265,500);
}
);
layerId = "261B483D-14CB-4AC5-AE3A-41E540C8643C";
shapes = (
{
closed = 1;
nodes = (
(473,137,l),
(449,80,o),
(386,42,o),
(315,42,cs),
(214,42,o),
(147,135,o),
(147,273,cs),
(147,404,o),
(213,491,o),
(311,491,cs),
(348,491,o),
(385,457,o),
(404,405,cs),
(413,379,o),
(430,362,o),
(447,362,c),
(447,362,l),
(482,362,o),
(499,379,o),
(490,405,cs),
(467,468,o),
(398,510,o),
(316,510,cs),
(161,510,o),
(58,400,o),
(58,236,cs),
(58,88,o),
(149,-10,o),
(285,-10,cs),
(369,-10,o),
(449,47,o),
(485,132,c)
);
}
);
width = 540;
},
{
.lastUpdate = 794326577.278;
anchors = (
{
name = bottom;
pos = (250,0);
},
{
name = top;
pos = (250,500);
}
);
layerId = "B523A5AF-871D-4AB2-9BF1-E01A824009A4";
shapes = (
{
closed = 1;
nodes = (
(460,136,l),
(433,74,o),
(367,32,o),
(295,32,cs),
(186,32,o),
(114,127,o),
(114,270,cs),
(114,404,o),
(187,494,o),
(296,494,cs),
(341,494,o),
(384,458,o),
(404,405,cs),
(411,384,o),
(425,370,o),
(439,370,c),
(439,370,l),
(467,370,o),
(481,384,o),
(474,405,cs),
(450,468,o),
(381,510,o),
(300,510,cs),
(146,510,o),
(43,401,o),
(43,237,cs),
(43,89,o),
(134,-10,o),
(270,-10,cs),
(354,-10,o),
(434,47,o),
(470,132,c)
);
}
);
width = 499;
},
{
.lastUpdate = 794326577.278;
anchors = (
{
name = bottom;
pos = (266,0);
},
{
name = top;
pos = (266,500);
}
);
layerId = "D3C24151-4D63-4841-9665-5260E3226900";
shapes = (
{
closed = 1;
nodes = (
(471,138,l),
(449,86,o),
(389,51,o),
(320,51,cs),
(226,51,o),
(163,141,o),
(163,276,cs),
(163,402,o),
(222,487,o),
(311,487,cs),
(341,487,o),
(373,454,o),
(391,405,cs),
(402,375,o),
(422,355,o),
(441,355,c),
(441,355,l),
(482,355,o),
(502,375,o),
(491,405,cs),
(468,468,o),
(398,510,o),
(316,510,cs),
(161,510,o),
(58,400,o),
(58,235,cs),
(58,88,o),
(149,-10,o),
(285,-10,cs),
(370,-10,o),
(450,47,o),
(485,132,c)
);
}
);
width = 542;
},
{
.lastUpdate = 794326577.278;
anchors = (
{
name = bottom;
pos = (248,0);
},
{
name = top;
pos = (248,500);
}
);
layerId = "8EEC74F5-9CFA-47B4-A8F8-9A6461F2D63F";
shapes = (
{
closed = 1;
nodes = (
(451,139,l),
(431,91,o),
(374,60,o),
(308,60,cs),
(221,60,o),
(163,147,o),
(163,277,cs),
(163,401,o),
(215,484,o),
(292,484,cs),
(315,484,o),
(341,452,o),
(359,405,cs),
(371,371,o),
(394,348,o),
(416,348,c),
(416,348,l),
(463,348,o),
(486,371,o),
(474,405,cs),
(450,468,o),
(380,510,o),
(299,510,cs),
(143,510,o),
(40,400,o),
(40,234,cs),
(40,88,o),
(131,-10,o),
(267,-10,cs),
(352,-10,o),
(432,47,o),
(467,132,c)
);
}
);
width = 496;
},
{
.lastUpdate = 794326577.278;
anchors = (
{
name = bottom;
pos = (265,0);
},
{
name = top;
pos = (362,500);
}
);
layerId = m006;
shapes = (
{
closed = 1;
nodes = (
(503,135,l),
(463,68,o),
(386,24,o),
(310,24,cs),
(215,24,o),
(159,91,o),
(159,197,cs),
(159,365,o),
(270,497,o),
(409,497,cs),
(463,497,o),
(502,459,o),
(512,404,cs),
(515,388,o),
(523,377,o),
(534,377,c),
(534,377,l),
(558,377,o),
(570,388,o),
(567,405,cs),
(556,466,o),
(498,510,o),
(414,510,cs),
(240,510,o),
(98,360,o),
(98,175,cs),
(98,62,o),
(168,-10,o),
(284,-10,cs),
(369,-10,o),
(460,48,o),
(511,132,c)
);
}
);
width = 538;
},
{
.lastUpdate = 794326577.278;
anchors = (
{
name = bottom;
pos = (250,0);
},
{
name = top;
pos = (347,500);
}
);
layerId = m007;
shapes = (
{
closed = 1;
nodes = (
(487,136,l),
(448,74,o),
(373,32,o),
(301,32,cs),
(211,32,o),
(159,97,o),
(159,199,cs),
(159,362,o),
(263,494,o),
(392,494,cs),
(439,494,o),
(472,459,o),
(483,403,cs),
(487,383,o),
(497,370,o),
(511,370,c),
(511,370,l),
(539,370,o),
(555,384,o),
(553,403,cs),
(546,464,o),
(481,510,o),
(399,510,cs),
(225,510,o),
(83,359,o),
(83,175,cs),
(83,62,o),
(153,-10,o),
(268,-10,cs),
(353,-10,o),
(444,48,o),
(496,132,c)
);
}
);
width = 499;
},
{
.lastUpdate = 794326577.278;
anchors = (
{
name = bottom;
pos = (265,0);
},
{
name = top;
pos = (363,500);
}
);
layerId = m008;
shapes = (
{
closed = 1;
nodes = (
(500,137,l),
(465,80,o),
(394,42,o),
(324,42,cs),
(241,42,o),
(193,104,o),
(193,202,cs),
(193,360,o),
(290,491,o),
(407,491,cs),
(442,491,o),
(474,459,o),
(483,405,cs),
(487,381,o),
(500,362,o),
(518,362,c),
(518,362,l),
(555,362,o),
(573,381,o),
(569,405,cs),
(559,466,o),
(500,510,o),
(416,510,cs),
(240,510,o),
(98,359,o),
(98,174,cs),
(98,61,o),
(168,-10,o),
(283,-10,cs),
(366,-10,o),
(458,46,o),
(511,132,c)
);
}
);
width = 540;
},
{
.lastUpdate = 794326577.278;
anchors = (
{
name = bottom;
pos = (266,0);
},
{
name = top;
pos = (363,500);
}
);
layerId = m009;
shapes = (
{
closed = 1;
nodes = (
(497,138,l),
(465,86,o),
(398,51,o),
(329,51,cs),
(254,51,o),
(209,110,o),
(209,205,cs),
(209,357,o),
(300,487,o),
(405,487,cs),
(434,487,o),
(460,456,o),
(469,406,cs),
(474,378,o),
(489,355,o),
(510,355,c),
(510,355,l),
(548,355,o),
(575,373,o),
(569,406,cs),
(558,467,o),
(498,510,o),
(415,510,cs),
(240,510,o),
(97,359,o),
(97,174,cs),
(97,62,o),
(166,-10,o),
(283,-10,cs),
(366,-10,o),
(458,46,o),
(510,132,c)
);
}
);
width = 542;
},
{
.lastUpdate = 794326577.279;
anchors = (
{
name = bottom;
pos = (248,0);
},
{
name = top;
pos = (345,500);
}
);
layerId = m010;
shapes = (
{
closed = 1;
nodes = (
(478,139,l),
(448,90,o),
(384,60,o),
(319,60,cs),
(250,60,o),
(209,116,o),
(209,206,cs),
(209,351,o),
(293,484,o),
(386,484,cs),
(409,484,o),
(429,451,o),
(437,405,cs),
(443,371,o),
(461,348,o),
(483,348,c),
(483,348,l),
(531,348,o),
(558,371,o),
(552,405,cs),
(541,467,o),
(480,510,o),
(398,510,cs),
(223,510,o),
(79,359,o),
(79,174,cs),
(79,62,o),
(148,-10,o),
(265,-10,cs),
(349,-10,o),
(440,46,o),
(492,132,c)
);
}
);
width = 496;
}
);
note = c;
unicode = 99;
},
